<?xml version="1.0" encoding="UTF-8" standalone="no"?>
<svg
   xmlns:dc="http://purl.org/dc/elements/1.1/"
   xmlns:cc="http://creativecommons.org/ns#"
   xmlns:rdf="http://www.w3.org/1999/02/22-rdf-syntax-ns#"
   xmlns:svg="http://www.w3.org/2000/svg"
   xmlns="http://www.w3.org/2000/svg"
   xmlns:sodipodi="http://sodipodi.sourceforge.net/DTD/sodipodi-0.dtd"
   xmlns:inkscape="http://www.inkscape.org/namespaces/inkscape"
   width="79.859467mm"
   height="86.803818mm"
   viewBox="0 0 79.859466 86.803818"
   version="1.1"
   id="svg8"
   inkscape:version="0.92.5 (2060ec1f9f, 2020-04-08)"
   sodipodi:docname="manual.svg">
  <defs
     id="defs2" />
  <sodipodi:namedview
     id="base"
     pagecolor="#ffffff"
     bordercolor="#666666"
     borderopacity="1.0"
     inkscape:pageopacity="0.0"
     inkscape:pageshadow="2"
     inkscape:zoom="1.4"
     inkscape:cx="-21.197217"
     inkscape:cy="185.17722"
     inkscape:document-units="mm"
     inkscape:current-layer="layer1"
     showgrid="true"
     showguides="false"
     inkscape:snap-global="false"
     inkscape:window-width="1920"
     inkscape:window-height="1023"
     inkscape:window-x="1920"
     inkscape:window-y="0"
     inkscape:window-maximized="1"
     fit-margin-top="0"
     fit-margin-left="0"
     fit-margin-right="0"
     fit-margin-bottom="0">
    <inkscape:grid
       type="xygrid"
       id="grid12"
       enabled="false"
       originx="-41.514346"
       originy="-90.219219" />
    <inkscape:grid
       type="axonomgrid"
       id="grid14"
       units="mm"
       empspacing="5"
       gridanglex="30"
       gridanglez="30"
       originx="-41.514346"
       originy="-90.219219" />
  </sodipodi:namedview>
  <metadata
     id="metadata5">
    <rdf:RDF>
      <cc:Work
         rdf:about="">
        <dc:format>image/svg+xml</dc:format>
        <dc:type
           rdf:resource="http://purl.org/dc/dcmitype/StillImage" />
        <dc:title />
      </cc:Work>
    </rdf:RDF>
  </metadata>
  <g
     inkscape:label="Capa 1"
     inkscape:groupmode="layer"
     id="layer1"
     transform="translate(-41.514347,-119.97697)">
    <circle
       style="fill:#a7ac93;fill-opacity:1;stroke:#001000;stroke-width:0.2;stroke-linecap:butt;stroke-miterlimit:4;stroke-dasharray:none;stroke-dashoffset:0;stroke-opacity:1"
       id="path837"
       cx="45.110626"
       cy="123.715"
       r="3.4962797"
       datafield="Com2|Z1_mot1_activo"
       dataanimtype="fill"
       dataanimvalues="#a7ac93;#55d400" />
    <circle
       style="fill:#a7ac93;fill-opacity:1;stroke:#001000;stroke-width:0.2;stroke-linecap:butt;stroke-miterlimit:4;stroke-dasharray:none;stroke-dashoffset:0;stroke-opacity:1"
       id="path837-8"
       cx="45.110626"
       cy="135.06778"
       r="3.4962797"
       datafield="Com2|Z2_mot1_activo"
       dataanimtype="fill"
       dataanimvalues="#a7ac93;#55d400" />
    <circle
       style="fill:#a7ac93;fill-opacity:1;stroke:#001000;stroke-width:0.2;stroke-linecap:butt;stroke-miterlimit:4;stroke-dasharray:none;stroke-dashoffset:0;stroke-opacity:1"
       id="path837-5"
       cx="45.110626"
       cy="157.77335"
       r="3.4962797"
       datafield="Com2|Z3_mot1_activo"
       dataanimtype="fill"
       dataanimvalues="#a7ac93;#55d400" />
    <circle
       style="fill:#a7ac93;fill-opacity:1;stroke:#001000;stroke-width:0.2;stroke-linecap:butt;stroke-miterlimit:4;stroke-dasharray:none;stroke-dashoffset:0;stroke-opacity:1"
       id="path837-0"
       cx="45.110626"
       cy="146.42056"
       r="3.4962797"
       datafield="Com2|Z2_bomba_activo"
       dataanimtype="fill"
       dataanimvalues="#a7ac93;#55d400" />
    <circle
       style="fill:#a7ac93;fill-opacity:1;stroke:#001000;stroke-width:0.2;stroke-linecap:butt;stroke-miterlimit:4;stroke-dasharray:none;stroke-dashoffset:0;stroke-opacity:1"
       id="path837-9"
       cx="45.110626"
       cy="169.12614"
       r="3.4962797"
       datafield="Com2|Z4_mot1_activo"
       dataanimtype="fill"
       dataanimvalues="#a7ac93;#55d400" />
    <circle
       style="fill:#a7ac93;fill-opacity:1;stroke:#001000;stroke-width:0.2;stroke-linecap:butt;stroke-miterlimit:4;stroke-dasharray:none;stroke-dashoffset:0;stroke-opacity:1"
       id="path837-6"
       cx="45.110626"
       cy="191.83173"
       r="3.4962797"
       datafield="Com2|Z6_mot1_activo"
       dataanimtype="fill"
       dataanimvalues="#a7ac93;#55d400" />
    <circle
       style="fill:#a7ac93;fill-opacity:1;stroke:#001000;stroke-width:0.2;stroke-linecap:butt;stroke-miterlimit:4;stroke-dasharray:none;stroke-dashoffset:0;stroke-opacity:1"
       id="path837-3"
       cx="45.110626"
       cy="180.47893"
       r="3.4962797"
       datafield="Com2|Z5_mot1_activo"
       dataanimtype="fill"
       dataanimvalues="#a7ac93;#55d400" />
    <circle
       style="fill:#a7ac93;fill-opacity:1;stroke:#001000;stroke-width:0.2;stroke-linecap:butt;stroke-miterlimit:4;stroke-dasharray:none;stroke-dashoffset:0;stroke-opacity:1"
       id="path837-85"
       cx="45.110626"
       cy="203.18451"
       r="3.4962797"
       datafield="Com2|Z7_mot1_activo"
       dataanimtype="fill"
       dataanimvalues="#a7ac93;#55d400" />
    <g
       aria-label="Variador 1"
       style="font-style:normal;font-variant:normal;font-weight:normal;font-stretch:normal;font-size:5.29166651px;line-height:1.25;font-family:sans-serif;-inkscape-font-specification:'sans-serif, Normal';font-variant-ligatures:normal;font-variant-caps:normal;font-variant-numeric:normal;font-feature-settings:normal;text-align:start;letter-spacing:0px;word-spacing:0px;writing-mode:lr-tb;text-anchor:start;fill:#000000;fill-opacity:1;stroke:none;stroke-width:0.26458332"
       id="text892">
      <path
         d="m 52.355474,125.17021 -1.472778,-3.85764 h 0.545186 l 1.222147,3.24786 1.224732,-3.24786 h 0.542602 l -1.470194,3.85764 z"
         style=""
         id="path995" />
      <path
         d="m 55.864304,123.71552 q -0.576193,0 -0.798401,0.13178 -0.222209,0.13177 -0.222209,0.44958 0,0.25321 0.165365,0.40308 0.167948,0.14727 0.454752,0.14727 0.395325,0 0.633036,-0.27905 0.240296,-0.28164 0.240296,-0.74672 v -0.10594 z m 0.948262,-0.19637 v 1.65106 h -0.475423 v -0.43925 q -0.162781,0.26355 -0.40566,0.39016 -0.242879,0.12402 -0.594279,0.12402 -0.444417,0 -0.707967,-0.24804 -0.260966,-0.25063 -0.260966,-0.66921 0,-0.48835 0.325561,-0.73639 0.328146,-0.24805 0.976685,-0.24805 h 0.666626 v -0.0465 q 0,-0.32814 -0.217041,-0.50643 -0.214457,-0.18087 -0.604614,-0.18087 -0.248047,0 -0.483175,0.0594 -0.235128,0.0594 -0.452169,0.17829 v -0.43925 q 0.260966,-0.10077 0.506429,-0.14987 0.245463,-0.0517 0.478007,-0.0517 0.627869,0 0.937927,0.32556 0.310059,0.32556 0.310059,0.98702 z"
         style=""
         id="path997" />
      <path
         d="m 59.468734,122.72075 q -0.0801,-0.0465 -0.1757,-0.0672 -0.09302,-0.0233 -0.206705,-0.0233 -0.403076,0 -0.620117,0.26355 -0.214458,0.26096 -0.214458,0.75189 v 1.52445 h -0.478007 v -2.89388 h 0.478007 v 0.44959 q 0.149862,-0.26355 0.390157,-0.39016 0.240296,-0.12919 0.583944,-0.12919 0.04909,0 0.108521,0.008 0.05943,0.005 0.131775,0.0181 z"
         style=""
         id="path999" />
      <path
         d="m 59.967412,122.27633 h 0.475423 v 2.89388 h -0.475423 z m 0,-1.12654 h 0.475423 v 0.60203 h -0.475423 z"
         style=""
         id="path1001" />
      <path
         d="m 62.752771,123.71552 q -0.576192,0 -0.798401,0.13178 -0.222208,0.13177 -0.222208,0.44958 0,0.25321 0.165364,0.40308 0.167949,0.14727 0.454753,0.14727 0.395325,0 0.633036,-0.27905 0.240296,-0.28164 0.240296,-0.74672 v -0.10594 z m 0.948263,-0.19637 v 1.65106 h -0.475423 v -0.43925 q -0.162781,0.26355 -0.40566,0.39016 -0.24288,0.12402 -0.594279,0.12402 -0.444418,0 -0.707967,-0.24804 -0.260966,-0.25063 -0.260966,-0.66921 0,-0.48835 0.325561,-0.73639 0.328146,-0.24805 0.976685,-0.24805 h 0.666626 v -0.0465 q 0,-0.32814 -0.217041,-0.50643 -0.214458,-0.18087 -0.604615,-0.18087 -0.248046,0 -0.483174,0.0594 -0.235128,0.0594 -0.452169,0.17829 v -0.43925 q 0.260966,-0.10077 0.506429,-0.14987 0.245463,-0.0517 0.478007,-0.0517 0.627869,0 0.937927,0.32556 0.310059,0.32556 0.310059,0.98702 z"
         style=""
         id="path1003" />
      <path
         d="m 66.584579,122.71558 v -1.56579 h 0.475424 v 4.02042 h -0.475424 v -0.43408 q -0.149861,0.25838 -0.379821,0.38499 -0.227377,0.12402 -0.547771,0.12402 -0.524515,0 -0.855244,-0.41858 -0.328146,-0.41858 -0.328146,-1.1007 0,-0.68213 0.328146,-1.10071 0.330729,-0.41858 0.855244,-0.41858 0.320394,0 0.547771,0.12661 0.22996,0.12402 0.379821,0.3824 z m -1.620056,1.01028 q 0,0.52451 0.214457,0.82423 0.217041,0.29714 0.594279,0.29714 0.377238,0 0.594279,-0.29714 0.217041,-0.29972 0.217041,-0.82423 0,-0.52452 -0.217041,-0.82166 -0.217041,-0.29972 -0.594279,-0.29972 -0.377238,0 -0.594279,0.29972 -0.214457,0.29714 -0.214457,0.82166 z"
         style=""
         id="path1005" />
      <path
         d="m 69.160648,122.60964 q -0.382405,0 -0.604614,0.29973 -0.222209,0.29714 -0.222209,0.81649 0,0.51934 0.219625,0.81907 0.222209,0.29714 0.607198,0.29714 0.379822,0 0.602031,-0.29973 0.222208,-0.29972 0.222208,-0.81648 0,-0.51418 -0.222208,-0.81391 -0.222209,-0.30231 -0.602031,-0.30231 z m 0,-0.40307 q 0.620117,0 0.974101,0.40307 0.353984,0.40308 0.353984,1.11622 0,0.71055 -0.353984,1.11621 -0.353984,0.40307 -0.974101,0.40307 -0.622701,0 -0.976684,-0.40307 -0.3514,-0.40566 -0.3514,-1.11621 0,-0.71314 0.3514,-1.11622 0.353983,-0.40307 0.976684,-0.40307 z"
         style=""
         id="path1007" />
      <path
         d="m 72.9537,122.72075 q -0.0801,-0.0465 -0.1757,-0.0672 -0.09302,-0.0233 -0.206706,-0.0233 -0.403076,0 -0.620117,0.26355 -0.214457,0.26096 -0.214457,0.75189 v 1.52445 h -0.478007 v -2.89388 h 0.478007 v 0.44959 q 0.149861,-0.26355 0.390157,-0.39016 0.240295,-0.12919 0.583943,-0.12919 0.04909,0 0.108521,0.008 0.05943,0.005 0.131775,0.0181 z"
         style=""
         id="path1009" />
      <path
         d="m 75.292058,124.73096 h 0.852661 v -2.94297 l -0.927592,0.18603 v -0.47542 l 0.922424,-0.18603 h 0.521932 v 3.41839 h 0.852661 v 0.43925 h -2.222086 z"
         style=""
         id="path1011" />
    </g>
    <g
       aria-label="Variador 2"
       style="font-style:normal;font-variant:normal;font-weight:normal;font-stretch:normal;font-size:5.29166651px;line-height:1.25;font-family:sans-serif;-inkscape-font-specification:'sans-serif, Normal';font-variant-ligatures:normal;font-variant-caps:normal;font-variant-numeric:normal;font-feature-settings:normal;text-align:start;letter-spacing:0px;word-spacing:0px;writing-mode:lr-tb;text-anchor:start;fill:#000000;fill-opacity:1;stroke:none;stroke-width:0.26458332"
       id="text892-1">
      <path
         d="m 52.355474,136.60234 -1.472778,-3.85764 h 0.545186 l 1.222147,3.24786 1.224732,-3.24786 h 0.542602 l -1.470194,3.85764 z"
         style=""
         id="path976" />
      <path
         d="m 55.864304,135.14765 q -0.576193,0 -0.798401,0.13177 -0.222209,0.13178 -0.222209,0.44959 0,0.25321 0.165365,0.40308 0.167948,0.14727 0.454752,0.14727 0.395325,0 0.633036,-0.27905 0.240296,-0.28164 0.240296,-0.74672 v -0.10594 z m 0.948262,-0.19637 v 1.65106 h -0.475423 v -0.43925 q -0.162781,0.26355 -0.40566,0.39016 -0.242879,0.12402 -0.594279,0.12402 -0.444417,0 -0.707967,-0.24805 -0.260966,-0.25063 -0.260966,-0.66921 0,-0.48834 0.325561,-0.73638 0.328146,-0.24805 0.976685,-0.24805 h 0.666626 v -0.0465 q 0,-0.32815 -0.217041,-0.50643 -0.214457,-0.18087 -0.604614,-0.18087 -0.248047,0 -0.483175,0.0594 -0.235128,0.0594 -0.452169,0.17829 v -0.43925 q 0.260966,-0.10077 0.506429,-0.14987 0.245463,-0.0517 0.478007,-0.0517 0.627869,0 0.937927,0.32556 0.310059,0.32556 0.310059,0.98702 z"
         style=""
         id="path978" />
      <path
         d="m 59.468734,134.15288 q -0.0801,-0.0465 -0.1757,-0.0672 -0.09302,-0.0233 -0.206705,-0.0233 -0.403076,0 -0.620117,0.26355 -0.214458,0.26097 -0.214458,0.7519 v 1.52445 h -0.478007 v -2.89388 h 0.478007 v 0.44959 q 0.149862,-0.26355 0.390157,-0.39016 0.240296,-0.12919 0.583944,-0.12919 0.04909,0 0.108521,0.008 0.05943,0.005 0.131775,0.0181 z"
         style=""
         id="path980" />
      <path
         d="m 59.967412,133.70846 h 0.475423 v 2.89388 h -0.475423 z m 0,-1.12655 h 0.475423 v 0.60203 h -0.475423 z"
         style=""
         id="path982" />
      <path
         d="m 62.752771,135.14765 q -0.576192,0 -0.798401,0.13177 -0.222208,0.13178 -0.222208,0.44959 0,0.25321 0.165364,0.40308 0.167949,0.14727 0.454753,0.14727 0.395325,0 0.633036,-0.27905 0.240296,-0.28164 0.240296,-0.74672 v -0.10594 z m 0.948263,-0.19637 v 1.65106 h -0.475423 v -0.43925 q -0.162781,0.26355 -0.40566,0.39016 -0.24288,0.12402 -0.594279,0.12402 -0.444418,0 -0.707967,-0.24805 -0.260966,-0.25063 -0.260966,-0.66921 0,-0.48834 0.325561,-0.73638 0.328146,-0.24805 0.976685,-0.24805 h 0.666626 v -0.0465 q 0,-0.32815 -0.217041,-0.50643 -0.214458,-0.18087 -0.604615,-0.18087 -0.248046,0 -0.483174,0.0594 -0.235128,0.0594 -0.452169,0.17829 v -0.43925 q 0.260966,-0.10077 0.506429,-0.14987 0.245463,-0.0517 0.478007,-0.0517 0.627869,0 0.937927,0.32556 0.310059,0.32556 0.310059,0.98702 z"
         style=""
         id="path984" />
      <path
         d="m 66.584579,134.14771 v -1.5658 h 0.475424 v 4.02043 h -0.475424 v -0.43408 q -0.149861,0.25838 -0.379821,0.38499 -0.227377,0.12402 -0.547771,0.12402 -0.524515,0 -0.855244,-0.41858 -0.328146,-0.41858 -0.328146,-1.10071 0,-0.68212 0.328146,-1.1007 0.330729,-0.41858 0.855244,-0.41858 0.320394,0 0.547771,0.1266 0.22996,0.12403 0.379821,0.38241 z m -1.620056,1.01027 q 0,0.52452 0.214457,0.82424 0.217041,0.29714 0.594279,0.29714 0.377238,0 0.594279,-0.29714 0.217041,-0.29972 0.217041,-0.82424 0,-0.52451 -0.217041,-0.82165 -0.217041,-0.29972 -0.594279,-0.29972 -0.377238,0 -0.594279,0.29972 -0.214457,0.29714 -0.214457,0.82165 z"
         style=""
         id="path986" />
      <path
         d="m 69.160648,134.04177 q -0.382405,0 -0.604614,0.29973 -0.222209,0.29714 -0.222209,0.81648 0,0.51935 0.219625,0.81908 0.222209,0.29714 0.607198,0.29714 0.379822,0 0.602031,-0.29973 0.222208,-0.29972 0.222208,-0.81649 0,-0.51418 -0.222208,-0.8139 -0.222209,-0.30231 -0.602031,-0.30231 z m 0,-0.40307 q 0.620117,0 0.974101,0.40307 0.353984,0.40308 0.353984,1.11621 0,0.71056 -0.353984,1.11622 -0.353984,0.40307 -0.974101,0.40307 -0.622701,0 -0.976684,-0.40307 -0.3514,-0.40566 -0.3514,-1.11622 0,-0.71313 0.3514,-1.11621 0.353983,-0.40307 0.976684,-0.40307 z"
         style=""
         id="path988" />
      <path
         d="m 72.9537,134.15288 q -0.0801,-0.0465 -0.1757,-0.0672 -0.09302,-0.0233 -0.206706,-0.0233 -0.403076,0 -0.620117,0.26355 -0.214457,0.26097 -0.214457,0.7519 v 1.52445 h -0.478007 v -2.89388 h 0.478007 v 0.44959 q 0.149861,-0.26355 0.390157,-0.39016 0.240295,-0.12919 0.583943,-0.12919 0.04909,0 0.108521,0.008 0.05943,0.005 0.131775,0.0181 z"
         style=""
         id="path990" />
      <path
         d="m 75.651209,136.16309 h 1.821594 v 0.43925 H 75.02334 v -0.43925 q 0.29714,-0.30747 0.808736,-0.82424 0.514181,-0.51935 0.645956,-0.66921 0.25063,-0.28163 0.348816,-0.47542 0.100769,-0.19637 0.100769,-0.38499 0,-0.30748 -0.217041,-0.50126 -0.214458,-0.19379 -0.56069,-0.19379 -0.245463,0 -0.519348,0.0853 -0.271301,0.0853 -0.58136,0.25838 v -0.5271 q 0.315227,-0.12661 0.589112,-0.1912 0.273885,-0.0646 0.501261,-0.0646 0.599447,0 0.956014,0.29973 0.356567,0.29972 0.356567,0.80098 0,0.23771 -0.09043,0.45217 -0.08785,0.21187 -0.322978,0.50126 -0.0646,0.0749 -0.410828,0.43408 -0.346232,0.35657 -0.976684,0.99994 z"
         style=""
         id="path992" />
    </g>
    <g
       aria-label="Variador 3"
       style="font-style:normal;font-variant:normal;font-weight:normal;font-stretch:normal;font-size:5.29166651px;line-height:1.25;font-family:sans-serif;-inkscape-font-specification:'sans-serif, Normal';font-variant-ligatures:normal;font-variant-caps:normal;font-variant-numeric:normal;font-feature-settings:normal;text-align:start;letter-spacing:0px;word-spacing:0px;writing-mode:lr-tb;text-anchor:start;fill:#000000;fill-opacity:1;stroke:none;stroke-width:0.26458332"
       id="text892-3">
      <path
         d="m 52.355474,148.03445 -1.472778,-3.85764 h 0.545186 l 1.222147,3.24786 1.224732,-3.24786 h 0.542602 l -1.470194,3.85764 z"
         style=""
         id="path957" />
      <path
         d="m 55.864304,146.57976 q -0.576193,0 -0.798401,0.13178 -0.222209,0.13177 -0.222209,0.44958 0,0.25322 0.165365,0.40308 0.167948,0.14728 0.454752,0.14728 0.395325,0 0.633036,-0.27906 0.240296,-0.28163 0.240296,-0.74672 v -0.10594 z m 0.948262,-0.19637 v 1.65106 h -0.475423 v -0.43925 q -0.162781,0.26355 -0.40566,0.39016 -0.242879,0.12403 -0.594279,0.12403 -0.444417,0 -0.707967,-0.24805 -0.260966,-0.25063 -0.260966,-0.66921 0,-0.48834 0.325561,-0.73639 0.328146,-0.24805 0.976685,-0.24805 h 0.666626 v -0.0465 q 0,-0.32814 -0.217041,-0.50643 -0.214457,-0.18086 -0.604614,-0.18086 -0.248047,0 -0.483175,0.0594 -0.235128,0.0594 -0.452169,0.17828 v -0.43925 q 0.260966,-0.10077 0.506429,-0.14986 0.245463,-0.0517 0.478007,-0.0517 0.627869,0 0.937927,0.32556 0.310059,0.32556 0.310059,0.98702 z"
         style=""
         id="path959" />
      <path
         d="m 59.468734,145.58499 q -0.0801,-0.0465 -0.1757,-0.0672 -0.09302,-0.0232 -0.206705,-0.0232 -0.403076,0 -0.620117,0.26355 -0.214458,0.26096 -0.214458,0.75189 v 1.52445 h -0.478007 v -2.89388 h 0.478007 v 0.44959 q 0.149862,-0.26355 0.390157,-0.39016 0.240296,-0.12919 0.583944,-0.12919 0.04909,0 0.108521,0.008 0.05943,0.005 0.131775,0.0181 z"
         style=""
         id="path961" />
      <path
         d="m 59.967412,145.14057 h 0.475423 v 2.89388 h -0.475423 z m 0,-1.12654 h 0.475423 v 0.60203 h -0.475423 z"
         style=""
         id="path963" />
      <path
         d="m 62.752771,146.57976 q -0.576192,0 -0.798401,0.13178 -0.222208,0.13177 -0.222208,0.44958 0,0.25322 0.165364,0.40308 0.167949,0.14728 0.454753,0.14728 0.395325,0 0.633036,-0.27906 0.240296,-0.28163 0.240296,-0.74672 v -0.10594 z m 0.948263,-0.19637 v 1.65106 h -0.475423 v -0.43925 q -0.162781,0.26355 -0.40566,0.39016 -0.24288,0.12403 -0.594279,0.12403 -0.444418,0 -0.707967,-0.24805 -0.260966,-0.25063 -0.260966,-0.66921 0,-0.48834 0.325561,-0.73639 0.328146,-0.24805 0.976685,-0.24805 h 0.666626 v -0.0465 q 0,-0.32814 -0.217041,-0.50643 -0.214458,-0.18086 -0.604615,-0.18086 -0.248046,0 -0.483174,0.0594 -0.235128,0.0594 -0.452169,0.17828 v -0.43925 q 0.260966,-0.10077 0.506429,-0.14986 0.245463,-0.0517 0.478007,-0.0517 0.627869,0 0.937927,0.32556 0.310059,0.32556 0.310059,0.98702 z"
         style=""
         id="path965" />
      <path
         d="m 66.584579,145.57982 v -1.56579 h 0.475424 v 4.02042 h -0.475424 v -0.43408 q -0.149861,0.25838 -0.379821,0.38499 -0.227377,0.12403 -0.547771,0.12403 -0.524515,0 -0.855244,-0.41858 -0.328146,-0.41858 -0.328146,-1.10071 0,-0.68213 0.328146,-1.10071 0.330729,-0.41858 0.855244,-0.41858 0.320394,0 0.547771,0.12661 0.22996,0.12402 0.379821,0.3824 z m -1.620056,1.01028 q 0,0.52451 0.214457,0.82424 0.217041,0.29714 0.594279,0.29714 0.377238,0 0.594279,-0.29714 0.217041,-0.29973 0.217041,-0.82424 0,-0.52452 -0.217041,-0.82166 -0.217041,-0.29972 -0.594279,-0.29972 -0.377238,0 -0.594279,0.29972 -0.214457,0.29714 -0.214457,0.82166 z"
         style=""
         id="path967" />
      <path
         d="m 69.160648,145.47389 q -0.382405,0 -0.604614,0.29972 -0.222209,0.29714 -0.222209,0.81649 0,0.51935 0.219625,0.81907 0.222209,0.29714 0.607198,0.29714 0.379822,0 0.602031,-0.29972 0.222208,-0.29973 0.222208,-0.81649 0,-0.51418 -0.222208,-0.81391 -0.222209,-0.3023 -0.602031,-0.3023 z m 0,-0.40308 q 0.620117,0 0.974101,0.40308 0.353984,0.40307 0.353984,1.11621 0,0.71055 -0.353984,1.11621 -0.353984,0.40308 -0.974101,0.40308 -0.622701,0 -0.976684,-0.40308 -0.3514,-0.40566 -0.3514,-1.11621 0,-0.71314 0.3514,-1.11621 0.353983,-0.40308 0.976684,-0.40308 z"
         style=""
         id="path969" />
      <path
         d="m 72.9537,145.58499 q -0.0801,-0.0465 -0.1757,-0.0672 -0.09302,-0.0232 -0.206706,-0.0232 -0.403076,0 -0.620117,0.26355 -0.214457,0.26096 -0.214457,0.75189 v 1.52445 h -0.478007 v -2.89388 h 0.478007 v 0.44959 q 0.149861,-0.26355 0.390157,-0.39016 0.240295,-0.12919 0.583943,-0.12919 0.04909,0 0.108521,0.008 0.05943,0.005 0.131775,0.0181 z"
         style=""
         id="path971" />
      <path
         d="m 76.782923,145.95448 q 0.374654,0.0801 0.583943,0.33331 0.211874,0.25322 0.211874,0.62529 0,0.57102 -0.392741,0.88366 -0.392741,0.31265 -1.116211,0.31265 -0.242879,0 -0.501261,-0.0491 -0.255799,-0.0465 -0.529684,-0.14211 v -0.50384 q 0.217041,0.1266 0.475423,0.1912 0.258382,0.0646 0.540019,0.0646 0.490926,0 0.746724,-0.19379 0.258383,-0.19379 0.258383,-0.56327 0,-0.34107 -0.240296,-0.53227 -0.237711,-0.19379 -0.664042,-0.19379 h -0.449585 v -0.42891 h 0.470256 q 0.384989,0 0.589111,-0.15245 0.204122,-0.15503 0.204122,-0.44442 0,-0.29713 -0.211874,-0.45475 -0.209289,-0.16019 -0.60203,-0.16019 -0.214457,0 -0.45992,0.0465 -0.245463,0.0465 -0.540019,0.1447 v -0.46509 q 0.29714,-0.0827 0.555522,-0.12402 0.260966,-0.0413 0.490926,-0.0413 0.594279,0 0.940511,0.2713 0.346232,0.26871 0.346232,0.72863 0,0.3204 -0.183451,0.54261 -0.183452,0.21962 -0.521932,0.30489 z"
         style=""
         id="path973" />
    </g>
    <g
       aria-label="Variador 5"
       style="font-style:normal;font-variant:normal;font-weight:normal;font-stretch:normal;font-size:5.29166651px;line-height:1.25;font-family:sans-serif;-inkscape-font-specification:'sans-serif, Normal';font-variant-ligatures:normal;font-variant-caps:normal;font-variant-numeric:normal;font-feature-settings:normal;text-align:start;letter-spacing:0px;word-spacing:0px;writing-mode:lr-tb;text-anchor:start;fill:#000000;fill-opacity:1;stroke:none;stroke-width:0.26458332"
       id="text892-4">
      <path
         d="m 52.355474,170.8987 -1.472778,-3.85765 h 0.545186 l 1.222147,3.24787 1.224732,-3.24787 h 0.542602 l -1.470194,3.85765 z"
         style=""
         id="path919" />
      <path
         d="m 55.864304,169.44401 q -0.576193,0 -0.798401,0.13177 -0.222209,0.13178 -0.222209,0.44959 0,0.25321 0.165365,0.40307 0.167948,0.14728 0.454752,0.14728 0.395325,0 0.633036,-0.27905 0.240296,-0.28164 0.240296,-0.74673 v -0.10593 z m 0.948262,-0.19638 v 1.65107 h -0.475423 v -0.43925 q -0.162781,0.26355 -0.40566,0.39015 -0.242879,0.12403 -0.594279,0.12403 -0.444417,0 -0.707967,-0.24805 -0.260966,-0.25063 -0.260966,-0.66921 0,-0.48834 0.325561,-0.73639 0.328146,-0.24804 0.976685,-0.24804 h 0.666626 v -0.0465 q 0,-0.32815 -0.217041,-0.50643 -0.214457,-0.18087 -0.604614,-0.18087 -0.248047,0 -0.483175,0.0594 -0.235128,0.0594 -0.452169,0.17828 v -0.43925 q 0.260966,-0.10077 0.506429,-0.14986 0.245463,-0.0517 0.478007,-0.0517 0.627869,0 0.937927,0.32557 0.310059,0.32556 0.310059,0.98701 z"
         style=""
         id="path921" />
      <path
         d="m 59.468734,168.44923 q -0.0801,-0.0465 -0.1757,-0.0672 -0.09302,-0.0232 -0.206705,-0.0232 -0.403076,0 -0.620117,0.26355 -0.214458,0.26097 -0.214458,0.75189 v 1.52446 h -0.478007 v -2.89388 h 0.478007 v 0.44958 q 0.149862,-0.26355 0.390157,-0.39016 0.240296,-0.12919 0.583944,-0.12919 0.04909,0 0.108521,0.008 0.05943,0.005 0.131775,0.0181 z"
         style=""
         id="path923" />
      <path
         d="m 59.967412,168.00482 h 0.475423 v 2.89388 h -0.475423 z m 0,-1.12655 h 0.475423 v 0.60203 h -0.475423 z"
         style=""
         id="path925" />
      <path
         d="m 62.752771,169.44401 q -0.576192,0 -0.798401,0.13177 -0.222208,0.13178 -0.222208,0.44959 0,0.25321 0.165364,0.40307 0.167949,0.14728 0.454753,0.14728 0.395325,0 0.633036,-0.27905 0.240296,-0.28164 0.240296,-0.74673 v -0.10593 z m 0.948263,-0.19638 v 1.65107 h -0.475423 v -0.43925 q -0.162781,0.26355 -0.40566,0.39015 -0.24288,0.12403 -0.594279,0.12403 -0.444418,0 -0.707967,-0.24805 -0.260966,-0.25063 -0.260966,-0.66921 0,-0.48834 0.325561,-0.73639 0.328146,-0.24804 0.976685,-0.24804 h 0.666626 v -0.0465 q 0,-0.32815 -0.217041,-0.50643 -0.214458,-0.18087 -0.604615,-0.18087 -0.248046,0 -0.483174,0.0594 -0.235128,0.0594 -0.452169,0.17828 v -0.43925 q 0.260966,-0.10077 0.506429,-0.14986 0.245463,-0.0517 0.478007,-0.0517 0.627869,0 0.937927,0.32557 0.310059,0.32556 0.310059,0.98701 z"
         style=""
         id="path927" />
      <path
         d="m 66.584579,168.44407 v -1.5658 h 0.475424 v 4.02043 h -0.475424 v -0.43409 q -0.149861,0.25839 -0.379821,0.38499 -0.227377,0.12403 -0.547771,0.12403 -0.524515,0 -0.855244,-0.41858 -0.328146,-0.41858 -0.328146,-1.10071 0,-0.68213 0.328146,-1.10071 0.330729,-0.41858 0.855244,-0.41858 0.320394,0 0.547771,0.12661 0.22996,0.12402 0.379821,0.38241 z m -1.620056,1.01027 q 0,0.52452 0.214457,0.82424 0.217041,0.29714 0.594279,0.29714 0.377238,0 0.594279,-0.29714 0.217041,-0.29972 0.217041,-0.82424 0,-0.52452 -0.217041,-0.82165 -0.217041,-0.29973 -0.594279,-0.29973 -0.377238,0 -0.594279,0.29973 -0.214457,0.29713 -0.214457,0.82165 z"
         style=""
         id="path929" />
      <path
         d="m 69.160648,168.33813 q -0.382405,0 -0.604614,0.29972 -0.222209,0.29714 -0.222209,0.81649 0,0.51935 0.219625,0.81907 0.222209,0.29714 0.607198,0.29714 0.379822,0 0.602031,-0.29972 0.222208,-0.29973 0.222208,-0.81649 0,-0.51418 -0.222208,-0.8139 -0.222209,-0.30231 -0.602031,-0.30231 z m 0,-0.40308 q 0.620117,0 0.974101,0.40308 0.353984,0.40308 0.353984,1.11621 0,0.71055 -0.353984,1.11621 -0.353984,0.40308 -0.974101,0.40308 -0.622701,0 -0.976684,-0.40308 -0.3514,-0.40566 -0.3514,-1.11621 0,-0.71313 0.3514,-1.11621 0.353983,-0.40308 0.976684,-0.40308 z"
         style=""
         id="path931" />
      <path
         d="m 72.9537,168.44923 q -0.0801,-0.0465 -0.1757,-0.0672 -0.09302,-0.0232 -0.206706,-0.0232 -0.403076,0 -0.620117,0.26355 -0.214457,0.26097 -0.214457,0.75189 v 1.52446 h -0.478007 v -2.89388 h 0.478007 v 0.44958 q 0.149861,-0.26355 0.390157,-0.39016 0.240295,-0.12919 0.583943,-0.12919 0.04909,0 0.108521,0.008 0.05943,0.005 0.131775,0.0181 z"
         style=""
         id="path933" />
      <path
         d="m 75.206792,167.04105 h 2.04897 v 0.43925 h -1.570963 v 0.94568 q 0.113688,-0.0388 0.227376,-0.0568 0.113688,-0.0207 0.227376,-0.0207 0.645956,0 1.023193,0.35398 0.377238,0.35398 0.377238,0.9586 0,0.6227 -0.387573,0.96893 -0.387573,0.34365 -1.092956,0.34365 -0.24288,0 -0.496094,-0.0413 -0.250631,-0.0413 -0.519348,-0.12403 v -0.52451 q 0.232544,0.1266 0.480591,0.18862 0.248046,0.062 0.524515,0.062 0.447001,0 0.707967,-0.23513 0.260966,-0.23513 0.260966,-0.6382 0,-0.40308 -0.260966,-0.63821 -0.260966,-0.23513 -0.707967,-0.23513 -0.209289,0 -0.418579,0.0465 -0.206705,0.0465 -0.423746,0.1447 z"
         style=""
         id="path935" />
    </g>
    <g
       aria-label="Variador 4"
       style="font-style:normal;font-variant:normal;font-weight:normal;font-stretch:normal;font-size:5.29166651px;line-height:1.25;font-family:sans-serif;-inkscape-font-specification:'sans-serif, Normal';font-variant-ligatures:normal;font-variant-caps:normal;font-variant-numeric:normal;font-feature-settings:normal;text-align:start;letter-spacing:0px;word-spacing:0px;writing-mode:lr-tb;text-anchor:start;fill:#000000;fill-opacity:1;stroke:none;stroke-width:0.26458332"
       id="text892-47">
      <path
         d="m 52.355474,159.46657 -1.472778,-3.85765 h 0.545186 l 1.222147,3.24787 1.224732,-3.24787 h 0.542602 l -1.470194,3.85765 z"
         style=""
         id="path938" />
      <path
         d="m 55.864304,158.01188 q -0.576193,0 -0.798401,0.13177 -0.222209,0.13178 -0.222209,0.44959 0,0.25321 0.165365,0.40307 0.167948,0.14728 0.454752,0.14728 0.395325,0 0.633036,-0.27905 0.240296,-0.28164 0.240296,-0.74673 v -0.10593 z m 0.948262,-0.19637 v 1.65106 h -0.475423 v -0.43925 q -0.162781,0.26355 -0.40566,0.39016 -0.242879,0.12402 -0.594279,0.12402 -0.444417,0 -0.707967,-0.24805 -0.260966,-0.25063 -0.260966,-0.66921 0,-0.48834 0.325561,-0.73639 0.328146,-0.24804 0.976685,-0.24804 h 0.666626 v -0.0465 q 0,-0.32815 -0.217041,-0.50643 -0.214457,-0.18087 -0.604614,-0.18087 -0.248047,0 -0.483175,0.0594 -0.235128,0.0594 -0.452169,0.17828 v -0.43925 q 0.260966,-0.10077 0.506429,-0.14986 0.245463,-0.0517 0.478007,-0.0517 0.627869,0 0.937927,0.32557 0.310059,0.32556 0.310059,0.98702 z"
         style=""
         id="path940" />
      <path
         d="m 59.468734,157.01711 q -0.0801,-0.0465 -0.1757,-0.0672 -0.09302,-0.0233 -0.206705,-0.0233 -0.403076,0 -0.620117,0.26355 -0.214458,0.26097 -0.214458,0.75189 v 1.52446 h -0.478007 v -2.89388 h 0.478007 v 0.44958 q 0.149862,-0.26355 0.390157,-0.39015 0.240296,-0.1292 0.583944,-0.1292 0.04909,0 0.108521,0.008 0.05943,0.005 0.131775,0.0181 z"
         style=""
         id="path942" />
      <path
         d="m 59.967412,156.57269 h 0.475423 v 2.89388 h -0.475423 z m 0,-1.12655 h 0.475423 v 0.60203 h -0.475423 z"
         style=""
         id="path944" />
      <path
         d="m 62.752771,158.01188 q -0.576192,0 -0.798401,0.13177 -0.222208,0.13178 -0.222208,0.44959 0,0.25321 0.165364,0.40307 0.167949,0.14728 0.454753,0.14728 0.395325,0 0.633036,-0.27905 0.240296,-0.28164 0.240296,-0.74673 v -0.10593 z m 0.948263,-0.19637 v 1.65106 h -0.475423 v -0.43925 q -0.162781,0.26355 -0.40566,0.39016 -0.24288,0.12402 -0.594279,0.12402 -0.444418,0 -0.707967,-0.24805 -0.260966,-0.25063 -0.260966,-0.66921 0,-0.48834 0.325561,-0.73639 0.328146,-0.24804 0.976685,-0.24804 h 0.666626 v -0.0465 q 0,-0.32815 -0.217041,-0.50643 -0.214458,-0.18087 -0.604615,-0.18087 -0.248046,0 -0.483174,0.0594 -0.235128,0.0594 -0.452169,0.17828 v -0.43925 q 0.260966,-0.10077 0.506429,-0.14986 0.245463,-0.0517 0.478007,-0.0517 0.627869,0 0.937927,0.32557 0.310059,0.32556 0.310059,0.98702 z"
         style=""
         id="path946" />
      <path
         d="m 66.584579,157.01194 v -1.5658 h 0.475424 v 4.02043 h -0.475424 v -0.43408 q -0.149861,0.25838 -0.379821,0.38499 -0.227377,0.12402 -0.547771,0.12402 -0.524515,0 -0.855244,-0.41858 -0.328146,-0.41858 -0.328146,-1.10071 0,-0.68213 0.328146,-1.10071 0.330729,-0.41858 0.855244,-0.41858 0.320394,0 0.547771,0.12661 0.22996,0.12403 0.379821,0.38241 z m -1.620056,1.01027 q 0,0.52452 0.214457,0.82424 0.217041,0.29714 0.594279,0.29714 0.377238,0 0.594279,-0.29714 0.217041,-0.29972 0.217041,-0.82424 0,-0.52451 -0.217041,-0.82165 -0.217041,-0.29973 -0.594279,-0.29973 -0.377238,0 -0.594279,0.29973 -0.214457,0.29714 -0.214457,0.82165 z"
         style=""
         id="path948" />
      <path
         d="m 69.160648,156.906 q -0.382405,0 -0.604614,0.29972 -0.222209,0.29714 -0.222209,0.81649 0,0.51935 0.219625,0.81907 0.222209,0.29714 0.607198,0.29714 0.379822,0 0.602031,-0.29972 0.222208,-0.29972 0.222208,-0.81649 0,-0.51418 -0.222208,-0.8139 Q 69.54047,156.906 69.160648,156.906 Z m 0,-0.40308 q 0.620117,0 0.974101,0.40308 0.353984,0.40308 0.353984,1.11621 0,0.71055 -0.353984,1.11621 -0.353984,0.40308 -0.974101,0.40308 -0.622701,0 -0.976684,-0.40308 -0.3514,-0.40566 -0.3514,-1.11621 0,-0.71313 0.3514,-1.11621 0.353983,-0.40308 0.976684,-0.40308 z"
         style=""
         id="path950" />
      <path
         d="m 72.9537,157.01711 q -0.0801,-0.0465 -0.1757,-0.0672 -0.09302,-0.0233 -0.206706,-0.0233 -0.403076,0 -0.620117,0.26355 -0.214457,0.26097 -0.214457,0.75189 v 1.52446 h -0.478007 v -2.89388 h 0.478007 v 0.44958 q 0.149861,-0.26355 0.390157,-0.39015 0.240295,-0.1292 0.583943,-0.1292 0.04909,0 0.108521,0.008 0.05943,0.005 0.131775,0.0181 z"
         style=""
         id="path952" />
      <path
         d="m 76.635645,156.06368 -1.317749,2.0593 h 1.317749 z m -0.136943,-0.45476 h 0.656291 v 2.51406 h 0.550354 v 0.43408 h -0.550354 v 0.90951 h -0.519348 v -0.90951 h -1.741496 v -0.50384 z"
         style=""
         id="path954" />
    </g>
    <g
       aria-label="Variador 6"
       style="font-style:normal;font-variant:normal;font-weight:normal;font-stretch:normal;font-size:5.29166651px;line-height:1.25;font-family:sans-serif;-inkscape-font-specification:'sans-serif, Normal';font-variant-ligatures:normal;font-variant-caps:normal;font-variant-numeric:normal;font-feature-settings:normal;text-align:start;letter-spacing:0px;word-spacing:0px;writing-mode:lr-tb;text-anchor:start;fill:#000000;fill-opacity:1;stroke:none;stroke-width:0.26458332"
       id="text892-31">
      <path
         d="m 52.355474,182.33081 -1.472778,-3.85765 h 0.545186 l 1.222147,3.24787 1.224732,-3.24787 h 0.542602 l -1.470194,3.85765 z"
         style=""
         id="path900" />
      <path
         d="m 55.864304,180.87612 q -0.576193,0 -0.798401,0.13177 -0.222209,0.13178 -0.222209,0.44959 0,0.25321 0.165365,0.40308 0.167948,0.14727 0.454752,0.14727 0.395325,0 0.633036,-0.27905 0.240296,-0.28164 0.240296,-0.74672 v -0.10594 z m 0.948262,-0.19637 v 1.65106 h -0.475423 v -0.43925 q -0.162781,0.26355 -0.40566,0.39016 -0.242879,0.12402 -0.594279,0.12402 -0.444417,0 -0.707967,-0.24805 -0.260966,-0.25063 -0.260966,-0.66921 0,-0.48834 0.325561,-0.73638 0.328146,-0.24805 0.976685,-0.24805 h 0.666626 v -0.0465 q 0,-0.32815 -0.217041,-0.50643 -0.214457,-0.18087 -0.604614,-0.18087 -0.248047,0 -0.483175,0.0594 -0.235128,0.0594 -0.452169,0.17828 v -0.43924 q 0.260966,-0.10077 0.506429,-0.14987 0.245463,-0.0517 0.478007,-0.0517 0.627869,0 0.937927,0.32556 0.310059,0.32556 0.310059,0.98702 z"
         style=""
         id="path902" />
      <path
         d="m 59.468734,179.88135 q -0.0801,-0.0465 -0.1757,-0.0672 -0.09302,-0.0233 -0.206705,-0.0233 -0.403076,0 -0.620117,0.26355 -0.214458,0.26097 -0.214458,0.7519 v 1.52445 h -0.478007 v -2.89388 h 0.478007 v 0.44959 q 0.149862,-0.26355 0.390157,-0.39016 0.240296,-0.12919 0.583944,-0.12919 0.04909,0 0.108521,0.008 0.05943,0.005 0.131775,0.0181 z"
         style=""
         id="path904" />
      <path
         d="m 59.967412,179.43693 h 0.475423 v 2.89388 h -0.475423 z m 0,-1.12655 h 0.475423 v 0.60203 h -0.475423 z"
         style=""
         id="path906" />
      <path
         d="m 62.752771,180.87612 q -0.576192,0 -0.798401,0.13177 -0.222208,0.13178 -0.222208,0.44959 0,0.25321 0.165364,0.40308 0.167949,0.14727 0.454753,0.14727 0.395325,0 0.633036,-0.27905 0.240296,-0.28164 0.240296,-0.74672 v -0.10594 z m 0.948263,-0.19637 v 1.65106 h -0.475423 v -0.43925 q -0.162781,0.26355 -0.40566,0.39016 -0.24288,0.12402 -0.594279,0.12402 -0.444418,0 -0.707967,-0.24805 -0.260966,-0.25063 -0.260966,-0.66921 0,-0.48834 0.325561,-0.73638 0.328146,-0.24805 0.976685,-0.24805 h 0.666626 v -0.0465 q 0,-0.32815 -0.217041,-0.50643 -0.214458,-0.18087 -0.604615,-0.18087 -0.248046,0 -0.483174,0.0594 -0.235128,0.0594 -0.452169,0.17828 v -0.43924 q 0.260966,-0.10077 0.506429,-0.14987 0.245463,-0.0517 0.478007,-0.0517 0.627869,0 0.937927,0.32556 0.310059,0.32556 0.310059,0.98702 z"
         style=""
         id="path908" />
      <path
         d="m 66.584579,179.87618 v -1.5658 h 0.475424 v 4.02043 h -0.475424 v -0.43408 q -0.149861,0.25838 -0.379821,0.38499 -0.227377,0.12402 -0.547771,0.12402 -0.524515,0 -0.855244,-0.41858 -0.328146,-0.41858 -0.328146,-1.10071 0,-0.68212 0.328146,-1.1007 0.330729,-0.41858 0.855244,-0.41858 0.320394,0 0.547771,0.1266 0.22996,0.12403 0.379821,0.38241 z m -1.620056,1.01027 q 0,0.52452 0.214457,0.82424 0.217041,0.29714 0.594279,0.29714 0.377238,0 0.594279,-0.29714 0.217041,-0.29972 0.217041,-0.82424 0,-0.52451 -0.217041,-0.82165 -0.217041,-0.29972 -0.594279,-0.29972 -0.377238,0 -0.594279,0.29972 -0.214457,0.29714 -0.214457,0.82165 z"
         style=""
         id="path910" />
      <path
         d="m 69.160648,179.77024 q -0.382405,0 -0.604614,0.29973 -0.222209,0.29714 -0.222209,0.81648 0,0.51935 0.219625,0.81908 0.222209,0.29714 0.607198,0.29714 0.379822,0 0.602031,-0.29973 0.222208,-0.29972 0.222208,-0.81649 0,-0.51418 -0.222208,-0.8139 -0.222209,-0.30231 -0.602031,-0.30231 z m 0,-0.40307 q 0.620117,0 0.974101,0.40307 0.353984,0.40308 0.353984,1.11621 0,0.71056 -0.353984,1.11622 -0.353984,0.40307 -0.974101,0.40307 -0.622701,0 -0.976684,-0.40307 -0.3514,-0.40566 -0.3514,-1.11622 0,-0.71313 0.3514,-1.11621 0.353983,-0.40307 0.976684,-0.40307 z"
         style=""
         id="path912" />
      <path
         d="m 72.9537,179.88135 q -0.0801,-0.0465 -0.1757,-0.0672 -0.09302,-0.0233 -0.206706,-0.0233 -0.403076,0 -0.620117,0.26355 -0.214457,0.26097 -0.214457,0.7519 v 1.52445 h -0.478007 v -2.89388 h 0.478007 v 0.44959 q 0.149861,-0.26355 0.390157,-0.39016 0.240295,-0.12919 0.583943,-0.12919 0.04909,0 0.108521,0.008 0.05943,0.005 0.131775,0.0181 z"
         style=""
         id="path914" />
      <path
         d="m 76.38243,180.19399 q -0.351399,0 -0.558105,0.2403 -0.204122,0.24029 -0.204122,0.65887 0,0.416 0.204122,0.65887 0.206706,0.2403 0.558105,0.2403 0.3514,0 0.555522,-0.2403 0.206706,-0.24287 0.206706,-0.65887 0,-0.41858 -0.206706,-0.65887 -0.204122,-0.2403 -0.555522,-0.2403 z m 1.036113,-1.63556 v 0.47542 q -0.196371,-0.093 -0.397909,-0.14211 -0.198954,-0.0491 -0.395324,-0.0491 -0.516765,0 -0.79065,0.34882 -0.271301,0.34881 -0.310058,1.0542 0.152445,-0.2248 0.382405,-0.34365 0.22996,-0.12144 0.506429,-0.12144 0.58136,0 0.917257,0.35398 0.33848,0.3514 0.33848,0.9586 0,0.59428 -0.351399,0.95343 -0.3514,0.35915 -0.935344,0.35915 -0.669209,0 -1.023193,-0.5116 -0.353984,-0.51418 -0.353984,-1.48828 0,-0.91467 0.434082,-1.45727 0.434082,-0.54519 1.165304,-0.54519 0.19637,0 0.395325,0.0388 0.201538,0.0388 0.418579,0.11627 z"
         style=""
         id="path916" />
    </g>
    <g
       aria-label="Variador 7"
       style="font-style:normal;font-variant:normal;font-weight:normal;font-stretch:normal;font-size:5.29166651px;line-height:1.25;font-family:sans-serif;-inkscape-font-specification:'sans-serif, Normal';font-variant-ligatures:normal;font-variant-caps:normal;font-variant-numeric:normal;font-feature-settings:normal;text-align:start;letter-spacing:0px;word-spacing:0px;writing-mode:lr-tb;text-anchor:start;fill:#000000;fill-opacity:1;stroke:none;stroke-width:0.26458332"
       id="text892-5">
      <path
         d="m 52.355474,193.76294 -1.472778,-3.85765 h 0.545186 l 1.222147,3.24787 1.224732,-3.24787 h 0.542602 l -1.470194,3.85765 z"
         style=""
         id="path881" />
      <path
         d="m 55.864304,192.30825 q -0.576193,0 -0.798401,0.13177 -0.222209,0.13178 -0.222209,0.44959 0,0.25321 0.165365,0.40307 0.167948,0.14728 0.454752,0.14728 0.395325,0 0.633036,-0.27905 0.240296,-0.28164 0.240296,-0.74673 v -0.10593 z m 0.948262,-0.19637 v 1.65106 h -0.475423 v -0.43925 q -0.162781,0.26355 -0.40566,0.39016 -0.242879,0.12402 -0.594279,0.12402 -0.444417,0 -0.707967,-0.24805 -0.260966,-0.25063 -0.260966,-0.66921 0,-0.48834 0.325561,-0.73639 0.328146,-0.24804 0.976685,-0.24804 h 0.666626 v -0.0465 q 0,-0.32815 -0.217041,-0.50643 -0.214457,-0.18087 -0.604614,-0.18087 -0.248047,0 -0.483175,0.0594 -0.235128,0.0594 -0.452169,0.17828 v -0.43925 q 0.260966,-0.10076 0.506429,-0.14986 0.245463,-0.0517 0.478007,-0.0517 0.627869,0 0.937927,0.32556 0.310059,0.32556 0.310059,0.98702 z"
         style=""
         id="path883" />
      <path
         d="m 59.468734,191.31348 q -0.0801,-0.0465 -0.1757,-0.0672 -0.09302,-0.0233 -0.206705,-0.0233 -0.403076,0 -0.620117,0.26355 -0.214458,0.26097 -0.214458,0.75189 v 1.52446 h -0.478007 v -2.89388 h 0.478007 v 0.44958 q 0.149862,-0.26355 0.390157,-0.39015 0.240296,-0.12919 0.583944,-0.12919 0.04909,0 0.108521,0.008 0.05943,0.005 0.131775,0.0181 z"
         style=""
         id="path885" />
      <path
         d="m 59.967412,190.86906 h 0.475423 v 2.89388 h -0.475423 z m 0,-1.12655 h 0.475423 v 0.60203 h -0.475423 z"
         style=""
         id="path887" />
      <path
         d="m 62.752771,192.30825 q -0.576192,0 -0.798401,0.13177 -0.222208,0.13178 -0.222208,0.44959 0,0.25321 0.165364,0.40307 0.167949,0.14728 0.454753,0.14728 0.395325,0 0.633036,-0.27905 0.240296,-0.28164 0.240296,-0.74673 v -0.10593 z m 0.948263,-0.19637 v 1.65106 h -0.475423 v -0.43925 q -0.162781,0.26355 -0.40566,0.39016 -0.24288,0.12402 -0.594279,0.12402 -0.444418,0 -0.707967,-0.24805 -0.260966,-0.25063 -0.260966,-0.66921 0,-0.48834 0.325561,-0.73639 0.328146,-0.24804 0.976685,-0.24804 h 0.666626 v -0.0465 q 0,-0.32815 -0.217041,-0.50643 -0.214458,-0.18087 -0.604615,-0.18087 -0.248046,0 -0.483174,0.0594 -0.235128,0.0594 -0.452169,0.17828 v -0.43925 q 0.260966,-0.10076 0.506429,-0.14986 0.245463,-0.0517 0.478007,-0.0517 0.627869,0 0.937927,0.32556 0.310059,0.32556 0.310059,0.98702 z"
         style=""
         id="path889" />
      <path
         d="m 66.584579,191.30831 v -1.5658 h 0.475424 v 4.02043 h -0.475424 v -0.43408 q -0.149861,0.25838 -0.379821,0.38499 -0.227377,0.12402 -0.547771,0.12402 -0.524515,0 -0.855244,-0.41858 -0.328146,-0.41858 -0.328146,-1.10071 0,-0.68213 0.328146,-1.1007 0.330729,-0.41858 0.855244,-0.41858 0.320394,0 0.547771,0.1266 0.22996,0.12403 0.379821,0.38241 z m -1.620056,1.01027 q 0,0.52452 0.214457,0.82424 0.217041,0.29714 0.594279,0.29714 0.377238,0 0.594279,-0.29714 0.217041,-0.29972 0.217041,-0.82424 0,-0.52451 -0.217041,-0.82165 -0.217041,-0.29973 -0.594279,-0.29973 -0.377238,0 -0.594279,0.29973 -0.214457,0.29714 -0.214457,0.82165 z"
         style=""
         id="path891" />
      <path
         d="m 69.160648,191.20237 q -0.382405,0 -0.604614,0.29973 -0.222209,0.29714 -0.222209,0.81648 0,0.51935 0.219625,0.81907 0.222209,0.29714 0.607198,0.29714 0.379822,0 0.602031,-0.29972 0.222208,-0.29972 0.222208,-0.81649 0,-0.51418 -0.222208,-0.8139 -0.222209,-0.30231 -0.602031,-0.30231 z m 0,-0.40307 q 0.620117,0 0.974101,0.40307 0.353984,0.40308 0.353984,1.11621 0,0.71055 -0.353984,1.11621 -0.353984,0.40308 -0.974101,0.40308 -0.622701,0 -0.976684,-0.40308 -0.3514,-0.40566 -0.3514,-1.11621 0,-0.71313 0.3514,-1.11621 0.353983,-0.40307 0.976684,-0.40307 z"
         style=""
         id="path893" />
      <path
         d="m 72.9537,191.31348 q -0.0801,-0.0465 -0.1757,-0.0672 -0.09302,-0.0233 -0.206706,-0.0233 -0.403076,0 -0.620117,0.26355 -0.214457,0.26097 -0.214457,0.75189 v 1.52446 h -0.478007 v -2.89388 h 0.478007 v 0.44958 q 0.149861,-0.26355 0.390157,-0.39015 0.240295,-0.12919 0.583943,-0.12919 0.04909,0 0.108521,0.008 0.05943,0.005 0.131775,0.0181 z"
         style=""
         id="path895" />
      <path
         d="m 75.069849,189.90529 h 2.480469 v 0.22221 l -1.400432,3.63544 H 75.6047 l 1.317749,-3.4184 h -1.8526 z"
         style=""
         id="path897" />
    </g>
    <g
       aria-label="Variador 8"
       style="font-style:normal;font-variant:normal;font-weight:normal;font-stretch:normal;font-size:5.29166651px;line-height:1.25;font-family:sans-serif;-inkscape-font-specification:'sans-serif, Normal';font-variant-ligatures:normal;font-variant-caps:normal;font-variant-numeric:normal;font-feature-settings:normal;text-align:start;letter-spacing:0px;word-spacing:0px;writing-mode:lr-tb;text-anchor:start;fill:#000000;fill-opacity:1;stroke:none;stroke-width:0.26458332"
       id="text892-6">
      <path
         d="m 52.355474,205.19505 -1.472778,-3.85764 h 0.545186 l 1.222147,3.24786 1.224732,-3.24786 h 0.542602 l -1.470194,3.85764 z"
         style=""
         id="path862" />
      <path
         d="m 55.864304,203.74036 q -0.576193,0 -0.798401,0.13178 -0.222209,0.13177 -0.222209,0.44958 0,0.25322 0.165365,0.40308 0.167948,0.14728 0.454752,0.14728 0.395325,0 0.633036,-0.27906 0.240296,-0.28163 0.240296,-0.74672 v -0.10594 z m 0.948262,-0.19637 v 1.65106 h -0.475423 v -0.43925 q -0.162781,0.26355 -0.40566,0.39016 -0.242879,0.12402 -0.594279,0.12402 -0.444417,0 -0.707967,-0.24804 -0.260966,-0.25063 -0.260966,-0.66921 0,-0.48834 0.325561,-0.73639 0.328146,-0.24805 0.976685,-0.24805 h 0.666626 v -0.0465 q 0,-0.32814 -0.217041,-0.50643 -0.214457,-0.18086 -0.604614,-0.18086 -0.248047,0 -0.483175,0.0594 -0.235128,0.0594 -0.452169,0.17829 v -0.43925 q 0.260966,-0.10077 0.506429,-0.14986 0.245463,-0.0517 0.478007,-0.0517 0.627869,0 0.937927,0.32556 0.310059,0.32556 0.310059,0.98702 z"
         style=""
         id="path864" />
      <path
         d="m 59.468734,202.74559 q -0.0801,-0.0465 -0.1757,-0.0672 -0.09302,-0.0233 -0.206705,-0.0233 -0.403076,0 -0.620117,0.26355 -0.214458,0.26096 -0.214458,0.75189 v 1.52445 h -0.478007 v -2.89388 h 0.478007 v 0.44959 q 0.149862,-0.26355 0.390157,-0.39016 0.240296,-0.12919 0.583944,-0.12919 0.04909,0 0.108521,0.008 0.05943,0.005 0.131775,0.0181 z"
         style=""
         id="path866" />
      <path
         d="m 59.967412,202.30117 h 0.475423 v 2.89388 h -0.475423 z m 0,-1.12654 h 0.475423 v 0.60203 h -0.475423 z"
         style=""
         id="path868" />
      <path
         d="m 62.752771,203.74036 q -0.576192,0 -0.798401,0.13178 -0.222208,0.13177 -0.222208,0.44958 0,0.25322 0.165364,0.40308 0.167949,0.14728 0.454753,0.14728 0.395325,0 0.633036,-0.27906 0.240296,-0.28163 0.240296,-0.74672 v -0.10594 z m 0.948263,-0.19637 v 1.65106 h -0.475423 v -0.43925 q -0.162781,0.26355 -0.40566,0.39016 -0.24288,0.12402 -0.594279,0.12402 -0.444418,0 -0.707967,-0.24804 -0.260966,-0.25063 -0.260966,-0.66921 0,-0.48834 0.325561,-0.73639 0.328146,-0.24805 0.976685,-0.24805 h 0.666626 v -0.0465 q 0,-0.32814 -0.217041,-0.50643 -0.214458,-0.18086 -0.604615,-0.18086 -0.248046,0 -0.483174,0.0594 -0.235128,0.0594 -0.452169,0.17829 v -0.43925 q 0.260966,-0.10077 0.506429,-0.14986 0.245463,-0.0517 0.478007,-0.0517 0.627869,0 0.937927,0.32556 0.310059,0.32556 0.310059,0.98702 z"
         style=""
         id="path870" />
      <path
         d="m 66.584579,202.74042 v -1.56579 h 0.475424 v 4.02042 h -0.475424 v -0.43408 q -0.149861,0.25838 -0.379821,0.38499 -0.227377,0.12402 -0.547771,0.12402 -0.524515,0 -0.855244,-0.41858 -0.328146,-0.41857 -0.328146,-1.1007 0,-0.68213 0.328146,-1.10071 0.330729,-0.41858 0.855244,-0.41858 0.320394,0 0.547771,0.12661 0.22996,0.12402 0.379821,0.3824 z m -1.620056,1.01028 q 0,0.52451 0.214457,0.82424 0.217041,0.29714 0.594279,0.29714 0.377238,0 0.594279,-0.29714 0.217041,-0.29973 0.217041,-0.82424 0,-0.52452 -0.217041,-0.82166 -0.217041,-0.29972 -0.594279,-0.29972 -0.377238,0 -0.594279,0.29972 -0.214457,0.29714 -0.214457,0.82166 z"
         style=""
         id="path872" />
      <path
         d="m 69.160648,202.63449 q -0.382405,0 -0.604614,0.29972 -0.222209,0.29714 -0.222209,0.81649 0,0.51934 0.219625,0.81907 0.222209,0.29714 0.607198,0.29714 0.379822,0 0.602031,-0.29973 0.222208,-0.29972 0.222208,-0.81648 0,-0.51418 -0.222208,-0.81391 -0.222209,-0.3023 -0.602031,-0.3023 z m 0,-0.40308 q 0.620117,0 0.974101,0.40308 0.353984,0.40307 0.353984,1.11621 0,0.71055 -0.353984,1.11621 -0.353984,0.40307 -0.974101,0.40307 -0.622701,0 -0.976684,-0.40307 -0.3514,-0.40566 -0.3514,-1.11621 0,-0.71314 0.3514,-1.11621 0.353983,-0.40308 0.976684,-0.40308 z"
         style=""
         id="path874" />
      <path
         d="m 72.9537,202.74559 q -0.0801,-0.0465 -0.1757,-0.0672 -0.09302,-0.0233 -0.206706,-0.0233 -0.403076,0 -0.620117,0.26355 -0.214457,0.26096 -0.214457,0.75189 v 1.52445 h -0.478007 v -2.89388 h 0.478007 v 0.44959 q 0.149861,-0.26355 0.390157,-0.39016 0.240295,-0.12919 0.583943,-0.12919 0.04909,0 0.108521,0.008 0.05943,0.005 0.131775,0.0181 z"
         style=""
         id="path876" />
      <path
         d="m 76.317835,203.36312 q -0.37207,0 -0.586528,0.19896 -0.211873,0.19895 -0.211873,0.54777 0,0.34881 0.211873,0.54777 0.214458,0.19895 0.586528,0.19895 0.37207,0 0.586527,-0.19895 0.214457,-0.20154 0.214457,-0.54777 0,-0.34882 -0.214457,-0.54777 -0.211873,-0.19896 -0.586527,-0.19896 z m -0.521932,-0.22221 q -0.335897,-0.0827 -0.524516,-0.31264 -0.186035,-0.22996 -0.186035,-0.56069 0,-0.4625 0.328145,-0.73122 0.330729,-0.26872 0.904338,-0.26872 0.576192,0 0.904337,0.26872 0.328146,0.26872 0.328146,0.73122 0,0.33073 -0.188619,0.56069 -0.186035,0.22996 -0.519348,0.31264 0.377238,0.0879 0.586527,0.34365 0.211873,0.2558 0.211873,0.62529 0,0.56069 -0.343648,0.86041 -0.341064,0.29972 -0.979268,0.29972 -0.638204,0 -0.981852,-0.29972 -0.341065,-0.29972 -0.341065,-0.86041 0,-0.36949 0.211874,-0.62529 0.211873,-0.2558 0.589111,-0.34365 z M 75.6047,202.31668 q 0,0.29972 0.186035,0.46767 0.188619,0.16795 0.5271,0.16795 0.335897,0 0.524516,-0.16795 0.191202,-0.16795 0.191202,-0.46767 0,-0.29973 -0.191202,-0.46768 -0.188619,-0.16794 -0.524516,-0.16794 -0.338481,0 -0.5271,0.16794 -0.186035,0.16795 -0.186035,0.46768 z"
         style=""
         id="path878" />
    </g>
    <circle
       style="fill:#a7ac93;fill-opacity:1;stroke:#001000;stroke-width:0.2;stroke-linecap:butt;stroke-miterlimit:4;stroke-dasharray:none;stroke-dashoffset:0;stroke-opacity:1"
       id="path837-7"
       cx="86.249535"
       cy="123.57325"
       r="3.4962797"
       datafield="Com2|Periferia-15-O_3"
       dataanimtype="fill"
       dataanimvalues="#a7ac93;#55d400" />
    <circle
       style="fill:#a7ac93;fill-opacity:1;stroke:#001000;stroke-width:0.2;stroke-linecap:butt;stroke-miterlimit:4;stroke-dasharray:none;stroke-dashoffset:0;stroke-opacity:1"
       id="path837-8-8"
       cx="86.249535"
       cy="134.92604"
       r="3.4962797"
       datafield="Com2|Periferia-15-O_2"
       dataanimtype="fill"
       dataanimvalues="#a7ac93;#55d400" />
    <circle
       style="fill:#a7ac93;fill-opacity:1;stroke:#001000;stroke-width:0.2;stroke-linecap:butt;stroke-miterlimit:4;stroke-dasharray:none;stroke-dashoffset:0;stroke-opacity:1"
       id="path837-5-5"
       cx="86.249535"
       cy="157.63162"
       r="3.4962797"
       datafield="Com2|Periferia-15-O_5"
       dataanimtype="fill"
       dataanimvalues="#a7ac93;#55d400" />
    <circle
       style="fill:#a7ac93;fill-opacity:1;stroke:#001000;stroke-width:0.2;stroke-linecap:butt;stroke-miterlimit:4;stroke-dasharray:none;stroke-dashoffset:0;stroke-opacity:1"
       id="path837-0-7"
       cx="86.249535"
       cy="146.27884"
       r="3.4962797"
       datafield="Com2|Periferia-15-O_4"
       dataanimtype="fill"
       dataanimvalues="#a7ac93;#55d400" />
    <circle
       style="fill:#a7ac93;fill-opacity:1;stroke:#001000;stroke-width:0.2;stroke-linecap:butt;stroke-miterlimit:4;stroke-dasharray:none;stroke-dashoffset:0;stroke-opacity:1"
       id="path837-9-4"
       cx="86.249535"
       cy="168.98442"
       r="3.4962797"
       datafield="Com2|Periferia-15-O_0"
       dataanimtype="fill"
       dataanimvalues="#a7ac93;#55d400" />
    <circle
       style="fill:#a7ac93;fill-opacity:1;stroke:#001000;stroke-width:0.2;stroke-linecap:butt;stroke-miterlimit:4;stroke-dasharray:none;stroke-dashoffset:0;stroke-opacity:1"
       id="path837-6-1"
       cx="86.249535"
       cy="191.69"
       r="3.4962797"
       datafield=""
       dataanimtype="fill"
       dataanimvalues="#a7ac93;#55d400" />
    <circle
       style="fill:#a7ac93;fill-opacity:1;stroke:#001000;stroke-width:0.2;stroke-linecap:butt;stroke-miterlimit:4;stroke-dasharray:none;stroke-dashoffset:0;stroke-opacity:1"
       id="path837-3-8"
       cx="86.249535"
       cy="180.3372"
       r="3.4962797"
       datafield=""
       dataanimtype="fill"
       dataanimvalues="#a7ac93;#55d400" />
    <circle
       style="fill:#a7ac93;fill-opacity:1;stroke:#001000;stroke-width:0.2;stroke-linecap:butt;stroke-miterlimit:4;stroke-dasharray:none;stroke-dashoffset:0;stroke-opacity:1"
       id="path837-85-5"
       cx="86.249535"
       cy="203.04279"
       r="3.4962797"
       datafield=""
       dataanimtype="fill"
       dataanimvalues="#a7ac93;#55d400" />
    <g
       aria-label="Z4 Pistn 1"
       style="font-style:normal;font-variant:normal;font-weight:normal;font-stretch:normal;font-size:5.29166651px;line-height:1.25;font-family:sans-serif;-inkscape-font-specification:'sans-serif, Normal';font-variant-ligatures:normal;font-variant-caps:normal;font-variant-numeric:normal;font-feature-settings:normal;text-align:start;letter-spacing:0px;word-spacing:0px;writing-mode:lr-tb;text-anchor:start;fill:#000000;fill-opacity:1;stroke:none;stroke-width:0.26458332"
       id="text892-9">
      <path
         d="m 92.277402,121.17083 h 3.030823 v 0.39791 l -2.439128,3.02048 h 2.498556 v 0.43925 h -3.149679 v -0.39791 l 2.439128,-3.02048 h -2.3797 z"
         style=""
         id="path1147" />
      <path
         d="m 97.605242,121.62558 -1.317749,2.05931 h 1.317749 z M 97.4683,121.17083 h 0.65629 v 2.51406 h 0.550354 v 0.43408 H 98.12459 v 0.9095 h -0.519348 v -0.9095 h -1.741496 v -0.50385 z"
         style=""
         id="path1149" />
      <path
         d="m 101.69543,121.59974 v 1.44953 h 0.65629 q 0.36432,0 0.56328,-0.18862 0.19895,-0.18862 0.19895,-0.53744 0,-0.34623 -0.19895,-0.53485 -0.19896,-0.18862 -0.56328,-0.18862 z m -0.52193,-0.42891 h 1.17822 q 0.64854,0 0.97927,0.29455 0.33331,0.29197 0.33331,0.85783 0,0.57103 -0.33331,0.863 -0.33073,0.29197 -0.97927,0.29197 h -0.65629 v 1.55029 h -0.52193 z"
         style=""
         id="path1151" />
      <path
         d="m 104.22758,122.13459 h 0.47542 v 2.89388 h -0.47542 z m 0,-1.12654 h 0.47542 v 0.60203 h -0.47542 z"
         style=""
         id="path1153" />
      <path
         d="m 107.54262,122.21986 v 0.44958 q -0.20154,-0.10335 -0.41858,-0.15503 -0.21704,-0.0517 -0.44958,-0.0517 -0.35399,0 -0.53227,0.10852 -0.1757,0.10852 -0.1757,0.32556 0,0.16536 0.12661,0.26097 0.1266,0.093 0.50901,0.17828 l 0.16278,0.0362 q 0.50643,0.10852 0.7183,0.30748 0.21446,0.19637 0.21446,0.55035 0,0.40308 -0.32039,0.63821 -0.31781,0.23512 -0.87592,0.23512 -0.23254,0 -0.48576,-0.0465 -0.25063,-0.0439 -0.52968,-0.13435 v -0.49093 q 0.26355,0.13694 0.51935,0.20671 0.25579,0.0672 0.50643,0.0672 0.33589,0 0.51676,-0.11369 0.18087,-0.11627 0.18087,-0.32556 0,-0.19379 -0.13178,-0.29714 -0.12919,-0.10336 -0.57102,-0.19896 l -0.16537,-0.0388 q -0.44183,-0.093 -0.6382,-0.28422 -0.19637,-0.19378 -0.19637,-0.52968 0,-0.40824 0.28939,-0.63045 0.28938,-0.22221 0.82165,-0.22221 0.26355,0 0.4961,0.0388 0.23254,0.0388 0.42891,0.11627 z"
         style=""
         id="path1155" />
      <path
         d="m 108.92496,121.31294 v 0.82165 h 0.97927 v 0.36949 h -0.97927 v 1.57096 q 0,0.35399 0.0956,0.45476 0.0982,0.10076 0.39532,0.10076 h 0.48834 v 0.39791 h -0.48834 q -0.55035,0 -0.75964,-0.20412 -0.20929,-0.2067 -0.20929,-0.74931 v -1.57096 h -0.34882 v -0.36949 h 0.34882 v -0.82165 z"
         style=""
         id="path1157" />
      <path
         d="m 111.6509,122.46791 q -0.38241,0 -0.60462,0.29972 -0.22221,0.29714 -0.22221,0.81649 0,0.51934 0.21963,0.81907 0.22221,0.29714 0.6072,0.29714 0.37982,0 0.60203,-0.29973 0.22221,-0.29972 0.22221,-0.81648 0,-0.51418 -0.22221,-0.81391 -0.22221,-0.3023 -0.60203,-0.3023 z m 0,-0.40308 q 0.62011,0 0.9741,0.40308 0.35398,0.40307 0.35398,1.11621 0,0.71055 -0.35398,1.11621 -0.35399,0.40307 -0.9741,0.40307 -0.6227,0 -0.97669,-0.40307 -0.3514,-0.40566 -0.3514,-1.11621 0,-0.71314 0.3514,-1.11621 0.35399,-0.40308 0.97669,-0.40308 z m 0.35915,-1.26866 h 0.51418 l -0.84233,0.97152 h -0.39532 z"
         style=""
         id="path1159" />
      <path
         d="m 116.17258,123.28181 v 1.74666 h -0.47542 v -1.73116 q 0,-0.41083 -0.1602,-0.61495 -0.16019,-0.20412 -0.48059,-0.20412 -0.38499,0 -0.6072,0.24546 -0.2222,0.24547 -0.2222,0.66921 v 1.63556 h -0.47801 v -2.89388 h 0.47801 v 0.44959 q 0.17053,-0.26097 0.40049,-0.39016 0.23254,-0.12919 0.53485,-0.12919 0.49868,0 0.75447,0.31006 0.2558,0.30747 0.2558,0.90692 z"
         style=""
         id="path1161" />
      <path
         d="m 118.96053,124.58922 h 0.85266 v -2.94297 l -0.92759,0.18604 v -0.47543 l 0.92242,-0.18603 h 0.52193 v 3.41839 h 0.85266 v 0.43925 h -2.22208 z"
         style=""
         id="path1163" />
    </g>
    <g
       aria-label="Z4 Pistn 2"
       style="font-style:normal;font-variant:normal;font-weight:normal;font-stretch:normal;font-size:5.29166651px;line-height:1.25;font-family:sans-serif;-inkscape-font-specification:'sans-serif, Normal';font-variant-ligatures:normal;font-variant-caps:normal;font-variant-numeric:normal;font-feature-settings:normal;text-align:start;letter-spacing:0px;word-spacing:0px;writing-mode:lr-tb;text-anchor:start;fill:#000000;fill-opacity:1;stroke:none;stroke-width:0.26458332"
       id="text892-1-5">
      <path
         d="m 92.277402,132.60296 h 3.030823 v 0.3979 l -2.439128,3.02049 h 2.498556 v 0.43925 h -3.149679 v -0.39791 l 2.439128,-3.02048 h -2.3797 z"
         style=""
         id="path1128" />
      <path
         d="m 97.605242,133.05771 -1.317749,2.0593 h 1.317749 z M 97.4683,132.60296 h 0.65629 v 2.51405 h 0.550354 v 0.43409 H 98.12459 v 0.9095 h -0.519348 v -0.9095 h -1.741496 v -0.50385 z"
         style=""
         id="path1130" />
      <path
         d="m 101.69543,133.03187 v 1.44952 h 0.65629 q 0.36432,0 0.56328,-0.18861 0.19895,-0.18862 0.19895,-0.53744 0,-0.34623 -0.19895,-0.53485 -0.19896,-0.18862 -0.56328,-0.18862 z m -0.52193,-0.42891 h 1.17822 q 0.64854,0 0.97927,0.29455 0.33331,0.29197 0.33331,0.85783 0,0.57103 -0.33331,0.863 -0.33073,0.29197 -0.97927,0.29197 h -0.65629 v 1.55029 h -0.52193 z"
         style=""
         id="path1132" />
      <path
         d="m 104.22758,133.56672 h 0.47542 v 2.89388 h -0.47542 z m 0,-1.12654 h 0.47542 v 0.60203 h -0.47542 z"
         style=""
         id="path1134" />
      <path
         d="m 107.54262,133.65199 v 0.44958 q -0.20154,-0.10335 -0.41858,-0.15503 -0.21704,-0.0517 -0.44958,-0.0517 -0.35399,0 -0.53227,0.10852 -0.1757,0.10852 -0.1757,0.32556 0,0.16536 0.12661,0.26097 0.1266,0.093 0.50901,0.17828 l 0.16278,0.0362 q 0.50643,0.10852 0.7183,0.30748 0.21446,0.19637 0.21446,0.55035 0,0.40308 -0.32039,0.6382 -0.31781,0.23513 -0.87592,0.23513 -0.23254,0 -0.48576,-0.0465 -0.25063,-0.0439 -0.52968,-0.13435 v -0.49093 q 0.26355,0.13694 0.51935,0.2067 0.25579,0.0672 0.50643,0.0672 0.33589,0 0.51676,-0.11368 0.18087,-0.11628 0.18087,-0.32557 0,-0.19378 -0.13178,-0.29714 -0.12919,-0.10335 -0.57102,-0.19895 l -0.16537,-0.0388 q -0.44183,-0.093 -0.6382,-0.28422 -0.19637,-0.19378 -0.19637,-0.52968 0,-0.40824 0.28939,-0.63045 0.28938,-0.22221 0.82165,-0.22221 0.26355,0 0.4961,0.0388 0.23254,0.0387 0.42891,0.11627 z"
         style=""
         id="path1136" />
      <path
         d="m 108.92496,132.74507 v 0.82165 h 0.97927 v 0.36949 h -0.97927 v 1.57096 q 0,0.35399 0.0956,0.45475 0.0982,0.10077 0.39532,0.10077 h 0.48834 v 0.39791 h -0.48834 q -0.55035,0 -0.75964,-0.20412 -0.20929,-0.20671 -0.20929,-0.74931 v -1.57096 h -0.34882 v -0.36949 h 0.34882 v -0.82165 z"
         style=""
         id="path1138" />
      <path
         d="m 111.6509,133.90003 q -0.38241,0 -0.60462,0.29973 -0.22221,0.29714 -0.22221,0.81649 0,0.51934 0.21963,0.81907 0.22221,0.29714 0.6072,0.29714 0.37982,0 0.60203,-0.29973 0.22221,-0.29972 0.22221,-0.81648 0,-0.51418 -0.22221,-0.81391 -0.22221,-0.30231 -0.60203,-0.30231 z m 0,-0.40307 q 0.62011,0 0.9741,0.40307 0.35398,0.40308 0.35398,1.11622 0,0.71055 -0.35398,1.11621 -0.35399,0.40307 -0.9741,0.40307 -0.6227,0 -0.97669,-0.40307 -0.3514,-0.40566 -0.3514,-1.11621 0,-0.71314 0.3514,-1.11622 0.35399,-0.40307 0.97669,-0.40307 z m 0.35915,-1.26866 h 0.51418 l -0.84233,0.97152 h -0.39532 z"
         style=""
         id="path1140" />
      <path
         d="m 116.17258,134.71394 v 1.74666 h -0.47542 v -1.73116 q 0,-0.41083 -0.1602,-0.61495 -0.16019,-0.20412 -0.48059,-0.20412 -0.38499,0 -0.6072,0.24546 -0.2222,0.24547 -0.2222,0.66921 v 1.63556 h -0.47801 v -2.89388 h 0.47801 v 0.44959 q 0.17053,-0.26097 0.40049,-0.39016 0.23254,-0.12919 0.53485,-0.12919 0.49868,0 0.75447,0.31006 0.2558,0.30747 0.2558,0.90692 z"
         style=""
         id="path1142" />
      <path
         d="m 119.31968,136.02135 h 1.82159 v 0.43925 h -2.44946 v -0.43925 q 0.29714,-0.30747 0.80873,-0.82424 0.51419,-0.51935 0.64596,-0.66921 0.25063,-0.28163 0.34882,-0.47542 0.10077,-0.19637 0.10077,-0.38499 0,-0.30747 -0.21705,-0.50126 -0.21445,-0.19379 -0.56069,-0.19379 -0.24546,0 -0.51934,0.0853 -0.2713,0.0853 -0.58136,0.25838 v -0.5271 q 0.31522,-0.12661 0.58911,-0.1912 0.27388,-0.0646 0.50126,-0.0646 0.59945,0 0.95601,0.29973 0.35657,0.29972 0.35657,0.80098 0,0.23771 -0.0904,0.45217 -0.0879,0.21187 -0.32298,0.50126 -0.0646,0.0749 -0.41083,0.43408 -0.34623,0.35657 -0.97668,0.99994 z"
         style=""
         id="path1144" />
    </g>
    <g
       aria-label="Z4 Pistn 3"
       style="font-style:normal;font-variant:normal;font-weight:normal;font-stretch:normal;font-size:5.29166651px;line-height:1.25;font-family:sans-serif;-inkscape-font-specification:'sans-serif, Normal';font-variant-ligatures:normal;font-variant-caps:normal;font-variant-numeric:normal;font-feature-settings:normal;text-align:start;letter-spacing:0px;word-spacing:0px;writing-mode:lr-tb;text-anchor:start;fill:#000000;fill-opacity:1;stroke:none;stroke-width:0.26458332"
       id="text892-3-8">
      <path
         d="m 92.277402,144.03509 h 3.030823 v 0.3979 l -2.439128,3.02049 h 2.498556 v 0.43925 h -3.149679 v -0.39791 l 2.439128,-3.02049 h -2.3797 z"
         style=""
         id="path1109" />
      <path
         d="m 97.605242,144.48984 -1.317749,2.0593 h 1.317749 z M 97.4683,144.03509 h 0.65629 v 2.51405 h 0.550354 v 0.43409 H 98.12459 v 0.9095 h -0.519348 v -0.9095 h -1.741496 v -0.50385 z"
         style=""
         id="path1111" />
      <path
         d="m 101.69543,144.464 v 1.44952 h 0.65629 q 0.36432,0 0.56328,-0.18862 0.19895,-0.18861 0.19895,-0.53743 0,-0.34623 -0.19895,-0.53485 -0.19896,-0.18862 -0.56328,-0.18862 z m -0.52193,-0.42891 h 1.17822 q 0.64854,0 0.97927,0.29455 0.33331,0.29197 0.33331,0.85783 0,0.57102 -0.33331,0.863 -0.33073,0.29197 -0.97927,0.29197 h -0.65629 v 1.55029 h -0.52193 z"
         style=""
         id="path1113" />
      <path
         d="m 104.22758,144.99885 h 0.47542 v 2.89388 h -0.47542 z m 0,-1.12655 h 0.47542 v 0.60203 h -0.47542 z"
         style=""
         id="path1115" />
      <path
         d="m 107.54262,145.08412 v 0.44958 q -0.20154,-0.10335 -0.41858,-0.15503 -0.21704,-0.0517 -0.44958,-0.0517 -0.35399,0 -0.53227,0.10852 -0.1757,0.10852 -0.1757,0.32556 0,0.16536 0.12661,0.26096 0.1266,0.093 0.50901,0.17829 l 0.16278,0.0362 q 0.50643,0.10852 0.7183,0.30748 0.21446,0.19637 0.21446,0.55035 0,0.40308 -0.32039,0.6382 -0.31781,0.23513 -0.87592,0.23513 -0.23254,0 -0.48576,-0.0465 -0.25063,-0.0439 -0.52968,-0.13436 v -0.49092 q 0.26355,0.13694 0.51935,0.2067 0.25579,0.0672 0.50643,0.0672 0.33589,0 0.51676,-0.11369 0.18087,-0.11627 0.18087,-0.32556 0,-0.19378 -0.13178,-0.29714 -0.12919,-0.10335 -0.57102,-0.19895 l -0.16537,-0.0388 q -0.44183,-0.093 -0.6382,-0.28422 -0.19637,-0.19378 -0.19637,-0.52968 0,-0.40825 0.28939,-0.63045 0.28938,-0.22221 0.82165,-0.22221 0.26355,0 0.4961,0.0387 0.23254,0.0388 0.42891,0.11628 z"
         style=""
         id="path1117" />
      <path
         d="m 108.92496,144.1772 v 0.82165 h 0.97927 v 0.36949 h -0.97927 v 1.57096 q 0,0.35398 0.0956,0.45475 0.0982,0.10077 0.39532,0.10077 h 0.48834 v 0.39791 h -0.48834 q -0.55035,0 -0.75964,-0.20412 -0.20929,-0.20671 -0.20929,-0.74931 v -1.57096 h -0.34882 v -0.36949 h 0.34882 v -0.82165 z"
         style=""
         id="path1119" />
      <path
         d="m 111.6509,145.33216 q -0.38241,0 -0.60462,0.29973 -0.22221,0.29714 -0.22221,0.81648 0,0.51935 0.21963,0.81908 0.22221,0.29714 0.6072,0.29714 0.37982,0 0.60203,-0.29973 0.22221,-0.29972 0.22221,-0.81649 0,-0.51418 -0.22221,-0.8139 -0.22221,-0.30231 -0.60203,-0.30231 z m 0,-0.40307 q 0.62011,0 0.9741,0.40307 0.35398,0.40308 0.35398,1.11621 0,0.71056 -0.35398,1.11622 -0.35399,0.40307 -0.9741,0.40307 -0.6227,0 -0.97669,-0.40307 -0.3514,-0.40566 -0.3514,-1.11622 0,-0.71313 0.3514,-1.11621 0.35399,-0.40307 0.97669,-0.40307 z m 0.35915,-1.26866 h 0.51418 l -0.84233,0.97152 h -0.39532 z"
         style=""
         id="path1121" />
      <path
         d="m 116.17258,146.14607 v 1.74666 h -0.47542 v -1.73116 q 0,-0.41083 -0.1602,-0.61495 -0.16019,-0.20412 -0.48059,-0.20412 -0.38499,0 -0.6072,0.24546 -0.2222,0.24546 -0.2222,0.66921 v 1.63556 h -0.47801 v -2.89388 h 0.47801 v 0.44959 q 0.17053,-0.26097 0.40049,-0.39016 0.23254,-0.12919 0.53485,-0.12919 0.49868,0 0.75447,0.31006 0.2558,0.30747 0.2558,0.90692 z"
         style=""
         id="path1123" />
      <path
         d="m 120.45139,145.81275 q 0.37466,0.0801 0.58394,0.33332 0.21188,0.25321 0.21188,0.62528 0,0.57103 -0.39274,0.88367 -0.39274,0.31264 -1.11621,0.31264 -0.24288,0 -0.50126,-0.0491 -0.2558,-0.0465 -0.52969,-0.14211 v -0.50385 q 0.21704,0.12661 0.47542,0.19121 0.25839,0.0646 0.54002,0.0646 0.49093,0 0.74673,-0.19378 0.25838,-0.19379 0.25838,-0.56328 0,-0.34106 -0.2403,-0.53227 -0.23771,-0.19378 -0.66404,-0.19378 h -0.44958 v -0.42892 h 0.47025 q 0.38499,0 0.58911,-0.15244 0.20413,-0.15503 0.20413,-0.44442 0,-0.29714 -0.21188,-0.45475 -0.20929,-0.1602 -0.60203,-0.1602 -0.21445,0 -0.45992,0.0465 -0.24546,0.0465 -0.54002,0.14469 v -0.46508 q 0.29714,-0.0827 0.55553,-0.12403 0.26096,-0.0413 0.49092,-0.0413 0.59428,0 0.94051,0.2713 0.34623,0.26872 0.34623,0.72864 0,0.32039 -0.18345,0.5426 -0.18345,0.21963 -0.52193,0.30489 z"
         style=""
         id="path1125" />
    </g>
    <g
       aria-label="Z5 Pistn 1"
       style="font-style:normal;font-variant:normal;font-weight:normal;font-stretch:normal;font-size:5.29166651px;line-height:1.25;font-family:sans-serif;-inkscape-font-specification:'sans-serif, Normal';font-variant-ligatures:normal;font-variant-caps:normal;font-variant-numeric:normal;font-feature-settings:normal;text-align:start;letter-spacing:0px;word-spacing:0px;writing-mode:lr-tb;text-anchor:start;fill:#000000;fill-opacity:1;stroke:none;stroke-width:0.26458332"
       id="text892-4-3">
      <path
         d="m 92.277402,166.89933 h 3.030823 v 0.39791 l -2.439128,3.02048 h 2.498556 v 0.43925 h -3.149679 v -0.39791 l 2.439128,-3.02048 h -2.3797 z"
         style=""
         id="path1090" />
      <path
         d="m 96.176389,166.89933 h 2.04897 v 0.43925 h -1.570963 v 0.94568 q 0.113688,-0.0388 0.227376,-0.0568 0.113688,-0.0207 0.227376,-0.0207 0.645956,0 1.023194,0.35398 0.377238,0.35399 0.377238,0.9586 0,0.6227 -0.387574,0.96894 -0.387573,0.34364 -1.092956,0.34364 -0.242879,0 -0.496094,-0.0413 -0.25063,-0.0413 -0.519348,-0.12402 v -0.52452 q 0.232544,0.12661 0.480591,0.18862 0.248047,0.062 0.524516,0.062 0.447001,0 0.707967,-0.23512 0.260966,-0.23513 0.260966,-0.63821 0,-0.40307 -0.260966,-0.6382 -0.260966,-0.23513 -0.707967,-0.23513 -0.20929,0 -0.418579,0.0465 -0.206706,0.0465 -0.423747,0.14469 z"
         style=""
         id="path1092" />
      <path
         d="m 101.69543,167.32824 v 1.44953 h 0.65629 q 0.36432,0 0.56328,-0.18862 0.19895,-0.18862 0.19895,-0.53744 0,-0.34623 -0.19895,-0.53485 -0.19896,-0.18862 -0.56328,-0.18862 z m -0.52193,-0.42891 h 1.17822 q 0.64854,0 0.97927,0.29455 0.33331,0.29198 0.33331,0.85783 0,0.57103 -0.33331,0.863 -0.33073,0.29197 -0.97927,0.29197 h -0.65629 v 1.55029 h -0.52193 z"
         style=""
         id="path1094" />
      <path
         d="m 104.22758,167.86309 h 0.47542 v 2.89388 h -0.47542 z m 0,-1.12654 h 0.47542 v 0.60203 h -0.47542 z"
         style=""
         id="path1096" />
      <path
         d="m 107.54262,167.94836 v 0.44958 q -0.20154,-0.10335 -0.41858,-0.15503 -0.21704,-0.0517 -0.44958,-0.0517 -0.35399,0 -0.53227,0.10852 -0.1757,0.10852 -0.1757,0.32556 0,0.16537 0.12661,0.26097 0.1266,0.093 0.50901,0.17828 l 0.16278,0.0362 q 0.50643,0.10852 0.7183,0.30748 0.21446,0.19637 0.21446,0.55035 0,0.40308 -0.32039,0.63821 -0.31781,0.23512 -0.87592,0.23512 -0.23254,0 -0.48576,-0.0465 -0.25063,-0.0439 -0.52968,-0.13436 v -0.49093 q 0.26355,0.13694 0.51935,0.20671 0.25579,0.0672 0.50643,0.0672 0.33589,0 0.51676,-0.11369 0.18087,-0.11627 0.18087,-0.32556 0,-0.19379 -0.13178,-0.29714 -0.12919,-0.10336 -0.57102,-0.19896 l -0.16537,-0.0388 q -0.44183,-0.093 -0.6382,-0.28422 -0.19637,-0.19378 -0.19637,-0.52968 0,-0.40824 0.28939,-0.63045 0.28938,-0.22221 0.82165,-0.22221 0.26355,0 0.4961,0.0388 0.23254,0.0387 0.42891,0.11627 z"
         style=""
         id="path1098" />
      <path
         d="m 108.92496,167.04144 v 0.82165 h 0.97927 v 0.36949 h -0.97927 v 1.57096 q 0,0.35399 0.0956,0.45476 0.0982,0.10076 0.39532,0.10076 h 0.48834 v 0.39791 h -0.48834 q -0.55035,0 -0.75964,-0.20412 -0.20929,-0.2067 -0.20929,-0.74931 v -1.57096 h -0.34882 v -0.36949 h 0.34882 v -0.82165 z"
         style=""
         id="path1100" />
      <path
         d="m 111.6509,168.19641 q -0.38241,0 -0.60462,0.29972 -0.22221,0.29714 -0.22221,0.81649 0,0.51935 0.21963,0.81907 0.22221,0.29714 0.6072,0.29714 0.37982,0 0.60203,-0.29973 0.22221,-0.29972 0.22221,-0.81648 0,-0.51418 -0.22221,-0.81391 -0.22221,-0.3023 -0.60203,-0.3023 z m 0,-0.40308 q 0.62011,0 0.9741,0.40308 0.35398,0.40307 0.35398,1.11621 0,0.71055 -0.35398,1.11621 -0.35399,0.40307 -0.9741,0.40307 -0.6227,0 -0.97669,-0.40307 -0.3514,-0.40566 -0.3514,-1.11621 0,-0.71314 0.3514,-1.11621 0.35399,-0.40308 0.97669,-0.40308 z m 0.35915,-1.26866 h 0.51418 l -0.84233,0.97152 h -0.39532 z"
         style=""
         id="path1102" />
      <path
         d="m 116.17258,169.01031 v 1.74666 h -0.47542 v -1.73116 q 0,-0.41082 -0.1602,-0.61495 -0.16019,-0.20412 -0.48059,-0.20412 -0.38499,0 -0.6072,0.24546 -0.2222,0.24547 -0.2222,0.66921 v 1.63556 h -0.47801 v -2.89388 h 0.47801 v 0.44959 q 0.17053,-0.26097 0.40049,-0.39016 0.23254,-0.12919 0.53485,-0.12919 0.49868,0 0.75447,0.31006 0.2558,0.30747 0.2558,0.90692 z"
         style=""
         id="path1104" />
      <path
         d="m 118.96053,170.31772 h 0.85266 v -2.94297 l -0.92759,0.18604 v -0.47543 l 0.92242,-0.18603 h 0.52193 v 3.41839 h 0.85266 v 0.43925 h -2.22208 z"
         style=""
         id="path1106" />
    </g>
    <g
       aria-label="Z4 Pistn 4"
       style="font-style:normal;font-variant:normal;font-weight:normal;font-stretch:normal;font-size:5.29166651px;line-height:1.25;font-family:sans-serif;-inkscape-font-specification:'sans-serif, Normal';font-variant-ligatures:normal;font-variant-caps:normal;font-variant-numeric:normal;font-feature-settings:normal;text-align:start;letter-spacing:0px;word-spacing:0px;writing-mode:lr-tb;text-anchor:start;fill:#000000;fill-opacity:1;stroke:none;stroke-width:0.26458332"
       id="text892-47-8">
      <path
         d="m 92.277402,155.4672 h 3.030823 v 0.39791 l -2.439128,3.02048 h 2.498556 v 0.43925 h -3.149679 v -0.3979 l 2.439128,-3.02049 h -2.3797 z"
         style=""
         id="path1071" />
      <path
         d="m 97.605242,155.92195 -1.317749,2.05931 h 1.317749 z M 97.4683,155.4672 h 0.65629 v 2.51406 h 0.550354 v 0.43408 H 98.12459 v 0.9095 h -0.519348 v -0.9095 h -1.741496 v -0.50385 z"
         style=""
         id="path1073" />
      <path
         d="m 101.69543,155.89611 v 1.44953 h 0.65629 q 0.36432,0 0.56328,-0.18862 0.19895,-0.18862 0.19895,-0.53744 0,-0.34623 -0.19895,-0.53485 -0.19896,-0.18862 -0.56328,-0.18862 z m -0.52193,-0.42891 h 1.17822 q 0.64854,0 0.97927,0.29455 0.33331,0.29198 0.33331,0.85783 0,0.57103 -0.33331,0.863 -0.33073,0.29197 -0.97927,0.29197 h -0.65629 v 1.55029 h -0.52193 z"
         style=""
         id="path1075" />
      <path
         d="m 104.22758,156.43096 h 0.47542 v 2.89388 h -0.47542 z m 0,-1.12654 h 0.47542 v 0.60203 h -0.47542 z"
         style=""
         id="path1077" />
      <path
         d="m 107.54262,156.51623 v 0.44959 q -0.20154,-0.10336 -0.41858,-0.15503 -0.21704,-0.0517 -0.44958,-0.0517 -0.35399,0 -0.53227,0.10852 -0.1757,0.10852 -0.1757,0.32556 0,0.16537 0.12661,0.26097 0.1266,0.093 0.50901,0.17828 l 0.16278,0.0362 q 0.50643,0.10853 0.7183,0.30748 0.21446,0.19637 0.21446,0.55035 0,0.40308 -0.32039,0.63821 -0.31781,0.23513 -0.87592,0.23513 -0.23254,0 -0.48576,-0.0465 -0.25063,-0.0439 -0.52968,-0.13436 v -0.49093 q 0.26355,0.13694 0.51935,0.20671 0.25579,0.0672 0.50643,0.0672 0.33589,0 0.51676,-0.11369 0.18087,-0.11627 0.18087,-0.32556 0,-0.19379 -0.13178,-0.29714 -0.12919,-0.10336 -0.57102,-0.19896 l -0.16537,-0.0387 q -0.44183,-0.093 -0.6382,-0.28422 -0.19637,-0.19379 -0.19637,-0.52969 0,-0.40824 0.28939,-0.63045 0.28938,-0.22221 0.82165,-0.22221 0.26355,0 0.4961,0.0388 0.23254,0.0388 0.42891,0.11627 z"
         style=""
         id="path1079" />
      <path
         d="m 108.92496,155.60931 v 0.82165 h 0.97927 v 0.36949 h -0.97927 v 1.57096 q 0,0.35399 0.0956,0.45476 0.0982,0.10077 0.39532,0.10077 h 0.48834 v 0.3979 h -0.48834 q -0.55035,0 -0.75964,-0.20412 -0.20929,-0.2067 -0.20929,-0.74931 v -1.57096 h -0.34882 v -0.36949 h 0.34882 v -0.82165 z"
         style=""
         id="path1081" />
      <path
         d="m 111.6509,156.76428 q -0.38241,0 -0.60462,0.29972 -0.22221,0.29714 -0.22221,0.81649 0,0.51935 0.21963,0.81907 0.22221,0.29714 0.6072,0.29714 0.37982,0 0.60203,-0.29972 0.22221,-0.29973 0.22221,-0.81649 0,-0.51418 -0.22221,-0.81391 -0.22221,-0.3023 -0.60203,-0.3023 z m 0,-0.40308 q 0.62011,0 0.9741,0.40308 0.35398,0.40307 0.35398,1.11621 0,0.71055 -0.35398,1.11621 -0.35399,0.40308 -0.9741,0.40308 -0.6227,0 -0.97669,-0.40308 -0.3514,-0.40566 -0.3514,-1.11621 0,-0.71314 0.3514,-1.11621 0.35399,-0.40308 0.97669,-0.40308 z m 0.35915,-1.26866 h 0.51418 l -0.84233,0.97152 h -0.39532 z"
         style=""
         id="path1083" />
      <path
         d="m 116.17258,157.57818 v 1.74666 h -0.47542 v -1.73116 q 0,-0.41082 -0.1602,-0.61495 -0.16019,-0.20412 -0.48059,-0.20412 -0.38499,0 -0.6072,0.24547 -0.2222,0.24546 -0.2222,0.66921 v 1.63555 h -0.47801 v -2.89388 h 0.47801 v 0.44959 q 0.17053,-0.26097 0.40049,-0.39016 0.23254,-0.12919 0.53485,-0.12919 0.49868,0 0.75447,0.31006 0.2558,0.30747 0.2558,0.90692 z"
         style=""
         id="path1085" />
      <path
         d="m 120.30411,155.92195 -1.31775,2.05931 h 1.31775 z m -0.13694,-0.45475 h 0.65629 v 2.51406 h 0.55036 v 0.43408 h -0.55036 v 0.9095 h -0.51935 v -0.9095 h -1.74149 v -0.50385 z"
         style=""
         id="path1087" />
    </g>
    <g
       aria-label="Z5 Pistn 2"
       style="font-style:normal;font-variant:normal;font-weight:normal;font-stretch:normal;font-size:5.29166651px;line-height:1.25;font-family:sans-serif;-inkscape-font-specification:'sans-serif, Normal';font-variant-ligatures:normal;font-variant-caps:normal;font-variant-numeric:normal;font-feature-settings:normal;text-align:start;letter-spacing:0px;word-spacing:0px;writing-mode:lr-tb;text-anchor:start;fill:#000000;fill-opacity:1;stroke:none;stroke-width:0.26458332"
       id="text892-31-6">
      <path
         d="m 92.277402,178.33144 h 3.030823 v 0.39791 l -2.439128,3.02049 h 2.498556 v 0.43925 h -3.149679 v -0.39791 l 2.439128,-3.02049 h -2.3797 z"
         style=""
         id="path1052" />
      <path
         d="m 96.176389,178.33144 h 2.04897 v 0.43925 h -1.570963 v 0.94568 q 0.113688,-0.0388 0.227376,-0.0568 0.113688,-0.0207 0.227376,-0.0207 0.645956,0 1.023194,0.35398 0.377238,0.35398 0.377238,0.9586 0,0.6227 -0.387574,0.96893 -0.387573,0.34365 -1.092956,0.34365 -0.242879,0 -0.496094,-0.0413 -0.25063,-0.0413 -0.519348,-0.12403 v -0.52451 q 0.232544,0.1266 0.480591,0.18862 0.248047,0.062 0.524516,0.062 0.447001,0 0.707967,-0.23513 0.260966,-0.23513 0.260966,-0.6382 0,-0.40308 -0.260966,-0.63821 -0.260966,-0.23513 -0.707967,-0.23513 -0.20929,0 -0.418579,0.0465 -0.206706,0.0465 -0.423747,0.1447 z"
         style=""
         id="path1054" />
      <path
         d="m 101.69543,178.76036 v 1.44952 h 0.65629 q 0.36432,0 0.56328,-0.18862 0.19895,-0.18862 0.19895,-0.53743 0,-0.34624 -0.19895,-0.53486 -0.19896,-0.18861 -0.56328,-0.18861 z m -0.52193,-0.42892 h 1.17822 q 0.64854,0 0.97927,0.29456 0.33331,0.29197 0.33331,0.85783 0,0.57102 -0.33331,0.86299 -0.33073,0.29197 -0.97927,0.29197 h -0.65629 v 1.5503 h -0.52193 z"
         style=""
         id="path1056" />
      <path
         d="m 104.22758,179.29521 h 0.47542 v 2.89388 h -0.47542 z m 0,-1.12655 h 0.47542 v 0.60203 h -0.47542 z"
         style=""
         id="path1058" />
      <path
         d="m 107.54262,179.38047 v 0.44959 q -0.20154,-0.10336 -0.41858,-0.15503 -0.21704,-0.0517 -0.44958,-0.0517 -0.35399,0 -0.53227,0.10852 -0.1757,0.10852 -0.1757,0.32556 0,0.16537 0.12661,0.26097 0.1266,0.093 0.50901,0.17828 l 0.16278,0.0362 q 0.50643,0.10852 0.7183,0.30747 0.21446,0.19637 0.21446,0.55036 0,0.40307 -0.32039,0.6382 -0.31781,0.23513 -0.87592,0.23513 -0.23254,0 -0.48576,-0.0465 -0.25063,-0.0439 -0.52968,-0.13436 v -0.49093 q 0.26355,0.13695 0.51935,0.20671 0.25579,0.0672 0.50643,0.0672 0.33589,0 0.51676,-0.11369 0.18087,-0.11627 0.18087,-0.32556 0,-0.19379 -0.13178,-0.29714 -0.12919,-0.10335 -0.57102,-0.19895 l -0.16537,-0.0388 q -0.44183,-0.093 -0.6382,-0.28422 -0.19637,-0.19379 -0.19637,-0.52969 0,-0.40824 0.28939,-0.63045 0.28938,-0.22221 0.82165,-0.22221 0.26355,0 0.4961,0.0388 0.23254,0.0388 0.42891,0.11627 z"
         style=""
         id="path1060" />
      <path
         d="m 108.92496,178.47355 v 0.82166 h 0.97927 v 0.36948 h -0.97927 v 1.57097 q 0,0.35398 0.0956,0.45475 0.0982,0.10077 0.39532,0.10077 h 0.48834 v 0.39791 h -0.48834 q -0.55035,0 -0.75964,-0.20412 -0.20929,-0.20671 -0.20929,-0.74931 v -1.57097 h -0.34882 v -0.36948 h 0.34882 v -0.82166 z"
         style=""
         id="path1062" />
      <path
         d="m 111.6509,179.62852 q -0.38241,0 -0.60462,0.29972 -0.22221,0.29714 -0.22221,0.81649 0,0.51935 0.21963,0.81907 0.22221,0.29714 0.6072,0.29714 0.37982,0 0.60203,-0.29972 0.22221,-0.29973 0.22221,-0.81649 0,-0.51418 -0.22221,-0.8139 -0.22221,-0.30231 -0.60203,-0.30231 z m 0,-0.40308 q 0.62011,0 0.9741,0.40308 0.35398,0.40308 0.35398,1.11621 0,0.71055 -0.35398,1.11621 -0.35399,0.40308 -0.9741,0.40308 -0.6227,0 -0.97669,-0.40308 -0.3514,-0.40566 -0.3514,-1.11621 0,-0.71313 0.3514,-1.11621 0.35399,-0.40308 0.97669,-0.40308 z m 0.35915,-1.26865 h 0.51418 l -0.84233,0.97151 h -0.39532 z"
         style=""
         id="path1064" />
      <path
         d="m 116.17258,180.44242 v 1.74667 h -0.47542 v -1.73116 q 0,-0.41083 -0.1602,-0.61495 -0.16019,-0.20412 -0.48059,-0.20412 -0.38499,0 -0.6072,0.24546 -0.2222,0.24546 -0.2222,0.66921 v 1.63556 h -0.47801 v -2.89388 h 0.47801 v 0.44958 q 0.17053,-0.26096 0.40049,-0.39016 0.23254,-0.12919 0.53485,-0.12919 0.49868,0 0.75447,0.31006 0.2558,0.30748 0.2558,0.90692 z"
         style=""
         id="path1066" />
      <path
         d="m 119.31968,181.74984 h 1.82159 v 0.43925 h -2.44946 v -0.43925 q 0.29714,-0.30748 0.80873,-0.82424 0.51419,-0.51935 0.64596,-0.66921 0.25063,-0.28164 0.34882,-0.47542 0.10077,-0.19638 0.10077,-0.38499 0,-0.30748 -0.21705,-0.50127 -0.21445,-0.19378 -0.56069,-0.19378 -0.24546,0 -0.51934,0.0853 -0.2713,0.0853 -0.58136,0.25839 v -0.5271 q 0.31522,-0.12661 0.58911,-0.19121 0.27388,-0.0646 0.50126,-0.0646 0.59945,0 0.95601,0.29972 0.35657,0.29972 0.35657,0.80099 0,0.23771 -0.0904,0.45216 -0.0879,0.21188 -0.32298,0.50127 -0.0646,0.0749 -0.41083,0.43408 -0.34623,0.35657 -0.97668,0.99994 z"
         style=""
         id="path1068" />
    </g>
    <g
       aria-label="Z6 Pistn 1"
       style="font-style:normal;font-variant:normal;font-weight:normal;font-stretch:normal;font-size:5.29166651px;line-height:1.25;font-family:sans-serif;-inkscape-font-specification:'sans-serif, Normal';font-variant-ligatures:normal;font-variant-caps:normal;font-variant-numeric:normal;font-feature-settings:normal;text-align:start;letter-spacing:0px;word-spacing:0px;writing-mode:lr-tb;text-anchor:start;fill:#000000;fill-opacity:1;stroke:none;stroke-width:0.26458332"
       id="text892-5-3">
      <path
         d="m 92.277402,189.76357 h 3.030823 v 0.39791 l -2.439128,3.02049 h 2.498556 v 0.43925 h -3.149679 v -0.39791 l 2.439128,-3.02049 h -2.3797 z"
         style=""
         id="path1033" />
      <path
         d="m 97.352028,191.4844 q -0.3514,0 -0.558106,0.24029 -0.204122,0.2403 -0.204122,0.65888 0,0.41599 0.204122,0.65887 0.206706,0.2403 0.558106,0.2403 0.351399,0 0.555521,-0.2403 0.206706,-0.24288 0.206706,-0.65887 0,-0.41858 -0.206706,-0.65888 -0.204122,-0.24029 -0.555521,-0.24029 z m 1.036112,-1.63556 v 0.47542 q -0.19637,-0.093 -0.397908,-0.14211 -0.198955,-0.0491 -0.395325,-0.0491 -0.516764,0 -0.790649,0.34881 -0.271302,0.34882 -0.310059,1.0542 0.152445,-0.22479 0.382406,-0.34365 0.22996,-0.12144 0.506429,-0.12144 0.581359,0 0.917256,0.35399 0.338481,0.3514 0.338481,0.9586 0,0.59427 -0.3514,0.95343 -0.3514,0.35915 -0.935343,0.35915 -0.66921,0 -1.023194,-0.5116 -0.353983,-0.51418 -0.353983,-1.48828 0,-0.91467 0.434082,-1.45728 0.434082,-0.54518 1.165303,-0.54518 0.196371,0 0.395325,0.0387 0.201538,0.0388 0.418579,0.11628 z"
         style=""
         id="path1035" />
      <path
         d="m 101.69543,190.19248 v 1.44953 h 0.65629 q 0.36432,0 0.56328,-0.18862 0.19895,-0.18862 0.19895,-0.53744 0,-0.34623 -0.19895,-0.53485 -0.19896,-0.18862 -0.56328,-0.18862 z m -0.52193,-0.42891 h 1.17822 q 0.64854,0 0.97927,0.29456 0.33331,0.29197 0.33331,0.85782 0,0.57103 -0.33331,0.863 -0.33073,0.29197 -0.97927,0.29197 h -0.65629 v 1.5503 h -0.52193 z"
         style=""
         id="path1037" />
      <path
         d="m 104.22758,190.72734 h 0.47542 v 2.89388 h -0.47542 z m 0,-1.12655 h 0.47542 v 0.60203 h -0.47542 z"
         style=""
         id="path1039" />
      <path
         d="m 107.54262,190.8126 v 0.44959 q -0.20154,-0.10336 -0.41858,-0.15503 -0.21704,-0.0517 -0.44958,-0.0517 -0.35399,0 -0.53227,0.10852 -0.1757,0.10852 -0.1757,0.32556 0,0.16537 0.12661,0.26097 0.1266,0.093 0.50901,0.17828 l 0.16278,0.0362 q 0.50643,0.10852 0.7183,0.30747 0.21446,0.19637 0.21446,0.55035 0,0.40308 -0.32039,0.63821 -0.31781,0.23513 -0.87592,0.23513 -0.23254,0 -0.48576,-0.0465 -0.25063,-0.0439 -0.52968,-0.13436 v -0.49093 q 0.26355,0.13695 0.51935,0.20671 0.25579,0.0672 0.50643,0.0672 0.33589,0 0.51676,-0.11369 0.18087,-0.11627 0.18087,-0.32556 0,-0.19379 -0.13178,-0.29714 -0.12919,-0.10335 -0.57102,-0.19896 l -0.16537,-0.0387 q -0.44183,-0.093 -0.6382,-0.28422 -0.19637,-0.19379 -0.19637,-0.52969 0,-0.40824 0.28939,-0.63045 0.28938,-0.22221 0.82165,-0.22221 0.26355,0 0.4961,0.0388 0.23254,0.0388 0.42891,0.11627 z"
         style=""
         id="path1041" />
      <path
         d="m 108.92496,189.90568 v 0.82166 h 0.97927 v 0.36948 h -0.97927 v 1.57097 q 0,0.35398 0.0956,0.45475 0.0982,0.10077 0.39532,0.10077 h 0.48834 v 0.39791 h -0.48834 q -0.55035,0 -0.75964,-0.20413 -0.20929,-0.2067 -0.20929,-0.7493 v -1.57097 h -0.34882 v -0.36948 h 0.34882 v -0.82166 z"
         style=""
         id="path1043" />
      <path
         d="m 111.6509,191.06065 q -0.38241,0 -0.60462,0.29972 -0.22221,0.29714 -0.22221,0.81649 0,0.51935 0.21963,0.81907 0.22221,0.29714 0.6072,0.29714 0.37982,0 0.60203,-0.29972 0.22221,-0.29973 0.22221,-0.81649 0,-0.51418 -0.22221,-0.8139 -0.22221,-0.30231 -0.60203,-0.30231 z m 0,-0.40308 q 0.62011,0 0.9741,0.40308 0.35398,0.40307 0.35398,1.11621 0,0.71055 -0.35398,1.11621 -0.35399,0.40308 -0.9741,0.40308 -0.6227,0 -0.97669,-0.40308 -0.3514,-0.40566 -0.3514,-1.11621 0,-0.71314 0.3514,-1.11621 0.35399,-0.40308 0.97669,-0.40308 z m 0.35915,-1.26865 h 0.51418 l -0.84233,0.97151 h -0.39532 z"
         style=""
         id="path1045" />
      <path
         d="m 116.17258,191.87455 v 1.74667 h -0.47542 v -1.73116 q 0,-0.41083 -0.1602,-0.61495 -0.16019,-0.20413 -0.48059,-0.20413 -0.38499,0 -0.6072,0.24547 -0.2222,0.24546 -0.2222,0.66921 v 1.63556 h -0.47801 v -2.89388 h 0.47801 v 0.44958 q 0.17053,-0.26097 0.40049,-0.39016 0.23254,-0.12919 0.53485,-0.12919 0.49868,0 0.75447,0.31006 0.2558,0.30748 0.2558,0.90692 z"
         style=""
         id="path1047" />
      <path
         d="m 118.96053,193.18197 h 0.85266 v -2.94298 l -0.92759,0.18604 v -0.47542 l 0.92242,-0.18604 h 0.52193 v 3.4184 h 0.85266 v 0.43925 h -2.22208 z"
         style=""
         id="path1049" />
    </g>
    <g
       aria-label="Z6 Pistn 2"
       style="font-style:normal;font-variant:normal;font-weight:normal;font-stretch:normal;font-size:5.29166651px;line-height:1.25;font-family:sans-serif;-inkscape-font-specification:'sans-serif, Normal';font-variant-ligatures:normal;font-variant-caps:normal;font-variant-numeric:normal;font-feature-settings:normal;text-align:start;letter-spacing:0px;word-spacing:0px;writing-mode:lr-tb;text-anchor:start;fill:#000000;fill-opacity:1;stroke:none;stroke-width:0.26458332"
       id="text892-6-3">
      <path
         d="m 92.277402,201.19568 h 3.030823 v 0.39791 l -2.439128,3.02049 h 2.498556 v 0.43925 h -3.149679 v -0.39791 l 2.439128,-3.02049 h -2.3797 z"
         style=""
         id="path1014" />
      <path
         d="m 97.352028,202.91651 q -0.3514,0 -0.558106,0.24029 -0.204122,0.2403 -0.204122,0.65888 0,0.41599 0.204122,0.65887 0.206706,0.2403 0.558106,0.2403 0.351399,0 0.555521,-0.2403 0.206706,-0.24288 0.206706,-0.65887 0,-0.41858 -0.206706,-0.65888 -0.204122,-0.24029 -0.555521,-0.24029 z m 1.036112,-1.63556 v 0.47542 q -0.19637,-0.093 -0.397908,-0.14211 -0.198955,-0.0491 -0.395325,-0.0491 -0.516764,0 -0.790649,0.34882 -0.271302,0.34881 -0.310059,1.0542 0.152445,-0.2248 0.382406,-0.34365 0.22996,-0.12144 0.506429,-0.12144 0.581359,0 0.917256,0.35398 0.338481,0.3514 0.338481,0.9586 0,0.59428 -0.3514,0.95343 -0.3514,0.35915 -0.935343,0.35915 -0.66921,0 -1.023194,-0.5116 -0.353983,-0.51418 -0.353983,-1.48828 0,-0.91467 0.434082,-1.45727 0.434082,-0.54519 1.165303,-0.54519 0.196371,0 0.395325,0.0388 0.201538,0.0388 0.418579,0.11627 z"
         style=""
         id="path1016" />
      <path
         d="m 101.69543,201.6246 v 1.44952 h 0.65629 q 0.36432,0 0.56328,-0.18862 0.19895,-0.18862 0.19895,-0.53743 0,-0.34623 -0.19895,-0.53485 -0.19896,-0.18862 -0.56328,-0.18862 z m -0.52193,-0.42892 h 1.17822 q 0.64854,0 0.97927,0.29456 0.33331,0.29197 0.33331,0.85783 0,0.57102 -0.33331,0.86299 -0.33073,0.29198 -0.97927,0.29198 h -0.65629 v 1.55029 h -0.52193 z"
         style=""
         id="path1018" />
      <path
         d="m 104.22758,202.15945 h 0.47542 v 2.89388 h -0.47542 z m 0,-1.12655 h 0.47542 v 0.60203 h -0.47542 z"
         style=""
         id="path1020" />
      <path
         d="m 107.54262,202.24472 v 0.44958 q -0.20154,-0.10335 -0.41858,-0.15503 -0.21704,-0.0517 -0.44958,-0.0517 -0.35399,0 -0.53227,0.10853 -0.1757,0.10852 -0.1757,0.32556 0,0.16536 0.12661,0.26096 0.1266,0.093 0.50901,0.17829 l 0.16278,0.0362 q 0.50643,0.10852 0.7183,0.30747 0.21446,0.19638 0.21446,0.55036 0,0.40307 -0.32039,0.6382 -0.31781,0.23513 -0.87592,0.23513 -0.23254,0 -0.48576,-0.0465 -0.25063,-0.0439 -0.52968,-0.13436 v -0.49092 q 0.26355,0.13694 0.51935,0.2067 0.25579,0.0672 0.50643,0.0672 0.33589,0 0.51676,-0.11369 0.18087,-0.11627 0.18087,-0.32556 0,-0.19378 -0.13178,-0.29714 -0.12919,-0.10335 -0.57102,-0.19895 l -0.16537,-0.0388 q -0.44183,-0.093 -0.6382,-0.28422 -0.19637,-0.19379 -0.19637,-0.52968 0,-0.40825 0.28939,-0.63046 0.28938,-0.2222 0.82165,-0.2222 0.26355,0 0.4961,0.0388 0.23254,0.0388 0.42891,0.11628 z"
         style=""
         id="path1022" />
      <path
         d="m 108.92496,201.33779 v 0.82166 h 0.97927 v 0.36949 h -0.97927 v 1.57096 q 0,0.35398 0.0956,0.45475 0.0982,0.10077 0.39532,0.10077 h 0.48834 v 0.39791 h -0.48834 q -0.55035,0 -0.75964,-0.20412 -0.20929,-0.20671 -0.20929,-0.74931 v -1.57096 h -0.34882 v -0.36949 h 0.34882 v -0.82166 z"
         style=""
         id="path1024" />
      <path
         d="m 111.6509,202.49276 q -0.38241,0 -0.60462,0.29973 -0.22221,0.29714 -0.22221,0.81648 0,0.51935 0.21963,0.81907 0.22221,0.29714 0.6072,0.29714 0.37982,0 0.60203,-0.29972 0.22221,-0.29972 0.22221,-0.81649 0,-0.51418 -0.22221,-0.8139 -0.22221,-0.30231 -0.60203,-0.30231 z m 0,-0.40307 q 0.62011,0 0.9741,0.40307 0.35398,0.40308 0.35398,1.11621 0,0.71055 -0.35398,1.11621 -0.35399,0.40308 -0.9741,0.40308 -0.6227,0 -0.97669,-0.40308 -0.3514,-0.40566 -0.3514,-1.11621 0,-0.71313 0.3514,-1.11621 0.35399,-0.40307 0.97669,-0.40307 z m 0.35915,-1.26866 h 0.51418 l -0.84233,0.97152 h -0.39532 z"
         style=""
         id="path1026" />
      <path
         d="m 116.17258,203.30667 v 1.74666 h -0.47542 v -1.73116 q 0,-0.41083 -0.1602,-0.61495 -0.16019,-0.20412 -0.48059,-0.20412 -0.38499,0 -0.6072,0.24546 -0.2222,0.24546 -0.2222,0.66921 v 1.63556 h -0.47801 v -2.89388 h 0.47801 v 0.44958 q 0.17053,-0.26096 0.40049,-0.39015 0.23254,-0.12919 0.53485,-0.12919 0.49868,0 0.75447,0.31005 0.2558,0.30748 0.2558,0.90693 z"
         style=""
         id="path1028" />
      <path
         d="m 119.31968,204.61408 h 1.82159 v 0.43925 h -2.44946 v -0.43925 q 0.29714,-0.30747 0.80873,-0.82424 0.51419,-0.51935 0.64596,-0.66921 0.25063,-0.28164 0.34882,-0.47542 0.10077,-0.19637 0.10077,-0.38499 0,-0.30748 -0.21705,-0.50126 -0.21445,-0.19379 -0.56069,-0.19379 -0.24546,0 -0.51934,0.0853 -0.2713,0.0853 -0.58136,0.25838 v -0.5271 q 0.31522,-0.12661 0.58911,-0.1912 0.27388,-0.0646 0.50126,-0.0646 0.59945,0 0.95601,0.29972 0.35657,0.29973 0.35657,0.80099 0,0.23771 -0.0904,0.45217 -0.0879,0.21187 -0.32298,0.50126 -0.0646,0.0749 -0.41083,0.43408 -0.34623,0.35657 -0.97668,0.99994 z"
         style=""
         id="path1030" />
    </g>
  </g>
</svg>
