<?xml version="1.0" encoding="UTF-8" standalone="no"?>
<!-- Created with Inkscape (http://www.inkscape.org/) -->

<svg
   xmlns:dc="http://purl.org/dc/elements/1.1/"
   xmlns:cc="http://creativecommons.org/ns#"
   xmlns:rdf="http://www.w3.org/1999/02/22-rdf-syntax-ns#"
   xmlns:svg="http://www.w3.org/2000/svg"
   xmlns="http://www.w3.org/2000/svg"
   xmlns:sodipodi="http://sodipodi.sourceforge.net/DTD/sodipodi-0.dtd"
   xmlns:inkscape="http://www.inkscape.org/namespaces/inkscape"
   width="202.14731mm"
   height="180.46173mm"
   viewBox="0 0 202.14731 180.46173"
   version="1.1"
   id="svg19"
   inkscape:version="0.92.3 (2405546, 2018-03-11)"
   sodipodi:docname="Zona2Zona3.svg">
  <defs
     id="defs13">
    <inkscape:path-effect
       effect="spiro"
       id="path-effect1136"
       is_visible="true" />
    <inkscape:path-effect
       effect="spiro"
       id="path-effect1132"
       is_visible="true" />
    <inkscape:path-effect
       effect="spiro"
       id="path-effect1128"
       is_visible="true" />
    <inkscape:path-effect
       effect="spiro"
       id="path-effect1124"
       is_visible="true" />
    <inkscape:path-effect
       effect="spiro"
       id="path-effect1120"
       is_visible="true" />
    <inkscape:perspective
       sodipodi:type="inkscape:persp3d"
       inkscape:vp_x="4.3301272 : 157.5 : 1"
       inkscape:vp_y="0 : 999.99999 : 0"
       inkscape:vp_z="187.85078 : 143.4557 : 1"
       inkscape:persp3d-origin="105 : 99 : 1"
       id="perspective43" />
  </defs>
  <sodipodi:namedview
     id="base"
     pagecolor="#ffffff"
     bordercolor="#666666"
     borderopacity="1.0"
     inkscape:pageopacity="0.0"
     inkscape:pageshadow="2"
     inkscape:zoom="0.83277121"
     inkscape:cx="405.44523"
     inkscape:cy="285.03767"
     inkscape:document-units="mm"
     inkscape:current-layer="layer2"
     showgrid="true"
     objecttolerance="5"
     gridtolerance="5"
     guidetolerance="5"
     inkscape:snap-tangential="true"
     inkscape:snap-perpendicular="true"
     inkscape:snap-grids="true"
     inkscape:window-width="1366"
     inkscape:window-height="721"
     inkscape:window-x="-4"
     inkscape:window-y="-4"
     inkscape:window-maximized="1"
     fit-margin-top="0"
     fit-margin-left="0"
     fit-margin-right="0"
     fit-margin-bottom="0"
     showguides="false"
     inkscape:measure-start="721.096,288.964"
     inkscape:measure-end="265,25">
    <inkscape:grid
       type="axonomgrid"
       id="grid25"
       units="mm"
       empspacing="5"
       originx="-47.367063"
       originy="-66.044999"
       enabled="false"
       visible="true"
       snapvisiblegridlinesonly="true" />
    <inkscape:grid
       type="xygrid"
       id="grid868" />
  </sodipodi:namedview>
  <metadata
     id="metadata16">
    <rdf:RDF>
      <cc:Work
         rdf:about="">
        <dc:format>image/svg+xml</dc:format>
        <dc:type
           rdf:resource="http://purl.org/dc/dcmitype/StillImage" />
        <dc:title />
      </cc:Work>
    </rdf:RDF>
  </metadata>
  <g
     inkscape:label="Capa 1"
     inkscape:groupmode="layer"
     id="layer1"
     transform="translate(-47.36706,-50.493285)">
    <path
       style="fill:#deaa87;fill-opacity:1;stroke:#000000;stroke-width:0.26458332px;stroke-linecap:butt;stroke-linejoin:miter;stroke-opacity:1"
       d="m 201.30243,128.05834 -0.19978,-19.95163 48.14706,27.59831 v 20.03566 z"
       id="path1114-7"
       inkscape:connector-curvature="0"
       sodipodi:nodetypes="ccccc" />
    <path
       transform="translate(66.803991,50.493286)"
       style="fill:#deaa87;fill-opacity:1;stroke:#000000;stroke-width:0.26458332px;stroke-linecap:butt;stroke-linejoin:miter;stroke-opacity:1"
       d="m 182.37489,105.37022 0.0709,-0.12283 -47.94727,-27.682337 -34.641012,20 z"
       id="path1112-7"
       inkscape:connector-curvature="0"
       sodipodi:nodetypes="ccccc" />
    <path
       style="fill:#deaa87;fill-opacity:1;stroke:#000000;stroke-width:0.26458332px;stroke-linecap:butt;stroke-linejoin:miter;stroke-opacity:1"
       d="m 118.99041,230.80221 130.18847,-74.9387 -82.51737,-7.80517 -58.40834,34.35343 z"
       id="path1112-7-5"
       inkscape:connector-curvature="0"
       sodipodi:nodetypes="ccccc" />
    <path
       transform="translate(66.803991,50.493286)"
       style="fill:#deaa87;fill-opacity:1;stroke:#000000;stroke-width:0.26458332px;stroke-linecap:butt;stroke-linejoin:miter;stroke-opacity:1"
       d="m 52.186419,180.30892 -10.73724,-48.39044 -25.980758,-12.91176 -34.641016,20 z"
       id="path1112-7-56"
       inkscape:connector-curvature="0"
       sodipodi:nodetypes="ccccc" />
    <path
       style="fill:#deaa87;fill-opacity:1;stroke:#000000;stroke-width:0.26458332px;stroke-linecap:butt;stroke-linejoin:miter;stroke-opacity:1"
       d="m 82.27241,169.50001 -0.509517,-17.91999 26.458337,13.22916 0.0319,17.60259 z"
       id="path1114-7-3"
       inkscape:connector-curvature="0"
       sodipodi:nodetypes="ccccc" />
  </g>
  <g
     inkscape:groupmode="layer"
     id="layer2"
     inkscape:label="Capa 2"
     transform="translate(19.436931,1.3290606e-6)">
    <ellipse
       transform="translate(-66.803992,-50.493287)"
       style="fill:#808080;fill-opacity:1;stroke:#000b00;stroke-width:0.1863904;stroke-linecap:butt;stroke-miterlimit:4;stroke-dasharray:none;stroke-dashoffset:0;stroke-opacity:1"
       id="path1003"
       cx="96.994339"
       cy="130.25507"
       rx="5.9599295"
       ry="5.9717407" />
    <path
       transform="translate(-66.803992,-50.493287)"
       style="fill:#ffffff;stroke:#000000;stroke-width:0.26458332px;stroke-linecap:butt;stroke-linejoin:miter;stroke-opacity:1"
       d="m 91.262783,130.26794 3.999995,-1.73204 1.732051,-4.00001 1.732051,4.00001 4.00003,1.73207 -4.000021,1.73202 -1.73205,4.00002 L 95.262794,132 Z"
       id="path995"
       inkscape:connector-curvature="0"
       dataanimtype="rotate"
       datafield="Com2|Z2_Bomba_activo"
       dataanim="Com2|Z2_Bomba_activo"
       dataanimvalues="1;-1" />
    <path
       transform="translate(-66.803992,-50.493287)"
       style="fill:#deaa87;fill-opacity:1;stroke:#000000;stroke-width:0.26458332px;stroke-linecap:butt;stroke-linejoin:miter;stroke-opacity:1"
       d="m 166.66151,148.05834 34.64101,-20 -99.59292,-57.500006 -34.641026,20 z"
       id="path1112"
       inkscape:connector-curvature="0" />
    <path
       transform="translate(-66.803992,-50.493287)"
       style="fill:none;stroke:#000000;stroke-width:1.06500006;stroke-linecap:butt;stroke-linejoin:miter;stroke-miterlimit:4;stroke-dasharray:6.39000028, 1.06500005;stroke-dashoffset:0;stroke-opacity:1"
       d="m 168.20369,119.5 v 20 l -86.602446,-50"
       id="path1027"
       inkscape:connector-curvature="0"
       dataanim="Com2|Z2_mot1_activo"
       datafield="Com2|Z2_mot1_activo"
       dataanimvalues="10;100"
       dataanimtype="offset" />
    <path
       style="fill:#deaa87;fill-opacity:1;stroke:#000000;stroke-width:0.26458332px;stroke-linecap:butt;stroke-linejoin:miter;stroke-opacity:1"
       d="m 101.7096,70.558334 5.3e-4,-19.835916 99.39252,57.384292 0.19978,19.95163 z"
       id="path1114"
       inkscape:connector-curvature="0"
       transform="translate(-66.803992,-50.493287)" />
    <path
       transform="translate(-66.803992,-50.493287)"
       style="fill:none;stroke:#000000;stroke-width:1.06500006;stroke-linecap:butt;stroke-linejoin:miter;stroke-miterlimit:4;stroke-dasharray:6.39000028, 1.06500005;stroke-dashoffset:0;stroke-opacity:1"
       d="m 189.75756,106.32498 v 20 L 103.15502,76.324995"
       id="path1027-9"
       inkscape:connector-curvature="0"
       dataanim="Com2|Z2_mot1_activo"
       dataanimtype="offset"
       datafield="Com2|Z2_mot1_activo"
       dataanimvalues="10;100" />
    <g
       id="g90"
       transform="translate(-29.611148,-87.156973)">
      <path
         inkscape:connector-curvature="0"
         id="path65"
         d="m 57.976539,143.52723 51.961531,-30 12.99038,7.5 -51.961528,30 z"
         style="fill:#b3b3b3;stroke:#000000;stroke-width:0.26458332px;stroke-linecap:butt;stroke-linejoin:miter;stroke-opacity:1" />
      <path
         inkscape:connector-curvature="0"
         id="path67"
         d="m 70.966922,151.02723 v 5 l 51.961528,-30 v -5 z"
         style="fill:#999999;stroke:#000000;stroke-width:0.26458332px;stroke-linecap:butt;stroke-linejoin:miter;stroke-opacity:1" />
      <path
         inkscape:connector-curvature="0"
         id="path69"
         d="m 57.976539,143.52723 v 5 l 12.990383,7.5 v -5 z"
         style="fill:#b3b3b3;stroke:#000000;stroke-width:0.26458332px;stroke-linecap:butt;stroke-linejoin:miter;stroke-opacity:1" />
      <path
         inkscape:connector-curvature="0"
         id="path71"
         d="m 62.306668,146.02723 47.631402,-27.5 8.66025,5 -47.631398,27.5 z"
         style="fill:#4d4d4d;stroke:#000000;stroke-width:0.26458332px;stroke-linecap:butt;stroke-linejoin:miter;stroke-opacity:1" />
      <path
         inkscape:connector-curvature="0"
         id="path83"
         d="m 109.93807,113.52723 v 5"
         style="fill:none;stroke:#000000;stroke-width:0.26458332px;stroke-linecap:butt;stroke-linejoin:miter;stroke-opacity:1" />
    </g>
    <path
       transform="translate(-66.803992,-50.493287)"
       style="fill:none;stroke:#000069;stroke-width:0.96499997;stroke-linecap:butt;stroke-linejoin:miter;stroke-miterlimit:4;stroke-dasharray:11.57999963, 11.57999963;stroke-dashoffset:9.64999962;stroke-opacity:1"
       d="m 146.35829,84.499999 c 0.42622,0.403134 0.74079,0.923123 0.90004,1.487761 0.15925,0.564638 0.16274,1.172366 0.01,1.738796 -0.15276,0.566429 -0.46134,1.089996 -0.8829,1.497998 -0.42156,0.408002 -0.95493,0.699313 -1.52605,0.833481 -0.61446,0.144351 -1.25909,0.107775 -1.8802,-0.0046 -0.62111,-0.112334 -1.226,-0.29868 -1.83763,-0.454576 -0.61164,-0.155896 -1.23722,-0.282145 -1.86829,-0.270275 -0.63108,0.01187 -1.27298,0.1705 -1.78441,0.540422 -0.53634,0.387942 -0.89477,0.982085 -1.11511,1.606271 -0.22034,0.624186 -0.31487,1.28441 -0.41583,1.9386 -0.10096,0.654191 -0.21129,1.313579 -0.46044,1.926834 -0.24915,0.613256 -0.65134,1.184459 -1.22142,1.520854 -0.35279,0.208173 -0.75835,0.319421 -1.16687,0.349477 -0.40853,0.03006 -0.82038,-0.01926 -1.21831,-0.116428 -0.79588,-0.194342 -1.53115,-0.575108 -2.27744,-0.913093 -0.74629,-0.337985 -1.53085,-0.640032 -2.34987,-0.659823 -0.40951,-0.0099 -0.82358,0.05286 -1.20144,0.211044 -0.37786,0.158178 -0.71833,0.414397 -0.95199,0.750847 -0.23355,0.33629 -0.35369,0.739157 -0.42244,1.142779 -0.0687,0.403621 -0.0896,0.813838 -0.14453,1.219572 -0.16103,1.18949 -0.61197,2.32088 -1.13393,3.40179 -0.49771,1.03069 -1.07645,2.04533 -1.90958,2.83013 -0.41657,0.3924 -0.89481,0.72329 -1.42242,0.94496 -0.52761,0.22167 -1.10558,0.33205 -1.67618,0.28815 -0.54985,-0.0423 -1.08001,-0.22506 -1.58315,-0.45082 -0.50315,-0.22575 -0.98549,-0.49549 -1.48683,-0.72524 -0.50133,-0.22974 -1.02781,-0.42072 -1.5765,-0.47611 -0.54868,-0.0554 -1.12452,0.0337 -1.59013,0.32925 -0.34969,0.22195 -0.61986,0.54621 -0.88795,0.86192 -0.26808,0.31572 -0.54735,0.63431 -0.90743,0.83898 -0.27359,0.15551 -0.58183,0.23811 -0.88822,0.30996 -0.30639,0.0719 -0.61699,0.1352 -0.90717,0.257 -0.42746,0.17942 -0.80068,0.48586 -1.05985,0.87024 -0.25917,0.38437 -0.40335,0.84525 -0.40942,1.3088 -0.006,0.46355 0.12597,0.92805 0.37499,1.31908 0.24901,0.39104 0.61407,0.70715 1.03668,0.89771"
       id="path1134"
       inkscape:connector-curvature="0"
       inkscape:path-effect="#path-effect1136"
       inkscape:original-d="m 146.35829,84.499999 c 1.71075,0.622827 0.40143,5.082948 -1.49892,5.558036 -2.33281,0.583203 -5.35815,-1.530577 -7.37053,-0.188989 -1.4831,0.988732 1.40612,6.068777 -3.2128,6.992559 -1.62141,0.324284 -8.53706,-1.00684 -9.16592,-0.377976 -0.263,0.262999 -0.42089,1.924122 -0.56697,2.362351 -0.36006,1.08018 -0.75407,2.26222 -1.13393,3.40179 -0.33776,1.0133 -3.98062,3.03568 -5.00818,4.06324 -0.9692,0.9692 -5.52361,-2.03591 -6.23661,-1.32292 -0.53426,0.53427 -1.09631,1.23485 -1.79538,1.7009 -0.42221,0.28147 -1.58779,0.15176 -1.79539,0.56696 -0.36148,0.72296 0.50559,4.28367 -0.0576,4.39583"
       dataanim="Com2|Z2_Bomba_activo"
       dataanimtype="offset"
       datafield="Com2|Z2_Bomba_activo"
       dataanimvalues="5;100" />
    <path
       transform="translate(-66.803992,-50.493287)"
       style="fill:none;stroke:#000000;stroke-width:1.06500006;stroke-linecap:butt;stroke-linejoin:miter;stroke-miterlimit:4;stroke-dasharray:6.39000028, 1.06500005;stroke-dashoffset:0;stroke-opacity:1"
       d="m 81.601243,89.5 v -20 l 86.602447,50"
       id="path1023"
       inkscape:connector-curvature="0"
       dataanim="Com2|Z2_mot1_activo"
       dataanimtype="offset"
       datafield="Com2|Z2_mot1_activo"
       dataanimvalues="10;100" />
    <path
       transform="translate(-66.803992,-50.493287)"
       style="fill:none;stroke:#000000;stroke-width:1.06500006;stroke-linecap:butt;stroke-linejoin:miter;stroke-miterlimit:4;stroke-dasharray:6.39000028, 1.06500005;stroke-dashoffset:0;stroke-opacity:1"
       d="M 103.15502,76.324988 V 56.32499 l 86.60254,49.99999"
       id="path1023-2"
       inkscape:connector-curvature="0"
       dataanim="Com2|Z2_mot1_activo"
       dataanimtype="offset"
       datafield="Com2|Z2_mot1_activo"
       dataanimvalues="10;100" />
    <g
       aria-label="Bomba Cortina"
       style="font-style:normal;font-variant:normal;font-weight:normal;font-stretch:normal;font-size:10.58333302px;line-height:1.25;font-family:sans-serif;-inkscape-font-specification:'sans-serif, Normal';font-variant-ligatures:normal;font-variant-caps:normal;font-variant-numeric:normal;font-feature-settings:normal;text-align:center;letter-spacing:0px;word-spacing:0px;writing-mode:lr-tb;text-anchor:middle;fill:#000000;fill-opacity:1;stroke:none;stroke-width:0.26458332"
       id="text31"
       transform="matrix(0.5657823,0,0,0.58823169,-22.20046,-20.10244)">
      <path
         d="m 45.825215,164.32298 v 2.8267 h 1.674316 q 0.842326,0 1.245402,-0.34623 0.408244,-0.3514 0.408244,-1.06971 0,-0.72347 -0.408244,-1.06453 -0.403076,-0.34623 -1.245402,-0.34623 z m 0,-3.17294 v 2.32544 h 1.545125 q 0.764811,0 1.136882,-0.28422 0.377238,-0.28938 0.377238,-0.8785 0,-0.58394 -0.377238,-0.87333 -0.372071,-0.28939 -1.136882,-0.28939 z m -1.043864,-0.85782 h 2.666504 q 1.193725,0 1.839681,0.49609 0.645955,0.49609 0.645955,1.41077 0,0.70796 -0.330729,1.12654 -0.330729,0.41858 -0.971517,0.52193 0.769979,0.16537 1.193726,0.69247 0.428914,0.52193 0.428914,1.30741 0,1.03353 -0.702799,1.5968 -0.7028,0.56328 -1.999878,0.56328 h -2.769857 z"
         style="font-style:normal;font-variant:normal;font-weight:normal;font-stretch:normal;font-size:10.58333302px;font-family:sans-serif;-inkscape-font-specification:'sans-serif, Normal';font-variant-ligatures:normal;font-variant-caps:normal;font-variant-numeric:normal;font-feature-settings:normal;text-align:center;writing-mode:lr-tb;text-anchor:middle;stroke-width:0.26458332"
         id="path35"
         inkscape:connector-curvature="0" />
      <path
         d="m 54.243306,162.88637 q -0.764812,0 -1.209229,0.59945 -0.444417,0.59428 -0.444417,1.63297 0,1.0387 0.439249,1.63815 0.444418,0.59428 1.214397,0.59428 0.759643,0 1.20406,-0.59945 0.444418,-0.59945 0.444418,-1.63298 0,-1.02836 -0.444418,-1.6278 -0.444417,-0.60462 -1.20406,-0.60462 z m 0,-0.80615 q 1.240234,0 1.948201,0.80615 0.707967,0.80616 0.707967,2.23242 0,1.42111 -0.707967,2.23243 -0.707967,0.80615 -1.948201,0.80615 -1.245402,0 -1.95337,-0.80615 -0.702799,-0.81132 -0.702799,-2.23243 0,-1.42626 0.702799,-2.23242 0.707968,-0.80615 1.95337,-0.80615 z"
         style="font-style:normal;font-variant:normal;font-weight:normal;font-stretch:normal;font-size:10.58333302px;font-family:sans-serif;-inkscape-font-specification:'sans-serif, Normal';font-variant-ligatures:normal;font-variant-caps:normal;font-variant-numeric:normal;font-feature-settings:normal;text-align:center;writing-mode:lr-tb;text-anchor:middle;stroke-width:0.26458332"
         id="path37"
         inkscape:connector-curvature="0" />
      <path
         d="m 62.98179,163.33079 q 0.356568,-0.64079 0.852661,-0.94568 0.496094,-0.30489 1.167888,-0.30489 0.904337,0 1.395263,0.63562 0.490926,0.63045 0.490926,1.79834 v 3.49333 h -0.956014 v -3.46232 q 0,-0.83199 -0.294555,-1.23507 -0.294556,-0.40308 -0.89917,-0.40308 -0.738973,0 -1.167887,0.49093 -0.428915,0.49093 -0.428915,1.33842 v 3.27112 h -0.956014 v -3.46232 q 0,-0.83716 -0.294555,-1.23507 -0.294556,-0.40308 -0.909506,-0.40308 -0.728637,0 -1.157552,0.4961 -0.428914,0.49092 -0.428914,1.33325 v 3.27112 h -0.956014 v -5.78776 h 0.956014 v 0.89917 q 0.325562,-0.53227 0.780314,-0.78548 0.454753,-0.25322 1.080038,-0.25322 0.630452,0 1.069702,0.32039 0.444417,0.3204 0.65629,0.93018 z"
         style="font-style:normal;font-variant:normal;font-weight:normal;font-stretch:normal;font-size:10.58333302px;font-family:sans-serif;-inkscape-font-specification:'sans-serif, Normal';font-variant-ligatures:normal;font-variant-caps:normal;font-variant-numeric:normal;font-feature-settings:normal;text-align:center;writing-mode:lr-tb;text-anchor:middle;stroke-width:0.26458332"
         id="path39"
         inkscape:connector-curvature="0" />
      <path
         d="m 72.939839,165.11879 q 0,-1.04903 -0.434082,-1.64331 -0.428915,-0.59944 -1.18339,-0.59944 -0.754476,0 -1.188558,0.59944 -0.428915,0.59428 -0.428915,1.64331 0,1.04904 0.428915,1.64848 0.434082,0.59428 1.188558,0.59428 0.754475,0 1.18339,-0.59428 0.434082,-0.59944 0.434082,-1.64848 z m -3.234945,-2.02054 q 0.299724,-0.51677 0.754476,-0.76481 0.45992,-0.25322 1.09554,-0.25322 1.0542,0 1.71049,0.83716 0.661459,0.83716 0.661459,2.20141 0,1.36426 -0.661459,2.20142 -0.65629,0.83716 -1.71049,0.83716 -0.63562,0 -1.09554,-0.24805 -0.454752,-0.25321 -0.754476,-0.76998 v 0.86817 H 68.74888 v -8.04086 h 0.956014 z"
         style="font-style:normal;font-variant:normal;font-weight:normal;font-stretch:normal;font-size:10.58333302px;font-family:sans-serif;-inkscape-font-specification:'sans-serif, Normal';font-variant-ligatures:normal;font-variant-caps:normal;font-variant-numeric:normal;font-feature-settings:normal;text-align:center;writing-mode:lr-tb;text-anchor:middle;stroke-width:0.26458332"
         id="path41"
         inkscape:connector-curvature="0" />
      <path
         d="m 78.13332,165.09812 q -1.152385,0 -1.596802,0.26355 -0.444417,0.26355 -0.444417,0.89917 0,0.50643 0.330729,0.80616 0.335897,0.29455 0.909505,0.29455 0.790649,0 1.266073,-0.5581 0.48059,-0.56328 0.48059,-1.49345 v -0.21188 z m 1.896525,-0.39274 v 3.30213 h -0.950847 v -0.8785 q -0.325561,0.5271 -0.81132,0.78031 -0.485758,0.24805 -1.188558,0.24805 -0.888834,0 -1.415934,-0.49609 -0.521932,-0.50127 -0.521932,-1.33842 0,-0.97669 0.651123,-1.47278 0.656291,-0.4961 1.953369,-0.4961 h 1.333252 v -0.093 q 0,-0.65629 -0.434082,-1.01286 -0.428914,-0.36174 -1.209228,-0.36174 -0.496094,0 -0.966349,0.11886 -0.470256,0.11885 -0.904338,0.35657 v -0.8785 q 0.521932,-0.20154 1.012858,-0.29973 0.490926,-0.10335 0.956014,-0.10335 1.255737,0 1.875855,0.65112 0.620117,0.65113 0.620117,1.97404 z"
         style="font-style:normal;font-variant:normal;font-weight:normal;font-stretch:normal;font-size:10.58333302px;font-family:sans-serif;-inkscape-font-specification:'sans-serif, Normal';font-variant-ligatures:normal;font-variant-caps:normal;font-variant-numeric:normal;font-feature-settings:normal;text-align:center;writing-mode:lr-tb;text-anchor:middle;stroke-width:0.26458332"
         id="path43"
         inkscape:connector-curvature="0" />
      <path
         d="m 49.933491,174.11566 v 1.10071 q -0.527099,-0.49093 -1.126546,-0.73381 -0.594279,-0.24288 -1.266073,-0.24288 -1.322916,0 -2.025716,0.81132 -0.702799,0.80616 -0.702799,2.33578 0,1.52445 0.702799,2.33577 0.7028,0.80616 2.025716,0.80616 0.671794,0 1.266073,-0.24288 0.599447,-0.24288 1.126546,-0.73381 v 1.09037 q -0.54777,0.37207 -1.16272,0.55811 -0.609781,0.18604 -1.29191,0.18604 -1.751831,0 -2.759522,-1.06971 -1.00769,-1.07487 -1.00769,-2.93005 0,-1.86035 1.00769,-2.93005 1.007691,-1.07487 2.759522,-1.07487 0.692464,0 1.302246,0.18603 0.614949,0.18087 1.152384,0.54777 z"
         style="font-style:normal;font-variant:normal;font-weight:normal;font-stretch:normal;font-size:10.58333302px;font-family:sans-serif;-inkscape-font-specification:'sans-serif, Normal';font-variant-ligatures:normal;font-variant-caps:normal;font-variant-numeric:normal;font-feature-settings:normal;text-align:center;writing-mode:lr-tb;text-anchor:middle;stroke-width:0.26458332"
         id="path45"
         inkscape:connector-curvature="0" />
      <path
         d="m 53.747212,176.11554 q -0.764812,0 -1.209229,0.59945 -0.444417,0.59427 -0.444417,1.63297 0,1.0387 0.439249,1.63814 0.444418,0.59428 1.214397,0.59428 0.759643,0 1.20406,-0.59944 0.444418,-0.59945 0.444418,-1.63298 0,-1.02836 -0.444418,-1.62781 -0.444417,-0.60461 -1.20406,-0.60461 z m 0,-0.80615 q 1.240234,0 1.948201,0.80615 0.707967,0.80615 0.707967,2.23242 0,1.4211 -0.707967,2.23242 -0.707967,0.80616 -1.948201,0.80616 -1.245402,0 -1.953369,-0.80616 -0.7028,-0.81132 -0.7028,-2.23242 0,-1.42627 0.7028,-2.23242 0.707967,-0.80615 1.953369,-0.80615 z"
         style="font-style:normal;font-variant:normal;font-weight:normal;font-stretch:normal;font-size:10.58333302px;font-family:sans-serif;-inkscape-font-specification:'sans-serif, Normal';font-variant-ligatures:normal;font-variant-caps:normal;font-variant-numeric:normal;font-feature-settings:normal;text-align:center;writing-mode:lr-tb;text-anchor:middle;stroke-width:0.26458332"
         id="path47"
         inkscape:connector-curvature="0" />
      <path
         d="m 61.333312,176.33775 q -0.160197,-0.093 -0.3514,-0.13436 -0.186035,-0.0465 -0.413412,-0.0465 -0.806152,0 -1.240234,0.5271 -0.428914,0.52193 -0.428914,1.50378 v 3.04891 h -0.956014 v -5.78776 h 0.956014 v 0.89917 q 0.299723,-0.5271 0.780314,-0.78031 0.480591,-0.25838 1.167887,-0.25838 0.09819,0 0.217041,0.0155 0.118856,0.0103 0.26355,0.0362 z"
         style="font-style:normal;font-variant:normal;font-weight:normal;font-stretch:normal;font-size:10.58333302px;font-family:sans-serif;-inkscape-font-specification:'sans-serif, Normal';font-variant-ligatures:normal;font-variant-caps:normal;font-variant-numeric:normal;font-feature-settings:normal;text-align:center;writing-mode:lr-tb;text-anchor:middle;stroke-width:0.26458332"
         id="path49"
         inkscape:connector-curvature="0" />
      <path
         d="m 63.271178,173.8056 v 1.64331 h 1.958537 v 0.73898 h -1.958537 v 3.14192 q 0,0.70797 0.191203,0.90951 0.196371,0.20154 0.79065,0.20154 h 0.976684 v 0.79581 h -0.976684 q -1.100708,0 -1.519287,-0.40824 -0.41858,-0.41341 -0.41858,-1.49862 v -3.14192 h -0.697631 v -0.73898 h 0.697631 v -1.64331 z"
         style="font-style:normal;font-variant:normal;font-weight:normal;font-stretch:normal;font-size:10.58333302px;font-family:sans-serif;-inkscape-font-specification:'sans-serif, Normal';font-variant-ligatures:normal;font-variant-caps:normal;font-variant-numeric:normal;font-feature-settings:normal;text-align:center;writing-mode:lr-tb;text-anchor:middle;stroke-width:0.26458332"
         id="path51"
         inkscape:connector-curvature="0" />
      <path
         d="m 66.480284,175.44891 h 0.950846 v 5.78776 h -0.950846 z m 0,-2.25309 h 0.950846 v 1.20406 h -0.950846 z"
         style="font-style:normal;font-variant:normal;font-weight:normal;font-stretch:normal;font-size:10.58333302px;font-family:sans-serif;-inkscape-font-specification:'sans-serif, Normal';font-variant-ligatures:normal;font-variant-caps:normal;font-variant-numeric:normal;font-feature-settings:normal;text-align:center;writing-mode:lr-tb;text-anchor:middle;stroke-width:0.26458332"
         id="path53"
         inkscape:connector-curvature="0" />
      <path
         d="m 74.231749,177.74335 v 3.49332 h -0.950846 v -3.46232 q 0,-0.82165 -0.320394,-1.2299 -0.320394,-0.40824 -0.961182,-0.40824 -0.769979,0 -1.214396,0.49093 -0.444417,0.49092 -0.444417,1.33842 v 3.27111 H 69.3845 v -5.78776 h 0.956014 v 0.89917 q 0.341064,-0.52193 0.800984,-0.78031 0.465088,-0.25838 1.069703,-0.25838 0.997355,0 1.508951,0.62011 0.511597,0.61495 0.511597,1.81385 z"
         style="font-style:normal;font-variant:normal;font-weight:normal;font-stretch:normal;font-size:10.58333302px;font-family:sans-serif;-inkscape-font-specification:'sans-serif, Normal';font-variant-ligatures:normal;font-variant-caps:normal;font-variant-numeric:normal;font-feature-settings:normal;text-align:center;writing-mode:lr-tb;text-anchor:middle;stroke-width:0.26458332"
         id="path55"
         inkscape:connector-curvature="0" />
      <path
         d="m 78.758605,178.32729 q -1.152384,0 -1.596802,0.26355 -0.444417,0.26355 -0.444417,0.89917 0,0.50643 0.330729,0.80615 0.335897,0.29456 0.909505,0.29456 0.79065,0 1.266073,-0.55811 0.480591,-0.56327 0.480591,-1.49345 v -0.21187 z m 1.896525,-0.39274 v 3.30212 h -0.950846 v -0.8785 q -0.325562,0.5271 -0.81132,0.78032 -0.485759,0.24805 -1.188558,0.24805 -0.888835,0 -1.415934,-0.4961 -0.521932,-0.50126 -0.521932,-1.33842 0,-0.97668 0.651123,-1.47278 0.656291,-0.49609 1.953369,-0.49609 h 1.333252 v -0.093 q 0,-0.65629 -0.434082,-1.01286 -0.428915,-0.36173 -1.209229,-0.36173 -0.496093,0 -0.966349,0.11886 -0.470255,0.11885 -0.904337,0.35656 v -0.8785 q 0.521931,-0.20153 1.012858,-0.29972 0.490926,-0.10335 0.956014,-0.10335 1.255737,0 1.875854,0.65112 0.620117,0.65112 0.620117,1.97404 z"
         style="font-style:normal;font-variant:normal;font-weight:normal;font-stretch:normal;font-size:10.58333302px;font-family:sans-serif;-inkscape-font-specification:'sans-serif, Normal';font-variant-ligatures:normal;font-variant-caps:normal;font-variant-numeric:normal;font-feature-settings:normal;text-align:center;writing-mode:lr-tb;text-anchor:middle;stroke-width:0.26458332"
         id="path57"
         inkscape:connector-curvature="0" />
    </g>
    <path
       style="fill:none;stroke:#000000;stroke-width:1.06500006;stroke-linecap:butt;stroke-linejoin:miter;stroke-miterlimit:4;stroke-dasharray:6.39000018, 1.06500003;stroke-dashoffset:0;stroke-opacity:1"
       d="m 171.35299,85.21173 v 18.79499 L 128.4073,78.945191"
       id="Cinta_Z3_P1-1-2"
       inkscape:connector-curvature="0"
       dataanim="Com2|Z3_MotoresMarcha"
       dataanimtype="offset"
       datafield="Com2|Z3_MotoresMarcha"
       dataanimvalues="10;100"
       sodipodi:nodetypes="ccc"
       inkscape:label="Cinta Z3 P1-1-2" />
    <path
       style="fill:none;stroke:#000000;stroke-width:1.06500006;stroke-linecap:butt;stroke-linejoin:miter;stroke-miterlimit:4;stroke-dasharray:6.39000006, 1.06500002;stroke-dashoffset:0;stroke-opacity:1"
       d="m 128.4073,78.945191 -0.2898,-18.673724 43.45105,25.389579"
       id="Cinta_Z3_P1-1-1"
       inkscape:connector-curvature="0"
       dataanim="Com2|Z3_MotoresMarcha"
       dataanimtype="offset"
       datafield="Com2|Z3_MotoresMarcha"
       dataanimvalues="10;100"
       sodipodi:nodetypes="ccc"
       inkscape:label="Cinta Z3 P1-1-1" />
    <path
       style="fill:none;stroke:#000000;stroke-width:1.06500006;stroke-linecap:butt;stroke-linejoin:miter;stroke-miterlimit:4;stroke-dasharray:6.39000025, 1.06500004;stroke-dashoffset:0;stroke-opacity:1"
       d="m 128.72974,83.888813 v 15.875 l -22.96616,-8.426417"
       id="Cinta_Z3_P1-2-2"
       inkscape:connector-curvature="0"
       dataanim="Com2|Z3_MotoresMarcha"
       dataanimtype="offset"
       datafield="Com2|Z3_MotoresMarcha"
       dataanimvalues="10;100"
       sodipodi:nodetypes="ccc"
       inkscape:label="Cinta Z3 P1-2-2" />
    <path
       style="fill:none;stroke:#000000;stroke-width:1.06500006;stroke-linecap:butt;stroke-linejoin:miter;stroke-miterlimit:4;stroke-dasharray:6.39000013, 1.06500003;stroke-dashoffset:0;stroke-opacity:1"
       d="M 105.76358,91.337396 V 72.816563 l 23.30315,11.577731"
       id="Cinta_Z3_P1-2-1"
       inkscape:connector-curvature="0"
       dataanim="Com2|Z3_MotoresMarcha"
       dataanimtype="offset"
       datafield="Com2|Z3_MotoresMarcha"
       dataanimvalues="10;100"
       sodipodi:nodetypes="ccc"
       inkscape:label="Cinta Z3 P1-2-1" />
    <path
       style="fill:none;stroke:#000000;stroke-width:1.06500006;stroke-linecap:butt;stroke-linejoin:miter;stroke-miterlimit:4;stroke-dasharray:6.39000025, 1.06500004;stroke-dashoffset:0;stroke-opacity:1"
       d="m 44.672645,127.54506 v 17.00223 L 128.72974,99.763813"
       id="Cinta_Z3_P2-2-2"
       inkscape:connector-curvature="0"
       dataanim="Com2|Z3_MotoresMarcha"
       dataanimtype="offset"
       datafield="Com2|Z3_MotoresMarcha"
       dataanimvalues="10;100"
       sodipodi:nodetypes="ccc"
       inkscape:label="Cinta Z3 P2-2-2" />
    <path
       style="fill:none;stroke:#000000;stroke-width:1.06500006;stroke-linecap:butt;stroke-linejoin:miter;stroke-miterlimit:4;stroke-dasharray:6.39000013, 1.06500003;stroke-dashoffset:0;stroke-opacity:1"
       d="m 128.72974,99.763813 0,-15.088697 -84.057095,42.869944"
       id="Cinta_Z3_P2-2-1"
       inkscape:connector-curvature="0"
       dataanim="Com2|Z3_MotoresMarcha"
       dataanimtype="offset"
       datafield="Com2|Z3_MotoresMarcha"
       dataanimvalues="10;100"
       sodipodi:nodetypes="ccc"
       inkscape:label="Cinta Z3 P2-2-1" />
    <path
       style="fill:none;stroke:#000000;stroke-width:1.06500006;stroke-linecap:butt;stroke-linejoin:miter;stroke-miterlimit:4;stroke-dasharray:6.39000032, 1.06500005;stroke-dashoffset:0;stroke-opacity:1"
       d="m 50.677652,154.0034 v 19.84375 L 171.35299,104.00672"
       id="Cinta_Z3_P2-1-2"
       inkscape:connector-curvature="0"
       dataanim="Com2|Z3_MotoresMarcha"
       dataanimtype="offset"
       datafield="Com2|Z3_MotoresMarcha"
       dataanimvalues="10;100"
       sodipodi:nodetypes="ccc"
       inkscape:label="Cinta Z3 P2-1-2" />
    <path
       style="fill:none;stroke:#000000;stroke-width:1.06500006;stroke-linecap:butt;stroke-linejoin:miter;stroke-miterlimit:4;stroke-dasharray:6.3900002, 1.06500004;stroke-dashoffset:0;stroke-opacity:1"
       d="M 171.35299,104.00672 V 86.110362 L 50.677652,154.0034"
       id="Cinta_Z3_P2-1-1"
       inkscape:connector-curvature="0"
       dataanim="Com2|Z3_MotoresMarcha"
       dataanimtype="offset"
       datafield="Com2|Z3_MotoresMarcha"
       dataanimvalues="10;100"
       sodipodi:nodetypes="ccc"
       inkscape:label="Cinta Z3 P2-1-1" />
    <path
       style="fill:none;stroke:#000000;stroke-width:1.06500006;stroke-linecap:butt;stroke-linejoin:miter;stroke-miterlimit:4;stroke-dasharray:6.39000025, 1.06500004;stroke-dashoffset:0;stroke-opacity:1"
       d="m 44.672645,127.54506 v 17.00223 L 11.68962,124.89923"
       id="Cinta_Z3_P3-1-2"
       inkscape:connector-curvature="0"
       dataanim="Com2|Z3_MotoresMarcha"
       dataanimtype="offset"
       datafield="Com2|Z3_MotoresMarcha"
       dataanimvalues="10;100"
       sodipodi:nodetypes="ccc"
       inkscape:label="Cinta Z3 P3-1-2" />
    <path
       style="fill:none;stroke:#000000;stroke-width:1.06500006;stroke-linecap:butt;stroke-linejoin:miter;stroke-miterlimit:4;stroke-dasharray:6.39000013, 1.06500003;stroke-dashoffset:0;stroke-opacity:1"
       d="m 11.68962,124.89923 v -15.875 l 32.983025,18.52083"
       id="Cinta_Z3_P3-1-1"
       inkscape:connector-curvature="0"
       dataanim="Com2|Z3_MotoresMarcha"
       dataanimtype="offset"
       datafield="Com2|Z3_MotoresMarcha"
       dataanimvalues="10;100"
       sodipodi:nodetypes="ccc"
       inkscape:label="Cinta Z3 P3-1-1" />
    <path
       style="fill:none;stroke:#000000;stroke-width:1.06500006;stroke-linecap:butt;stroke-linejoin:miter;stroke-miterlimit:4;stroke-dasharray:6.39000032, 1.06500005;stroke-dashoffset:0;stroke-opacity:1"
       d="m 50.677652,154.0034 v 19.84375 L -6.8817381,138.1284"
       id="Cinta_Z3_P3-2-2"
       inkscape:connector-curvature="0"
       dataanim="Com2|Z3_MotoresMarcha"
       dataanimtype="offset"
       datafield="Com2|Z3_MotoresMarcha"
       dataanimvalues="10;100"
       sodipodi:nodetypes="ccc"
       inkscape:label="Cinta Z3 P3-2-2" />
    <path
       style="fill:none;stroke:#000000;stroke-width:1.06500006;stroke-linecap:butt;stroke-linejoin:miter;stroke-miterlimit:4;stroke-dasharray:6.3900002, 1.06500004;stroke-dashoffset:0;stroke-opacity:1"
       d="M -6.8817381,138.1284 V 119.60756 L 50.677652,154.0034"
       id="Cinta_Z3_P3-2-1"
       inkscape:connector-curvature="0"
       dataanim="Com2|Z3_MotoresMarcha"
       dataanimtype="offset"
       datafield="Com2|Z3_MotoresMarcha"
       dataanimvalues="10;100"
       sodipodi:nodetypes="ccc"
       inkscape:label="Cinta Z3 P3-2-1" />
  </g>
</svg>
