<?xml version="1.0" encoding="UTF-8" standalone="no"?>
<!-- Generator: Adobe Illustrator 14.0.0, SVG Export Plug-In . SVG Version: 6.00 Build 43363)  -->

<svg
   version="1.1"
   id="Layer_1"
   x="0px"
   y="0px"
   width="177.74954"
   height="8.514698"
   viewBox="0 0 177.74954 8.514698"
   enable-background="new 0 0 612 792"
   xml:space="preserve"
   sodipodi:docname="chrysler-crossfire.svg"
   inkscape:version="1.1.2 (0a00cf5339, 2022-02-04)"
   xmlns:inkscape="http://www.inkscape.org/namespaces/inkscape"
   xmlns:sodipodi="http://sodipodi.sourceforge.net/DTD/sodipodi-0.dtd"
   xmlns="http://www.w3.org/2000/svg"
   xmlns:svg="http://www.w3.org/2000/svg"><defs
   id="defs2192">
	
	
	
	
	
	
	
	
	
	
	
	
</defs><sodipodi:namedview
   id="namedview2190"
   pagecolor="#ffffff"
   bordercolor="#666666"
   borderopacity="1.0"
   inkscape:pageshadow="2"
   inkscape:pageopacity="0.0"
   inkscape:pagecheckerboard="0"
   showgrid="false"
   inkscape:zoom="1"
   inkscape:cx="-67"
   inkscape:cy="287"
   inkscape:window-width="1920"
   inkscape:window-height="1048"
   inkscape:window-x="0"
   inkscape:window-y="0"
   inkscape:window-maximized="1"
   inkscape:current-layer="Layer_1"
   fit-margin-top="1"
   fit-margin-left="1"
   fit-margin-right="1"
   fit-margin-bottom="1" />
<path
   fill-rule="evenodd"
   clip-rule="evenodd"
   d="m 26.461547,1.213 h 3.731 c 2.252,0 2.745,-0.07 3.872,0.458 0.985,0.458 1.583,1.76 0.563,2.64 -0.599,0.423 -1.338,0.528 -2.147,0.528 l 3.52,2.534 h -2.358 l -3.555,-2.569 h -1.372 v 2.569 h -2.253 V 4.804 h -1.689 c -0.211,0 -0.493,0 -0.599,-0.035 -0.211,-0.07 -0.387,-0.317 -0.528,-0.493 -0.105,-0.141 -0.211,-0.246 -0.176,-0.387 0.036,-0.035 0.071,-0.035 0.141,-0.035 l 2.534,-0.035 h 0.316 z m 6.723,1.936 c 0,0.598 -0.634,0.739 -1.514,0.739 h -2.956 V 2.445 c 0.457,0 2.921,0 2.921,0 1.02,-10e-4 1.549,0.281 1.549,0.704 z"
   id="path2165" /><path
   fill-rule="evenodd"
   clip-rule="evenodd"
   d="m 73.976547,1.072 h 4.787 v 1.091 h -2.921 c -0.95,0 -1.936,-0.035 -2.675,0.317 -0.246,0.105 -0.563,0.352 -0.458,0.669 0.387,1.091 7.25,-0.282 7.426,2.217 0.141,2.288 -2.816,2.147 -4.541,2.147 h -4.857 V 6.317 h 4.998 c 1.408,0 2.288,-0.142 2.288,-0.739 0,-0.528 -1.161,-0.704 -2.604,-0.704 h -0.246 -5.843 c -0.211,0 -0.493,0 -0.598,-0.035 -0.211,-0.105 -0.387,-0.353 -0.528,-0.493 -0.106,-0.141 -0.211,-0.246 -0.176,-0.387 0,-0.035 0.07,-0.035 0.105,-0.035 0,0 2.64,0 2.816,0 -0.352,-0.211 -0.598,-0.669 -0.528,-1.162 0.211,-0.986 1.091,-1.69 3.555,-1.69 z"
   id="path2167" /><path
   fill-rule="evenodd"
   clip-rule="evenodd"
   d="m 113.07955,1.213 h 1.231 7.11 v 1.126 h -6.123 v 1.513 h 5.631 v 1.021 h -5.666 v 2.499 h -2.183 l -0.035,-2.499 h -1.689 c -0.176,0 -0.458,0 -0.563,-0.035 -0.211,-0.105 -0.422,-0.353 -0.563,-0.493 -0.105,-0.141 -0.212,-0.246 -0.177,-0.387 0.035,-0.035 0.071,-0.035 0.142,-0.035 l 2.851,-0.036 V 1.212 h 0.034 z"
   id="path2169" /><path
   fill-rule="evenodd"
   clip-rule="evenodd"
   d="m 147.85255,1.213 h 3.731 c 2.252,0 2.78,-0.07 3.906,0.458 0.985,0.458 1.584,1.76 0.528,2.64 -0.599,0.423 -1.338,0.528 -2.147,0.528 l 3.521,2.534 h -2.358 l -3.555,-2.569 h -1.373 v 2.569 h -2.253 V 4.804 h -1.689 c -0.176,0 -0.492,0 -0.598,-0.035 -0.177,-0.07 -0.388,-0.317 -0.528,-0.493 -0.105,-0.141 -0.211,-0.246 -0.176,-0.387 0.035,-0.035 0.07,-0.035 0.141,-0.035 l 2.569,-0.035 h 0.281 z m 6.723,1.936 c 0,0.598 -0.598,0.739 -1.479,0.739 h -2.991 V 2.445 c 0.458,0 2.921,0 2.921,0 1.022,-10e-4 1.549,0.281 1.549,0.704 z"
   id="path2171" /><path
   fill-rule="evenodd"
   clip-rule="evenodd"
   d="m 94.706547,1.072 h 4.752 v 1.091 h -2.886 c -0.95,0 -1.937,-0.035 -2.71,0.317 -0.212,0.105 -0.563,0.352 -0.458,0.669 0.387,1.091 7.285003,-0.282 7.427003,2.217 0.141,2.288 -2.781003,2.147 -4.506003,2.147 h -4.856 V 6.317 h 4.963 c 1.442,0 2.287,-0.142 2.287,-0.739 0,-0.528 -1.161,-0.704 -2.604,-0.704 h -0.246 -5.843 c -0.176,0 -0.458,0 -0.563,-0.035 -0.211,-0.105 -0.422,-0.353 -0.563,-0.493 -0.105,-0.141 -0.211,-0.246 -0.176,-0.387 0.035,-0.035 0.105,-0.035 0.141,-0.035 0,0 2.64,0 2.816,0 -0.352,-0.211 -0.634,-0.669 -0.528,-1.162 0.21,-0.986 1.055,-1.69 3.553,-1.69 z"
   id="path2173" /><path
   fill-rule="evenodd"
   clip-rule="evenodd"
   d="m 48.600547,4.204 c 0,1.056 1.408,1.971 3.203,1.971 1.76,0.035 3.203,-0.81 3.238,-1.865 0,-1.056 -1.408,-1.936 -3.168,-1.971 -1.795,-0.035 -3.238,0.81 -3.273,1.865 z m -2.183,0.599 h -1.021 c -0.176,0 -0.493,0 -0.598,-0.035 -0.211,-0.07 -0.387,-0.317 -0.528,-0.493 -0.106,-0.141 -0.211,-0.246 -0.176,-0.387 0.035,-0.035 0.07,-0.035 0.141,-0.035 h 2.147 c 0.352,-1.619 2.64,-2.851 5.455,-2.851 2.781,0 5.104,1.232 5.456,2.815 h 0.95 c 0.176,0 0.493,0 0.563,0.07 0.211,0.071 0.422,0.317 0.563,0.493 0.105,0.105 0.211,0.246 0.176,0.353 -0.035,0.035 -0.07,0.07 -0.141,0.07 h -2.147 c -0.458,1.549 -2.71,2.71 -5.42,2.71 -2.745,0 -4.997,-1.161 -5.42,-2.71 z"
   id="path2175" /><path
   fill-rule="evenodd"
   clip-rule="evenodd"
   d="m 131.97955,1.213 c 0.739,0 1.725,0 2.464,0 0,0.035 0,5.315 0,6.16 -0.739,0 -1.725,0 -2.464,0 0,-0.036 0,-5.281 0,-6.16 z"
   id="path2177" /><path
   fill-rule="evenodd"
   clip-rule="evenodd"
   d="m 133.03555,3.817 h 1.689 c 0.176,0 0.458,0 0.563,0.07 0.211,0.071 0.422,0.317 0.563,0.493 0.105,0.105 0.212,0.246 0.141,0.353 0,0.035 -0.07,0.07 -0.105,0.07 h -2.568 -0.282 V 3.817 Z"
   id="path2179" /><path
   fill-rule="evenodd"
   clip-rule="evenodd"
   d="m 133.38755,4.803 h -1.69 c -0.175,0 -0.457,0 -0.563,-0.035 -0.211,-0.07 -0.423,-0.317 -0.563,-0.493 -0.105,-0.141 -0.176,-0.246 -0.141,-0.387 0,-0.035 0.07,-0.035 0.105,-0.035 l 2.569,-0.035 h 0.281 v 0.985 z"
   id="path2181" /><path
   fill-rule="evenodd"
   clip-rule="evenodd"
   d="m 168.44255,1.213 c 2.676,0 5.632,0 8.307,0 0,0.035 0,0.845 0,1.091 -2.006,0 -4.083,0 -6.089,0 0,0.493 0,1.583 0,1.583 1.689,0 5.104,0 5.209,0 0,0.282 0,0.704 0,0.986 -1.725,0 -3.449,0 -5.209,0 0,0.387 0,1.337 0,1.337 1.971,0 6.054,-0.035 6.089,-0.035 0,0.353 0,0.88 0,1.197 -2.71,0 -8.307,0 -8.307,0 0,0 0,-2.112 0,-2.499 -0.563,0 -1.126,0 -1.689,0 -0.211,0 -0.492,0 -0.598,-0.035 -0.211,-0.105 -0.388,-0.353 -0.528,-0.493 -0.105,-0.141 -0.211,-0.246 -0.176,-0.387 0,-0.035 0.07,-0.035 0.105,-0.035 0.88,0 2.851,-0.036 2.886,-0.036 0,-0.88 0,-1.795 0,-2.674 z"
   id="path2183" /><path
   fill-rule="evenodd"
   clip-rule="evenodd"
   d="m 9.6375472,6.175 c 1.1259998,0 2.1119998,-0.316 2.7809998,-0.81 l 1.725,0.774 c -1.056,0.845 -2.746,1.373 -4.6109998,1.373 -2.71,0 -4.998,-1.161 -5.456,-2.675 h -0.563 -1.373 c 0,0 -0.141,0 -0.247,0 -0.106,0 -0.211,0 -0.247,-0.035 -0.211,-0.141 -0.387,-0.423 -0.528,-0.599 -0.105,-0.105 -0.14099995,-0.176 -0.105,-0.281 0.035,-0.071 0.141,-0.036 0.211,-0.036 l 2.816,-0.035 c 0.352,-1.619 2.675,-2.851 5.491,-2.851 1.9359998,0 3.6249998,0.598 4.6459998,1.478 l -1.654,0.774 c -0.634,-0.563 -1.689,-0.915 -2.8859998,-0.915 -1.865,0 -3.414,0.845 -3.414,1.936 0,1.057 1.549,1.902 3.414,1.902 z"
   id="path2185" />
</svg>
