  0
SECTION
  2
HEADER
  9
$ACADVER
  1
AC1014
  9
$HANDSEED
  5
FFFF
  9
$MEASUREMENT
 70
     1
  0
ENDSEC
  0
SECTION
  2
TABLES
  0
TABLE
  2
VPORT
  5
8
330
0
100
AcDbSymbolTable
 70
     4
  0
VPORT
  5
2E
330
8
100
AcDbSymbolTableRecord
100
AcDbViewportTableRecord
  2
*ACTIVE
 70
     0
 10
0.0
 20
0.0
 11
1.0
 21
1.0
 12
210.0
 22
148.5
 13
0.0
 23
0.0
 14
10.0
 24
10.0
 15
10.0
 25
10.0
 16
0.0
 26
0.0
 36
1.0
 17
0.0
 27
0.0
 37
0.0
 40
341.0
 41
1.24
 42
50.0
 43
0.0
 44
0.0
 50
0.0
 51
0.0
 71
     0
 72
   100
 73
     1
 74
     3
 75
     0
 76
     0
 77
     0
 78
     0
  0
ENDTAB
  0
TABLE
  2
LTYPE
  5
5
330
0
100
AcDbSymbolTable
 70
     1
  0
LTYPE
  5
14
330
5
100
AcDbSymbolTableRecord
100
AcDbLinetypeTableRecord
  2
BYBLOCK
 70
     0
  3

 72
    65
 73
     0
 40
0.0
  0
LTYPE
  5
15
330
5
100
AcDbSymbolTableRecord
100
AcDbLinetypeTableRecord
  2
BYLAYER
 70
     0
  3

 72
    65
 73
     0
 40
0.0
  0
LTYPE
  5
16
330
5
100
AcDbSymbolTableRecord
100
AcDbLinetypeTableRecord
  2
CONTINUOUS
 70
     0
  3
Solid line
 72
    65
 73
     0
 40
0.0
  0
ENDTAB
  0
TABLE
  2
LAYER
  5
2
100
AcDbSymbolTable
 70
1
  0
LAYER
  5
50
100
AcDbSymbolTableRecord
100
AcDbLayerTableRecord
  2
0
 70
0
  6
CONTINUOUS
  0
ENDTAB
  0
TABLE
  2
STYLE
  5
3
330
0
100
AcDbSymbolTable
 70
     1
  0
STYLE
  5
11
330
3
100
AcDbSymbolTableRecord
100
AcDbTextStyleTableRecord
  2
STANDARD
 70
     0
 40
0.0
 41
1.0
 50
0.0
 71
     0
 42
2.5
  3
txt
  4

  0
ENDTAB
  0
TABLE
  2
VIEW
  5
6
330
0
100
AcDbSymbolTable
 70
     0
  0
ENDTAB
  0
TABLE
  2
UCS
  5
7
330
0
100
AcDbSymbolTable
 70
     0
  0
ENDTAB
  0
TABLE
  2
APPID
  5
9
330
0
100
AcDbSymbolTable
 70
     2
  0
APPID
  5
12
330
9
100
AcDbSymbolTableRecord
100
AcDbRegAppTableRecord
  2
ACAD
 70
     0
  0
ENDTAB
  0
TABLE
  2
DIMSTYLE
  5
A
330
0
100
AcDbSymbolTable
 70
     1
  0
DIMSTYLE
105
27
330
A
100
AcDbSymbolTableRecord
100
AcDbDimStyleTableRecord
  2
ISO-25
 70
     0
  3

  4

  5

  6

  7

 40
1.0
 41
2.5
 42
0.625
 43
3.75
 44
1.25
 45
0.0
 46
0.0
 47
0.0
 48
0.0
140
2.5
141
2.5
142
0.0
143
0.03937007874016
144
1.0
145
0.0
146
1.0
147
0.625
 71
     0
 72
     0
 73
     0
 74
     0
 75
     0
 76
     0
 77
     1
 78
     8
170
     0
171
     3
172
     1
173
     0
174
     0
175
     0
176
     0
177
     0
178
     0
270
     2
271
     2
272
     2
273
     2
274
     3
340
11
275
     0
280
     0
281
     0
282
     0
283
     0
284
     8
285
     0
286
     0
287
     3
288
     0
  0
ENDTAB
  0
TABLE
  2
BLOCK_RECORD
  5
1
330
0
100
AcDbSymbolTable
 70
     1
  0
BLOCK_RECORD
  5
1F
330
1
100
AcDbSymbolTableRecord
100
AcDbBlockTableRecord
  2
*MODEL_SPACE
  0
BLOCK_RECORD
  5
1B
330
1
100
AcDbSymbolTableRecord
100
AcDbBlockTableRecord
  2
*PAPER_SPACE
  0
ENDTAB
  0
ENDSEC
  0
SECTION
  2
BLOCKS
  0
BLOCK
  5
20
330
1F
100
AcDbEntity
  8
0
100
AcDbBlockBegin
  2
*MODEL_SPACE
 70
     0
 10
0.0
 20
0.0
 30
0.0
  3
*MODEL_SPACE
  1

  0
ENDBLK
  5
21
330
1F
100
AcDbEntity
  8
0
100
AcDbBlockEnd
  0
BLOCK
  5
1C
330
1B
100
AcDbEntity
 67
     1
  8
0
100
AcDbBlockBegin
  2
*PAPER_SPACE
  1

  0
ENDBLK
  5
1D
330
1B
100
AcDbEntity
 67
     1
  8
0
100
AcDbBlockEnd
  0
ENDSEC
  0
SECTION
  2
ENTITIES
  0
SPLINE
  5
100
100
AcDbEntity
  8
0
 62
7
100
AcDbSpline
 70
8
 71
3
 72
8
 73
4
 74
0
 40
0
 40
0
 40
0
 40
0
 40
1
 40
1
 40
1
 40
1
 10
0.007988
 20
0.001932
 30
0.0
 10
0.008584
 20
0.001932
 30
0.0
 10
0.008715
 20
0.001950
 30
0.0
 10
0.009013
 20
0.001811
 30
0.0
  0
SPLINE
  5
101
100
AcDbEntity
  8
0
 62
7
100
AcDbSpline
 70
8
 71
3
 72
8
 73
4
 74
0
 40
0
 40
0
 40
0
 40
0
 40
1
 40
1
 40
1
 40
1
 10
0.009013
 20
0.001811
 30
0.0
 10
0.009274
 20
0.001690
 30
0.0
 10
0.009432
 20
0.001345
 30
0.0
 10
0.009162
 20
0.001112
 30
0.0
  0
SPLINE
  5
102
100
AcDbEntity
  8
0
 62
7
100
AcDbSpline
 70
8
 71
3
 72
8
 73
4
 74
0
 40
0
 40
0
 40
0
 40
0
 40
1
 40
1
 40
1
 40
1
 10
0.009162
 20
0.001112
 30
0.0
 10
0.009003
 20
0.001000
 30
0.0
 10
0.008808
 20
0.000973
 30
0.0
 10
0.008594
 20
0.000973
 30
0.0
  0
LWPOLYLINE
  5
103
100
AcDbEntity
  8
0
 62
7
100
AcDbPolyline
 90
2
 70
0
 10
0.007001
 20
0.001932
 30
0.0
 10
0.007988
 20
0.001932
 30
0.0
  0
SPLINE
  5
104
100
AcDbEntity
  8
0
 62
7
100
AcDbSpline
 70
8
 71
3
 72
8
 73
4
 74
0
 40
0
 40
0
 40
0
 40
0
 40
1
 40
1
 40
1
 40
1
 10
0.006555
 20
0.000982
 30
0.0
 10
0.006499
 20
0.000982
 30
0.0
 10
0.006424
 20
0.000982
 30
0.0
 10
0.006396
 20
0.000991
 30
0.0
  0
SPLINE
  5
105
100
AcDbEntity
  8
0
 62
7
100
AcDbSpline
 70
8
 71
3
 72
8
 73
4
 74
0
 40
0
 40
0
 40
0
 40
0
 40
1
 40
1
 40
1
 40
1
 10
0.006396
 20
0.000991
 30
0.0
 10
0.006340
 20
0.001010
 30
0.0
 10
0.006294
 20
0.001075
 30
0.0
 10
0.006256
 20
0.001121
 30
0.0
  0
SPLINE
  5
106
100
AcDbEntity
  8
0
 62
7
100
AcDbSpline
 70
8
 71
3
 72
8
 73
4
 74
0
 40
0
 40
0
 40
0
 40
0
 40
1
 40
1
 40
1
 40
1
 10
0.006256
 20
0.001121
 30
0.0
 10
0.006229
 20
0.001159
 30
0.0
 10
0.006201
 20
0.001187
 30
0.0
 10
0.006210
 20
0.001224
 30
0.0
  0
SPLINE
  5
107
100
AcDbEntity
  8
0
 62
7
100
AcDbSpline
 70
8
 71
3
 72
8
 73
4
 74
0
 40
0
 40
0
 40
0
 40
0
 40
1
 40
1
 40
1
 40
1
 10
0.006210
 20
0.001224
 30
0.0
 10
0.006219
 20
0.001233
 30
0.0
 10
0.006229
 20
0.001233
 30
0.0
 10
0.006247
 20
0.001233
 30
0.0
  0
LWPOLYLINE
  5
108
100
AcDbEntity
  8
0
 62
7
100
AcDbPolyline
 90
9
 70
0
 10
0.008594
 20
0.000973
 30
0.0
 10
0.009525
 20
0.000302
 30
0.0
 10
0.008901
 20
0.000302
 30
0.0
 10
0.007961
 20
0.000982
 30
0.0
 10
0.007598
 20
0.000982
 30
0.0
 10
0.007598
 20
0.000302
 30
0.0
 10
0.007002
 20
0.000302
 30
0.0
 10
0.007002
 20
0.000982
 30
0.0
 10
0.006555
 20
0.000982
 30
0.0
  0
SPLINE
  5
109
100
AcDbEntity
  8
0
 62
7
100
AcDbSpline
 70
8
 71
3
 72
8
 73
4
 74
0
 40
0
 40
0
 40
0
 40
0
 40
1
 40
1
 40
1
 40
1
 10
0.008780
 20
0.001420
 30
0.0
 10
0.008780
 20
0.001261
 30
0.0
 10
0.008612
 20
0.001224
 30
0.0
 10
0.008379
 20
0.001224
 30
0.0
  0
LWPOLYLINE
  5
10a
100
AcDbEntity
  8
0
 62
7
100
AcDbPolyline
 90
4
 70
0
 10
0.006247
 20
0.001233
 30
0.0
 10
0.006918
 20
0.001242
 30
0.0
 10
0.007001
 20
0.001242
 30
0.0
 10
0.007001
 20
0.001932
 30
0.0
  0
SPLINE
  5
10b
100
AcDbEntity
  8
0
 62
7
100
AcDbSpline
 70
8
 71
3
 72
8
 73
4
 74
0
 40
0
 40
0
 40
0
 40
0
 40
1
 40
1
 40
1
 40
1
 10
0.007597
 20
0.001606
 30
0.0
 10
0.007718
 20
0.001606
 30
0.0
 10
0.008370
 20
0.001606
 30
0.0
 10
0.008370
 20
0.001606
 30
0.0
  0
SPLINE
  5
10c
100
AcDbEntity
  8
0
 62
7
100
AcDbSpline
 70
8
 71
3
 72
8
 73
4
 74
0
 40
0
 40
0
 40
0
 40
0
 40
1
 40
1
 40
1
 40
1
 10
0.008370
 20
0.001606
 30
0.0
 10
0.008640
 20
0.001606
 30
0.0
 10
0.008780
 20
0.001532
 30
0.0
 10
0.008780
 20
0.001420
 30
0.0
  0
LWPOLYLINE
  5
10d
100
AcDbEntity
  8
0
 62
7
100
AcDbPolyline
 90
3
 70
0
 10
0.008379
 20
0.001224
 30
0.0
 10
0.007597
 20
0.001224
 30
0.0
 10
0.007597
 20
0.001606
 30
0.0
  0
LWPOLYLINE
  5
10e
100
AcDbEntity
  8
0
 62
7
100
AcDbPolyline
 90
1
 70
1
 10
0.008780
 20
0.001420
 30
0.0
  0
SPLINE
  5
10f
100
AcDbEntity
  8
0
 62
7
100
AcDbSpline
 70
8
 71
3
 72
8
 73
4
 74
0
 40
0
 40
0
 40
0
 40
0
 40
1
 40
1
 40
1
 40
1
 10
0.020067
 20
0.001681
 30
0.0
 10
0.019815
 20
0.001681
 30
0.0
 10
0.019554
 20
0.001690
 30
0.0
 10
0.019359
 20
0.001597
 30
0.0
  0
SPLINE
  5
110
100
AcDbEntity
  8
0
 62
7
100
AcDbSpline
 70
8
 71
3
 72
8
 73
4
 74
0
 40
0
 40
0
 40
0
 40
0
 40
1
 40
1
 40
1
 40
1
 10
0.019359
 20
0.001597
 30
0.0
 10
0.019294
 20
0.001569
 30
0.0
 10
0.019210
 20
0.001504
 30
0.0
 10
0.019238
 20
0.001420
 30
0.0
  0
SPLINE
  5
111
100
AcDbEntity
  8
0
 62
7
100
AcDbSpline
 70
8
 71
3
 72
8
 73
4
 74
0
 40
0
 40
0
 40
0
 40
0
 40
1
 40
1
 40
1
 40
1
 10
0.019238
 20
0.001420
 30
0.0
 10
0.019340
 20
0.001131
 30
0.0
 10
0.021156
 20
0.001494
 30
0.0
 10
0.021203
 20
0.000833
 30
0.0
  0
SPLINE
  5
112
100
AcDbEntity
  8
0
 62
7
100
AcDbSpline
 70
8
 71
3
 72
8
 73
4
 74
0
 40
0
 40
0
 40
0
 40
0
 40
1
 40
1
 40
1
 40
1
 10
0.021203
 20
0.000833
 30
0.0
 10
0.021240
 20
0.000228
 30
0.0
 10
0.020457
 20
0.000265
 30
0.0
 10
0.020001
 20
0.000265
 30
0.0
  0
LWPOLYLINE
  5
113
100
AcDbEntity
  8
0
 62
7
100
AcDbPolyline
 90
4
 70
0
 10
0.019573
 20
0.001969
 30
0.0
 10
0.020840
 20
0.001969
 30
0.0
 10
0.020840
 20
0.001681
 30
0.0
 10
0.020067
 20
0.001681
 30
0.0
  0
SPLINE
  5
114
100
AcDbEntity
  8
0
 62
7
100
AcDbSpline
 70
8
 71
3
 72
8
 73
4
 74
0
 40
0
 40
0
 40
0
 40
0
 40
1
 40
1
 40
1
 40
1
 10
0.020038
 20
0.000581
 30
0.0
 10
0.020411
 20
0.000581
 30
0.0
 10
0.020644
 20
0.000619
 30
0.0
 10
0.020644
 20
0.000777
 30
0.0
  0
SPLINE
  5
115
100
AcDbEntity
  8
0
 62
7
100
AcDbSpline
 70
8
 71
3
 72
8
 73
4
 74
0
 40
0
 40
0
 40
0
 40
0
 40
1
 40
1
 40
1
 40
1
 10
0.020644
 20
0.000777
 30
0.0
 10
0.020644
 20
0.000917
 30
0.0
 10
0.020337
 20
0.000963
 30
0.0
 10
0.019955
 20
0.000963
 30
0.0
  0
LWPOLYLINE
  5
116
100
AcDbEntity
  8
0
 62
7
100
AcDbPolyline
 90
4
 70
0
 10
0.020001
 20
0.000265
 30
0.0
 10
0.018716
 20
0.000265
 30
0.0
 10
0.018716
 20
0.000581
 30
0.0
 10
0.020038
 20
0.000581
 30
0.0
  0
SPLINE
  5
117
100
AcDbEntity
  8
0
 62
7
100
AcDbSpline
 70
8
 71
3
 72
8
 73
4
 74
0
 40
0
 40
0
 40
0
 40
0
 40
1
 40
1
 40
1
 40
1
 10
0.018344
 20
0.000963
 30
0.0
 10
0.018288
 20
0.000963
 30
0.0
 10
0.018213
 20
0.000963
 30
0.0
 10
0.018185
 20
0.000973
 30
0.0
  0
SPLINE
  5
118
100
AcDbEntity
  8
0
 62
7
100
AcDbSpline
 70
8
 71
3
 72
8
 73
4
 74
0
 40
0
 40
0
 40
0
 40
0
 40
1
 40
1
 40
1
 40
1
 10
0.018185
 20
0.000973
 30
0.0
 10
0.018130
 20
0.001000
 30
0.0
 10
0.018083
 20
0.001066
 30
0.0
 10
0.018046
 20
0.001103
 30
0.0
  0
SPLINE
  5
119
100
AcDbEntity
  8
0
 62
7
100
AcDbSpline
 70
8
 71
3
 72
8
 73
4
 74
0
 40
0
 40
0
 40
0
 40
0
 40
1
 40
1
 40
1
 40
1
 10
0.018046
 20
0.001103
 30
0.0
 10
0.018018
 20
0.001140
 30
0.0
 10
0.017990
 20
0.001168
 30
0.0
 10
0.017999
 20
0.001205
 30
0.0
  0
SPLINE
  5
11a
100
AcDbEntity
  8
0
 62
7
100
AcDbSpline
 70
8
 71
3
 72
8
 73
4
 74
0
 40
0
 40
0
 40
0
 40
0
 40
1
 40
1
 40
1
 40
1
 10
0.017999
 20
0.001205
 30
0.0
 10
0.017999
 20
0.001215
 30
0.0
 10
0.018018
 20
0.001215
 30
0.0
 10
0.018027
 20
0.001215
 30
0.0
  0
SPLINE
  5
11b
100
AcDbEntity
  8
0
 62
7
100
AcDbSpline
 70
8
 71
3
 72
8
 73
4
 74
0
 40
0
 40
0
 40
0
 40
0
 40
1
 40
1
 40
1
 40
1
 10
0.018027
 20
0.001215
 30
0.0
 10
0.018027
 20
0.001215
 30
0.0
 10
0.018725
 20
0.001215
 30
0.0
 10
0.018772
 20
0.001215
 30
0.0
  0
SPLINE
  5
11c
100
AcDbEntity
  8
0
 62
7
100
AcDbSpline
 70
8
 71
3
 72
8
 73
4
 74
0
 40
0
 40
0
 40
0
 40
0
 40
1
 40
1
 40
1
 40
1
 10
0.018772
 20
0.001215
 30
0.0
 10
0.018679
 20
0.001270
 30
0.0
 10
0.018614
 20
0.001392
 30
0.0
 10
0.018632
 20
0.001522
 30
0.0
  0
SPLINE
  5
11d
100
AcDbEntity
  8
0
 62
7
100
AcDbSpline
 70
8
 71
3
 72
8
 73
4
 74
0
 40
0
 40
0
 40
0
 40
0
 40
1
 40
1
 40
1
 40
1
 10
0.018632
 20
0.001522
 30
0.0
 10
0.018688
 20
0.001783
 30
0.0
 10
0.018921
 20
0.001969
 30
0.0
 10
0.019573
 20
0.001969
 30
0.0
  0
LWPOLYLINE
  5
11e
100
AcDbEntity
  8
0
 62
7
100
AcDbPolyline
 90
3
 70
0
 10
0.019955
 20
0.000963
 30
0.0
 10
0.019890
 20
0.000963
 30
0.0
 10
0.018344
 20
0.000963
 30
0.0
  0
LWPOLYLINE
  5
11f
100
AcDbEntity
  8
0
 62
7
100
AcDbPolyline
 90
1
 70
1
 10
0.019573
 20
0.001969
 30
0.0
  0
SPLINE
  5
120
100
AcDbEntity
  8
0
 62
7
100
AcDbSpline
 70
8
 71
3
 72
8
 73
4
 74
0
 40
0
 40
0
 40
0
 40
0
 40
1
 40
1
 40
1
 40
1
 10
0.029463
 20
0.000964
 30
0.0
 10
0.029416
 20
0.000964
 30
0.0
 10
0.029342
 20
0.000964
 30
0.0
 10
0.029314
 20
0.000973
 30
0.0
  0
SPLINE
  5
121
100
AcDbEntity
  8
0
 62
7
100
AcDbSpline
 70
8
 71
3
 72
8
 73
4
 74
0
 40
0
 40
0
 40
0
 40
0
 40
1
 40
1
 40
1
 40
1
 10
0.029314
 20
0.000973
 30
0.0
 10
0.029258
 20
0.001001
 30
0.0
 10
0.029202
 20
0.001066
 30
0.0
 10
0.029165
 20
0.001103
 30
0.0
  0
SPLINE
  5
122
100
AcDbEntity
  8
0
 62
7
100
AcDbSpline
 70
8
 71
3
 72
8
 73
4
 74
0
 40
0
 40
0
 40
0
 40
0
 40
1
 40
1
 40
1
 40
1
 10
0.029165
 20
0.001103
 30
0.0
 10
0.029137
 20
0.001141
 30
0.0
 10
0.029109
 20
0.001168
 30
0.0
 10
0.029118
 20
0.001206
 30
0.0
  0
SPLINE
  5
123
100
AcDbEntity
  8
0
 62
7
100
AcDbSpline
 70
8
 71
3
 72
8
 73
4
 74
0
 40
0
 40
0
 40
0
 40
0
 40
1
 40
1
 40
1
 40
1
 10
0.029118
 20
0.001206
 30
0.0
 10
0.029127
 20
0.001215
 30
0.0
 10
0.029137
 20
0.001215
 30
0.0
 10
0.029156
 20
0.001215
 30
0.0
  0
LWPOLYLINE
  5
124
100
AcDbEntity
  8
0
 62
7
100
AcDbPolyline
 90
13
 70
0
 10
0.029919
 20
0.001932
 30
0.0
 10
0.030245
 20
0.001932
 30
0.0
 10
0.032126
 20
0.001932
 30
0.0
 10
0.032126
 20
0.001634
 30
0.0
 10
0.030506
 20
0.001634
 30
0.0
 10
0.030506
 20
0.001234
 30
0.0
 10
0.031996
 20
0.001234
 30
0.0
 10
0.031996
 20
0.000964
 30
0.0
 10
0.030497
 20
0.000964
 30
0.0
 10
0.030497
 20
0.000302
 30
0.0
 10
0.029919
 20
0.000302
 30
0.0
 10
0.029910
 20
0.000964
 30
0.0
 10
0.029463
 20
0.000964
 30
0.0
  0
LWPOLYLINE
  5
125
100
AcDbEntity
  8
0
 62
7
100
AcDbPolyline
 90
5
 70
0
 10
0.029156
 20
0.001215
 30
0.0
 10
0.029910
 20
0.001224
 30
0.0
 10
0.029910
 20
0.001932
 30
0.0
 10
0.029919
 20
0.001932
 30
0.0
 10
0.029919
 20
0.001932
 30
0.0
  0
SPLINE
  5
126
100
AcDbEntity
  8
0
 62
7
100
AcDbSpline
 70
8
 71
3
 72
8
 73
4
 74
0
 40
0
 40
0
 40
0
 40
0
 40
1
 40
1
 40
1
 40
1
 10
0.040106
 20
0.001932
 30
0.0
 10
0.040702
 20
0.001932
 30
0.0
 10
0.040842
 20
0.001950
 30
0.0
 10
0.041140
 20
0.001811
 30
0.0
  0
SPLINE
  5
127
100
AcDbEntity
  8
0
 62
7
100
AcDbSpline
 70
8
 71
3
 72
8
 73
4
 74
0
 40
0
 40
0
 40
0
 40
0
 40
1
 40
1
 40
1
 40
1
 10
0.041140
 20
0.001811
 30
0.0
 10
0.041401
 20
0.001690
 30
0.0
 10
0.041559
 20
0.001345
 30
0.0
 10
0.041280
 20
0.001112
 30
0.0
  0
SPLINE
  5
128
100
AcDbEntity
  8
0
 62
7
100
AcDbSpline
 70
8
 71
3
 72
8
 73
4
 74
0
 40
0
 40
0
 40
0
 40
0
 40
1
 40
1
 40
1
 40
1
 10
0.041280
 20
0.001112
 30
0.0
 10
0.041121
 20
0.001000
 30
0.0
 10
0.040926
 20
0.000973
 30
0.0
 10
0.040712
 20
0.000973
 30
0.0
  0
LWPOLYLINE
  5
129
100
AcDbEntity
  8
0
 62
7
100
AcDbPolyline
 90
2
 70
0
 10
0.039119
 20
0.001932
 30
0.0
 10
0.040106
 20
0.001932
 30
0.0
  0
SPLINE
  5
12a
100
AcDbEntity
  8
0
 62
7
100
AcDbSpline
 70
8
 71
3
 72
8
 73
4
 74
0
 40
0
 40
0
 40
0
 40
0
 40
1
 40
1
 40
1
 40
1
 10
0.038672
 20
0.000982
 30
0.0
 10
0.038626
 20
0.000982
 30
0.0
 10
0.038542
 20
0.000982
 30
0.0
 10
0.038514
 20
0.000991
 30
0.0
  0
SPLINE
  5
12b
100
AcDbEntity
  8
0
 62
7
100
AcDbSpline
 70
8
 71
3
 72
8
 73
4
 74
0
 40
0
 40
0
 40
0
 40
0
 40
1
 40
1
 40
1
 40
1
 10
0.038514
 20
0.000991
 30
0.0
 10
0.038467
 20
0.001010
 30
0.0
 10
0.038412
 20
0.001075
 30
0.0
 10
0.038375
 20
0.001121
 30
0.0
  0
SPLINE
  5
12c
100
AcDbEntity
  8
0
 62
7
100
AcDbSpline
 70
8
 71
3
 72
8
 73
4
 74
0
 40
0
 40
0
 40
0
 40
0
 40
1
 40
1
 40
1
 40
1
 10
0.038375
 20
0.001121
 30
0.0
 10
0.038347
 20
0.001159
 30
0.0
 10
0.038319
 20
0.001187
 30
0.0
 10
0.038328
 20
0.001224
 30
0.0
  0
SPLINE
  5
12d
100
AcDbEntity
  8
0
 62
7
100
AcDbSpline
 70
8
 71
3
 72
8
 73
4
 74
0
 40
0
 40
0
 40
0
 40
0
 40
1
 40
1
 40
1
 40
1
 10
0.038328
 20
0.001224
 30
0.0
 10
0.038337
 20
0.001233
 30
0.0
 10
0.038346
 20
0.001233
 30
0.0
 10
0.038365
 20
0.001233
 30
0.0
  0
LWPOLYLINE
  5
12e
100
AcDbEntity
  8
0
 62
7
100
AcDbPolyline
 90
9
 70
0
 10
0.040712
 20
0.000973
 30
0.0
 10
0.041643
 20
0.000302
 30
0.0
 10
0.041019
 20
0.000302
 30
0.0
 10
0.040079
 20
0.000982
 30
0.0
 10
0.039715
 20
0.000982
 30
0.0
 10
0.039715
 20
0.000302
 30
0.0
 10
0.039119
 20
0.000302
 30
0.0
 10
0.039119
 20
0.000982
 30
0.0
 10
0.038672
 20
0.000982
 30
0.0
  0
SPLINE
  5
12f
100
AcDbEntity
  8
0
 62
7
100
AcDbSpline
 70
8
 71
3
 72
8
 73
4
 74
0
 40
0
 40
0
 40
0
 40
0
 40
1
 40
1
 40
1
 40
1
 10
0.040898
 20
0.001420
 30
0.0
 10
0.040898
 20
0.001261
 30
0.0
 10
0.040740
 20
0.001224
 30
0.0
 10
0.040507
 20
0.001224
 30
0.0
  0
LWPOLYLINE
  5
130
100
AcDbEntity
  8
0
 62
7
100
AcDbPolyline
 90
4
 70
0
 10
0.038365
 20
0.001233
 30
0.0
 10
0.039045
 20
0.001242
 30
0.0
 10
0.039119
 20
0.001242
 30
0.0
 10
0.039119
 20
0.001932
 30
0.0
  0
SPLINE
  5
131
100
AcDbEntity
  8
0
 62
7
100
AcDbSpline
 70
8
 71
3
 72
8
 73
4
 74
0
 40
0
 40
0
 40
0
 40
0
 40
1
 40
1
 40
1
 40
1
 10
0.039715
 20
0.001606
 30
0.0
 10
0.039837
 20
0.001606
 30
0.0
 10
0.040488
 20
0.001606
 30
0.0
 10
0.040488
 20
0.001606
 30
0.0
  0
SPLINE
  5
132
100
AcDbEntity
  8
0
 62
7
100
AcDbSpline
 70
8
 71
3
 72
8
 73
4
 74
0
 40
0
 40
0
 40
0
 40
0
 40
1
 40
1
 40
1
 40
1
 10
0.040488
 20
0.001606
 30
0.0
 10
0.040759
 20
0.001606
 30
0.0
 10
0.040898
 20
0.001532
 30
0.0
 10
0.040898
 20
0.001420
 30
0.0
  0
LWPOLYLINE
  5
133
100
AcDbEntity
  8
0
 62
7
100
AcDbPolyline
 90
3
 70
0
 10
0.040507
 20
0.001224
 30
0.0
 10
0.039715
 20
0.001224
 30
0.0
 10
0.039715
 20
0.001606
 30
0.0
  0
LWPOLYLINE
  5
134
100
AcDbEntity
  8
0
 62
7
100
AcDbPolyline
 90
1
 70
1
 10
0.040898
 20
0.001420
 30
0.0
  0
SPLINE
  5
135
100
AcDbEntity
  8
0
 62
7
100
AcDbSpline
 70
8
 71
3
 72
8
 73
4
 74
0
 40
0
 40
0
 40
0
 40
0
 40
1
 40
1
 40
1
 40
1
 10
0.025551
 20
0.001681
 30
0.0
 10
0.025300
 20
0.001681
 30
0.0
 10
0.025039
 20
0.001690
 30
0.0
 10
0.024834
 20
0.001597
 30
0.0
  0
SPLINE
  5
136
100
AcDbEntity
  8
0
 62
7
100
AcDbSpline
 70
8
 71
3
 72
8
 73
4
 74
0
 40
0
 40
0
 40
0
 40
0
 40
1
 40
1
 40
1
 40
1
 10
0.024834
 20
0.001597
 30
0.0
 10
0.024778
 20
0.001569
 30
0.0
 10
0.024685
 20
0.001504
 30
0.0
 10
0.024713
 20
0.001420
 30
0.0
  0
SPLINE
  5
137
100
AcDbEntity
  8
0
 62
7
100
AcDbSpline
 70
8
 71
3
 72
8
 73
4
 74
0
 40
0
 40
0
 40
0
 40
0
 40
1
 40
1
 40
1
 40
1
 10
0.024713
 20
0.001420
 30
0.0
 10
0.024816
 20
0.001131
 30
0.0
 10
0.026641
 20
0.001494
 30
0.0
 10
0.026678
 20
0.000833
 30
0.0
  0
SPLINE
  5
138
100
AcDbEntity
  8
0
 62
7
100
AcDbSpline
 70
8
 71
3
 72
8
 73
4
 74
0
 40
0
 40
0
 40
0
 40
0
 40
1
 40
1
 40
1
 40
1
 10
0.026678
 20
0.000833
 30
0.0
 10
0.026716
 20
0.000228
 30
0.0
 10
0.025943
 20
0.000265
 30
0.0
 10
0.025486
 20
0.000265
 30
0.0
  0
LWPOLYLINE
  5
139
100
AcDbEntity
  8
0
 62
7
100
AcDbPolyline
 90
4
 70
0
 10
0.025058
 20
0.001969
 30
0.0
 10
0.026315
 20
0.001969
 30
0.0
 10
0.026315
 20
0.001681
 30
0.0
 10
0.025551
 20
0.001681
 30
0.0
  0
SPLINE
  5
13a
100
AcDbEntity
  8
0
 62
7
100
AcDbSpline
 70
8
 71
3
 72
8
 73
4
 74
0
 40
0
 40
0
 40
0
 40
0
 40
1
 40
1
 40
1
 40
1
 10
0.025514
 20
0.000581
 30
0.0
 10
0.025896
 20
0.000581
 30
0.0
 10
0.026120
 20
0.000619
 30
0.0
 10
0.026120
 20
0.000777
 30
0.0
  0
SPLINE
  5
13b
100
AcDbEntity
  8
0
 62
7
100
AcDbSpline
 70
8
 71
3
 72
8
 73
4
 74
0
 40
0
 40
0
 40
0
 40
0
 40
1
 40
1
 40
1
 40
1
 10
0.026120
 20
0.000777
 30
0.0
 10
0.026120
 20
0.000917
 30
0.0
 10
0.025812
 20
0.000963
 30
0.0
 10
0.025431
 20
0.000963
 30
0.0
  0
LWPOLYLINE
  5
13c
100
AcDbEntity
  8
0
 62
7
100
AcDbPolyline
 90
4
 70
0
 10
0.025486
 20
0.000265
 30
0.0
 10
0.024201
 20
0.000265
 30
0.0
 10
0.024201
 20
0.000581
 30
0.0
 10
0.025514
 20
0.000581
 30
0.0
  0
SPLINE
  5
13d
100
AcDbEntity
  8
0
 62
7
100
AcDbSpline
 70
8
 71
3
 72
8
 73
4
 74
0
 40
0
 40
0
 40
0
 40
0
 40
1
 40
1
 40
1
 40
1
 10
0.023820
 20
0.000963
 30
0.0
 10
0.023773
 20
0.000963
 30
0.0
 10
0.023698
 20
0.000963
 30
0.0
 10
0.023671
 20
0.000973
 30
0.0
  0
SPLINE
  5
13e
100
AcDbEntity
  8
0
 62
7
100
AcDbSpline
 70
8
 71
3
 72
8
 73
4
 74
0
 40
0
 40
0
 40
0
 40
0
 40
1
 40
1
 40
1
 40
1
 10
0.023671
 20
0.000973
 30
0.0
 10
0.023615
 20
0.001000
 30
0.0
 10
0.023559
 20
0.001066
 30
0.0
 10
0.023522
 20
0.001103
 30
0.0
  0
SPLINE
  5
13f
100
AcDbEntity
  8
0
 62
7
100
AcDbSpline
 70
8
 71
3
 72
8
 73
4
 74
0
 40
0
 40
0
 40
0
 40
0
 40
1
 40
1
 40
1
 40
1
 10
0.023522
 20
0.001103
 30
0.0
 10
0.023494
 20
0.001140
 30
0.0
 10
0.023466
 20
0.001168
 30
0.0
 10
0.023475
 20
0.001205
 30
0.0
  0
SPLINE
  5
140
100
AcDbEntity
  8
0
 62
7
100
AcDbSpline
 70
8
 71
3
 72
8
 73
4
 74
0
 40
0
 40
0
 40
0
 40
0
 40
1
 40
1
 40
1
 40
1
 10
0.023475
 20
0.001205
 30
0.0
 10
0.023484
 20
0.001215
 30
0.0
 10
0.023503
 20
0.001215
 30
0.0
 10
0.023512
 20
0.001215
 30
0.0
  0
SPLINE
  5
141
100
AcDbEntity
  8
0
 62
7
100
AcDbSpline
 70
8
 71
3
 72
8
 73
4
 74
0
 40
0
 40
0
 40
0
 40
0
 40
1
 40
1
 40
1
 40
1
 10
0.023512
 20
0.001215
 30
0.0
 10
0.023512
 20
0.001215
 30
0.0
 10
0.024211
 20
0.001215
 30
0.0
 10
0.024257
 20
0.001215
 30
0.0
  0
SPLINE
  5
142
100
AcDbEntity
  8
0
 62
7
100
AcDbSpline
 70
8
 71
3
 72
8
 73
4
 74
0
 40
0
 40
0
 40
0
 40
0
 40
1
 40
1
 40
1
 40
1
 10
0.024257
 20
0.001215
 30
0.0
 10
0.024164
 20
0.001270
 30
0.0
 10
0.024090
 20
0.001392
 30
0.0
 10
0.024118
 20
0.001522
 30
0.0
  0
SPLINE
  5
143
100
AcDbEntity
  8
0
 62
7
100
AcDbSpline
 70
8
 71
3
 72
8
 73
4
 74
0
 40
0
 40
0
 40
0
 40
0
 40
1
 40
1
 40
1
 40
1
 10
0.024118
 20
0.001522
 30
0.0
 10
0.024173
 20
0.001783
 30
0.0
 10
0.024397
 20
0.001969
 30
0.0
 10
0.025058
 20
0.001969
 30
0.0
  0
LWPOLYLINE
  5
144
100
AcDbEntity
  8
0
 62
7
100
AcDbPolyline
 90
3
 70
0
 10
0.025431
 20
0.000963
 30
0.0
 10
0.025365
 20
0.000963
 30
0.0
 10
0.023820
 20
0.000963
 30
0.0
  0
SPLINE
  5
145
100
AcDbEntity
  8
0
 62
7
100
AcDbSpline
 70
8
 71
3
 72
8
 73
4
 74
0
 40
0
 40
0
 40
0
 40
0
 40
1
 40
1
 40
1
 40
1
 10
0.012859
 20
0.001141
 30
0.0
 10
0.012859
 20
0.000861
 30
0.0
 10
0.013231
 20
0.000619
 30
0.0
 10
0.013706
 20
0.000619
 30
0.0
  0
SPLINE
  5
146
100
AcDbEntity
  8
0
 62
7
100
AcDbSpline
 70
8
 71
3
 72
8
 73
4
 74
0
 40
0
 40
0
 40
0
 40
0
 40
1
 40
1
 40
1
 40
1
 10
0.013706
 20
0.000619
 30
0.0
 10
0.014172
 20
0.000610
 30
0.0
 10
0.014554
 20
0.000833
 30
0.0
 10
0.014563
 20
0.001112
 30
0.0
  0
SPLINE
  5
147
100
AcDbEntity
  8
0
 62
7
100
AcDbSpline
 70
8
 71
3
 72
8
 73
4
 74
0
 40
0
 40
0
 40
0
 40
0
 40
1
 40
1
 40
1
 40
1
 10
0.014563
 20
0.001112
 30
0.0
 10
0.014563
 20
0.001392
 30
0.0
 10
0.014191
 20
0.001625
 30
0.0
 10
0.013725
 20
0.001634
 30
0.0
  0
SPLINE
  5
148
100
AcDbEntity
  8
0
 62
7
100
AcDbSpline
 70
8
 71
3
 72
8
 73
4
 74
0
 40
0
 40
0
 40
0
 40
0
 40
1
 40
1
 40
1
 40
1
 10
0.013725
 20
0.001634
 30
0.0
 10
0.013250
 20
0.001643
 30
0.0
 10
0.012868
 20
0.001420
 30
0.0
 10
0.012859
 20
0.001141
 30
0.0
  0
LWPOLYLINE
  5
149
100
AcDbEntity
  8
0
 62
7
100
AcDbPolyline
 90
1
 70
1
 10
0.025058
 20
0.001969
 30
0.0
  0
LWPOLYLINE
  5
14a
100
AcDbEntity
  8
0
 62
7
100
AcDbPolyline
 90
1
 70
1
 10
0.012859
 20
0.001141
 30
0.0
  0
SPLINE
  5
14b
100
AcDbEntity
  8
0
 62
7
100
AcDbSpline
 70
8
 71
3
 72
8
 73
4
 74
0
 40
0
 40
0
 40
0
 40
0
 40
1
 40
1
 40
1
 40
1
 10
0.012011
 20
0.000982
 30
0.0
 10
0.011965
 20
0.000982
 30
0.0
 10
0.011881
 20
0.000982
 30
0.0
 10
0.011853
 20
0.000991
 30
0.0
  0
SPLINE
  5
14c
100
AcDbEntity
  8
0
 62
7
100
AcDbSpline
 70
8
 71
3
 72
8
 73
4
 74
0
 40
0
 40
0
 40
0
 40
0
 40
1
 40
1
 40
1
 40
1
 10
0.011853
 20
0.000991
 30
0.0
 10
0.011797
 20
0.001010
 30
0.0
 10
0.011751
 20
0.001075
 30
0.0
 10
0.011713
 20
0.001122
 30
0.0
  0
SPLINE
  5
14d
100
AcDbEntity
  8
0
 62
7
100
AcDbSpline
 70
8
 71
3
 72
8
 73
4
 74
0
 40
0
 40
0
 40
0
 40
0
 40
1
 40
1
 40
1
 40
1
 10
0.011713
 20
0.001122
 30
0.0
 10
0.011685
 20
0.001159
 30
0.0
 10
0.011657
 20
0.001187
 30
0.0
 10
0.011667
 20
0.001224
 30
0.0
  0
SPLINE
  5
14e
100
AcDbEntity
  8
0
 62
7
100
AcDbSpline
 70
8
 71
3
 72
8
 73
4
 74
0
 40
0
 40
0
 40
0
 40
0
 40
1
 40
1
 40
1
 40
1
 10
0.011667
 20
0.001224
 30
0.0
 10
0.011676
 20
0.001233
 30
0.0
 10
0.011685
 20
0.001233
 30
0.0
 10
0.011704
 20
0.001233
 30
0.0
  0
LWPOLYLINE
  5
14f
100
AcDbEntity
  8
0
 62
7
100
AcDbPolyline
 90
2
 70
0
 10
0.012281
 20
0.000982
 30
0.0
 10
0.012011
 20
0.000982
 30
0.0
  0
SPLINE
  5
150
100
AcDbEntity
  8
0
 62
7
100
AcDbSpline
 70
8
 71
3
 72
8
 73
4
 74
0
 40
0
 40
0
 40
0
 40
0
 40
1
 40
1
 40
1
 40
1
 10
0.012272
 20
0.001233
 30
0.0
 10
0.012365
 20
0.001662
 30
0.0
 10
0.012971
 20
0.001988
 30
0.0
 10
0.013715
 20
0.001988
 30
0.0
  0
SPLINE
  5
151
100
AcDbEntity
  8
0
 62
7
100
AcDbSpline
 70
8
 71
3
 72
8
 73
4
 74
0
 40
0
 40
0
 40
0
 40
0
 40
1
 40
1
 40
1
 40
1
 10
0.013715
 20
0.001988
 30
0.0
 10
0.014451
 20
0.001988
 30
0.0
 10
0.015066
 20
0.001662
 30
0.0
 10
0.015159
 20
0.001243
 30
0.0
  0
LWPOLYLINE
  5
152
100
AcDbEntity
  8
0
 62
7
100
AcDbPolyline
 90
2
 70
0
 10
0.011704
 20
0.001233
 30
0.0
 10
0.012272
 20
0.001233
 30
0.0
  0
SPLINE
  5
153
100
AcDbEntity
  8
0
 62
7
100
AcDbSpline
 70
8
 71
3
 72
8
 73
4
 74
0
 40
0
 40
0
 40
0
 40
0
 40
1
 40
1
 40
1
 40
1
 10
0.015410
 20
0.001243
 30
0.0
 10
0.015457
 20
0.001243
 30
0.0
 10
0.015541
 20
0.001243
 30
0.0
 10
0.015559
 20
0.001224
 30
0.0
  0
SPLINE
  5
154
100
AcDbEntity
  8
0
 62
7
100
AcDbSpline
 70
8
 71
3
 72
8
 73
4
 74
0
 40
0
 40
0
 40
0
 40
0
 40
1
 40
1
 40
1
 40
1
 10
0.015559
 20
0.001224
 30
0.0
 10
0.015615
 20
0.001206
 30
0.0
 10
0.015671
 20
0.001141
 30
0.0
 10
0.015708
 20
0.001094
 30
0.0
  0
SPLINE
  5
155
100
AcDbEntity
  8
0
 62
7
100
AcDbSpline
 70
8
 71
3
 72
8
 73
4
 74
0
 40
0
 40
0
 40
0
 40
0
 40
1
 40
1
 40
1
 40
1
 10
0.015708
 20
0.001094
 30
0.0
 10
0.015736
 20
0.001066
 30
0.0
 10
0.015764
 20
0.001029
 30
0.0
 10
0.015755
 20
0.001001
 30
0.0
  0
SPLINE
  5
156
100
AcDbEntity
  8
0
 62
7
100
AcDbSpline
 70
8
 71
3
 72
8
 73
4
 74
0
 40
0
 40
0
 40
0
 40
0
 40
1
 40
1
 40
1
 40
1
 10
0.015755
 20
0.001001
 30
0.0
 10
0.015745
 20
0.000991
 30
0.0
 10
0.015736
 20
0.000982
 30
0.0
 10
0.015717
 20
0.000982
 30
0.0
  0
LWPOLYLINE
  5
157
100
AcDbEntity
  8
0
 62
7
100
AcDbPolyline
 90
2
 70
0
 10
0.015159
 20
0.001243
 30
0.0
 10
0.015410
 20
0.001243
 30
0.0
  0
SPLINE
  5
158
100
AcDbEntity
  8
0
 62
7
100
AcDbSpline
 70
8
 71
3
 72
8
 73
4
 74
0
 40
0
 40
0
 40
0
 40
0
 40
1
 40
1
 40
1
 40
1
 10
0.015149
 20
0.000982
 30
0.0
 10
0.015028
 20
0.000572
 30
0.0
 10
0.014432
 20
0.000265
 30
0.0
 10
0.013715
 20
0.000265
 30
0.0
  0
SPLINE
  5
159
100
AcDbEntity
  8
0
 62
7
100
AcDbSpline
 70
8
 71
3
 72
8
 73
4
 74
0
 40
0
 40
0
 40
0
 40
0
 40
1
 40
1
 40
1
 40
1
 10
0.013715
 20
0.000265
 30
0.0
 10
0.012989
 20
0.000265
 30
0.0
 10
0.012393
 20
0.000572
 30
0.0
 10
0.012281
 20
0.000982
 30
0.0
  0
LWPOLYLINE
  5
15a
100
AcDbEntity
  8
0
 62
7
100
AcDbPolyline
 90
2
 70
0
 10
0.015717
 20
0.000982
 30
0.0
 10
0.015149
 20
0.000982
 30
0.0
  0
SPLINE
  5
15b
100
AcDbEntity
  8
0
 62
7
100
AcDbSpline
 70
8
 71
3
 72
8
 73
4
 74
0
 40
0
 40
0
 40
0
 40
0
 40
1
 40
1
 40
1
 40
1
 10
0.034920
 20
0.001932
 30
0.0
 10
0.035115
 20
0.001932
 30
0.0
 10
0.035376
 20
0.001932
 30
0.0
 10
0.035572
 20
0.001932
 30
0.0
  0
SPLINE
  5
15c
100
AcDbEntity
  8
0
 62
7
100
AcDbSpline
 70
8
 71
3
 72
8
 73
4
 74
0
 40
0
 40
0
 40
0
 40
0
 40
1
 40
1
 40
1
 40
1
 10
0.035572
 20
0.001932
 30
0.0
 10
0.035572
 20
0.001923
 30
0.0
 10
0.035572
 20
0.000526
 30
0.0
 10
0.035572
 20
0.000302
 30
0.0
  0
SPLINE
  5
15d
100
AcDbEntity
  8
0
 62
7
100
AcDbSpline
 70
8
 71
3
 72
8
 73
4
 74
0
 40
0
 40
0
 40
0
 40
0
 40
1
 40
1
 40
1
 40
1
 10
0.035572
 20
0.000302
 30
0.0
 10
0.035376
 20
0.000302
 30
0.0
 10
0.035115
 20
0.000302
 30
0.0
 10
0.034920
 20
0.000302
 30
0.0
  0
SPLINE
  5
15e
100
AcDbEntity
  8
0
 62
7
100
AcDbSpline
 70
8
 71
3
 72
8
 73
4
 74
0
 40
0
 40
0
 40
0
 40
0
 40
1
 40
1
 40
1
 40
1
 10
0.034920
 20
0.000302
 30
0.0
 10
0.034920
 20
0.000312
 30
0.0
 10
0.034920
 20
0.001699
 30
0.0
 10
0.034920
 20
0.001932
 30
0.0
  0
LWPOLYLINE
  5
15f
100
AcDbEntity
  8
0
 62
7
100
AcDbPolyline
 90
1
 70
1
 10
0.012281
 20
0.000982
 30
0.0
  0
LWPOLYLINE
  5
160
100
AcDbEntity
  8
0
 62
7
100
AcDbPolyline
 90
1
 70
1
 10
0.034920
 20
0.001932
 30
0.0
  0
SPLINE
  5
161
100
AcDbEntity
  8
0
 62
7
100
AcDbSpline
 70
8
 71
3
 72
8
 73
4
 74
0
 40
0
 40
0
 40
0
 40
0
 40
1
 40
1
 40
1
 40
1
 10
0.035646
 20
0.001243
 30
0.0
 10
0.035692
 20
0.001243
 30
0.0
 10
0.035767
 20
0.001243
 30
0.0
 10
0.035795
 20
0.001224
 30
0.0
  0
SPLINE
  5
162
100
AcDbEntity
  8
0
 62
7
100
AcDbSpline
 70
8
 71
3
 72
8
 73
4
 74
0
 40
0
 40
0
 40
0
 40
0
 40
1
 40
1
 40
1
 40
1
 10
0.035795
 20
0.001224
 30
0.0
 10
0.035851
 20
0.001206
 30
0.0
 10
0.035906
 20
0.001141
 30
0.0
 10
0.035944
 20
0.001094
 30
0.0
  0
SPLINE
  5
163
100
AcDbEntity
  8
0
 62
7
100
AcDbSpline
 70
8
 71
3
 72
8
 73
4
 74
0
 40
0
 40
0
 40
0
 40
0
 40
1
 40
1
 40
1
 40
1
 10
0.035944
 20
0.001094
 30
0.0
 10
0.035972
 20
0.001066
 30
0.0
 10
0.036000
 20
0.001029
 30
0.0
 10
0.035981
 20
0.001001
 30
0.0
  0
SPLINE
  5
164
100
AcDbEntity
  8
0
 62
7
100
AcDbSpline
 70
8
 71
3
 72
8
 73
4
 74
0
 40
0
 40
0
 40
0
 40
0
 40
1
 40
1
 40
1
 40
1
 10
0.035981
 20
0.001001
 30
0.0
 10
0.035981
 20
0.000991
 30
0.0
 10
0.035963
 20
0.000982
 30
0.0
 10
0.035953
 20
0.000982
 30
0.0
  0
LWPOLYLINE
  5
165
100
AcDbEntity
  8
0
 62
7
100
AcDbPolyline
 90
2
 70
0
 10
0.035199
 20
0.001243
 30
0.0
 10
0.035646
 20
0.001243
 30
0.0
  0
LWPOLYLINE
  5
166
100
AcDbEntity
  8
0
 62
7
100
AcDbPolyline
 90
5
 70
0
 10
0.035953
 20
0.000982
 30
0.0
 10
0.035274
 20
0.000982
 30
0.0
 10
0.035199
 20
0.000982
 30
0.0
 10
0.035199
 20
0.001243
 30
0.0
 10
0.035199
 20
0.001243
 30
0.0
  0
SPLINE
  5
167
100
AcDbEntity
  8
0
 62
7
100
AcDbSpline
 70
8
 71
3
 72
8
 73
4
 74
0
 40
0
 40
0
 40
0
 40
0
 40
1
 40
1
 40
1
 40
1
 10
0.034845
 20
0.000982
 30
0.0
 10
0.034799
 20
0.000982
 30
0.0
 10
0.034724
 20
0.000982
 30
0.0
 10
0.034696
 20
0.000991
 30
0.0
  0
SPLINE
  5
168
100
AcDbEntity
  8
0
 62
7
100
AcDbSpline
 70
8
 71
3
 72
8
 73
4
 74
0
 40
0
 40
0
 40
0
 40
0
 40
1
 40
1
 40
1
 40
1
 10
0.034696
 20
0.000991
 30
0.0
 10
0.034640
 20
0.001010
 30
0.0
 10
0.034584
 20
0.001075
 30
0.0
 10
0.034547
 20
0.001122
 30
0.0
  0
SPLINE
  5
169
100
AcDbEntity
  8
0
 62
7
100
AcDbSpline
 70
8
 71
3
 72
8
 73
4
 74
0
 40
0
 40
0
 40
0
 40
0
 40
1
 40
1
 40
1
 40
1
 10
0.034547
 20
0.001122
 30
0.0
 10
0.034519
 20
0.001159
 30
0.0
 10
0.034500
 20
0.001187
 30
0.0
 10
0.034510
 20
0.001224
 30
0.0
  0
SPLINE
  5
16a
100
AcDbEntity
  8
0
 62
7
100
AcDbSpline
 70
8
 71
3
 72
8
 73
4
 74
0
 40
0
 40
0
 40
0
 40
0
 40
1
 40
1
 40
1
 40
1
 10
0.034510
 20
0.001224
 30
0.0
 10
0.034510
 20
0.001233
 30
0.0
 10
0.034528
 20
0.001233
 30
0.0
 10
0.034538
 20
0.001233
 30
0.0
  0
LWPOLYLINE
  5
16b
100
AcDbEntity
  8
0
 62
7
100
AcDbPolyline
 90
2
 70
0
 10
0.035292
 20
0.000982
 30
0.0
 10
0.034845
 20
0.000982
 30
0.0
  0
SPLINE
  5
16c
100
AcDbEntity
  8
0
 62
7
100
AcDbSpline
 70
8
 71
3
 72
8
 73
4
 74
0
 40
0
 40
0
 40
0
 40
0
 40
1
 40
1
 40
1
 40
1
 10
0.044567
 20
0.001932
 30
0.0
 10
0.045275
 20
0.001932
 30
0.0
 10
0.046057
 20
0.001932
 30
0.0
 10
0.046765
 20
0.001932
 30
0.0
  0
SPLINE
  5
16d
100
AcDbEntity
  8
0
 62
7
100
AcDbSpline
 70
8
 71
3
 72
8
 73
4
 74
0
 40
0
 40
0
 40
0
 40
0
 40
1
 40
1
 40
1
 40
1
 10
0.046765
 20
0.001932
 30
0.0
 10
0.046765
 20
0.001923
 30
0.0
 10
0.046765
 20
0.001708
 30
0.0
 10
0.046765
 20
0.001643
 30
0.0
  0
SPLINE
  5
16e
100
AcDbEntity
  8
0
 62
7
100
AcDbSpline
 70
8
 71
3
 72
8
 73
4
 74
0
 40
0
 40
0
 40
0
 40
0
 40
1
 40
1
 40
1
 40
1
 10
0.046765
 20
0.001643
 30
0.0
 10
0.046234
 20
0.001643
 30
0.0
 10
0.045685
 20
0.001643
 30
0.0
 10
0.045154
 20
0.001643
 30
0.0
  0
SPLINE
  5
16f
100
AcDbEntity
  8
0
 62
7
100
AcDbSpline
 70
8
 71
3
 72
8
 73
4
 74
0
 40
0
 40
0
 40
0
 40
0
 40
1
 40
1
 40
1
 40
1
 10
0.045154
 20
0.001643
 30
0.0
 10
0.045154
 20
0.001513
 30
0.0
 10
0.045154
 20
0.001224
 30
0.0
 10
0.045154
 20
0.001224
 30
0.0
  0
SPLINE
  5
170
100
AcDbEntity
  8
0
 62
7
100
AcDbSpline
 70
8
 71
3
 72
8
 73
4
 74
0
 40
0
 40
0
 40
0
 40
0
 40
1
 40
1
 40
1
 40
1
 10
0.045154
 20
0.001224
 30
0.0
 10
0.045601
 20
0.001224
 30
0.0
 10
0.046504
 20
0.001224
 30
0.0
 10
0.046532
 20
0.001224
 30
0.0
  0
SPLINE
  5
171
100
AcDbEntity
  8
0
 62
7
100
AcDbSpline
 70
8
 71
3
 72
8
 73
4
 74
0
 40
0
 40
0
 40
0
 40
0
 40
1
 40
1
 40
1
 40
1
 10
0.046532
 20
0.001224
 30
0.0
 10
0.046532
 20
0.001150
 30
0.0
 10
0.046532
 20
0.001038
 30
0.0
 10
0.046532
 20
0.000964
 30
0.0
  0
SPLINE
  5
172
100
AcDbEntity
  8
0
 62
7
100
AcDbSpline
 70
8
 71
3
 72
8
 73
4
 74
0
 40
0
 40
0
 40
0
 40
0
 40
1
 40
1
 40
1
 40
1
 10
0.046532
 20
0.000964
 30
0.0
 10
0.046076
 20
0.000964
 30
0.0
 10
0.045620
 20
0.000964
 30
0.0
 10
0.045154
 20
0.000964
 30
0.0
  0
SPLINE
  5
173
100
AcDbEntity
  8
0
 62
7
100
AcDbSpline
 70
8
 71
3
 72
8
 73
4
 74
0
 40
0
 40
0
 40
0
 40
0
 40
1
 40
1
 40
1
 40
1
 10
0.045154
 20
0.000964
 30
0.0
 10
0.045154
 20
0.000861
 30
0.0
 10
0.045154
 20
0.000610
 30
0.0
 10
0.045154
 20
0.000610
 30
0.0
  0
SPLINE
  5
174
100
AcDbEntity
  8
0
 62
7
100
AcDbSpline
 70
8
 71
3
 72
8
 73
4
 74
0
 40
0
 40
0
 40
0
 40
0
 40
1
 40
1
 40
1
 40
1
 10
0.045154
 20
0.000610
 30
0.0
 10
0.045675
 20
0.000610
 30
0.0
 10
0.046756
 20
0.000619
 30
0.0
 10
0.046765
 20
0.000619
 30
0.0
  0
SPLINE
  5
175
100
AcDbEntity
  8
0
 62
7
100
AcDbSpline
 70
8
 71
3
 72
8
 73
4
 74
0
 40
0
 40
0
 40
0
 40
0
 40
1
 40
1
 40
1
 40
1
 10
0.046765
 20
0.000619
 30
0.0
 10
0.046765
 20
0.000526
 30
0.0
 10
0.046765
 20
0.000386
 30
0.0
 10
0.046765
 20
0.000302
 30
0.0
  0
SPLINE
  5
176
100
AcDbEntity
  8
0
 62
7
100
AcDbSpline
 70
8
 71
3
 72
8
 73
4
 74
0
 40
0
 40
0
 40
0
 40
0
 40
1
 40
1
 40
1
 40
1
 10
0.046765
 20
0.000302
 30
0.0
 10
0.046048
 20
0.000302
 30
0.0
 10
0.044567
 20
0.000302
 30
0.0
 10
0.044567
 20
0.000302
 30
0.0
  0
SPLINE
  5
177
100
AcDbEntity
  8
0
 62
7
100
AcDbSpline
 70
8
 71
3
 72
8
 73
4
 74
0
 40
0
 40
0
 40
0
 40
0
 40
1
 40
1
 40
1
 40
1
 10
0.044567
 20
0.000302
 30
0.0
 10
0.044567
 20
0.000302
 30
0.0
 10
0.044567
 20
0.000861
 30
0.0
 10
0.044567
 20
0.000964
 30
0.0
  0
SPLINE
  5
178
100
AcDbEntity
  8
0
 62
7
100
AcDbSpline
 70
8
 71
3
 72
8
 73
4
 74
0
 40
0
 40
0
 40
0
 40
0
 40
1
 40
1
 40
1
 40
1
 10
0.044567
 20
0.000964
 30
0.0
 10
0.044418
 20
0.000964
 30
0.0
 10
0.044269
 20
0.000964
 30
0.0
 10
0.044120
 20
0.000964
 30
0.0
  0
SPLINE
  5
179
100
AcDbEntity
  8
0
 62
7
100
AcDbSpline
 70
8
 71
3
 72
8
 73
4
 74
0
 40
0
 40
0
 40
0
 40
0
 40
1
 40
1
 40
1
 40
1
 10
0.044120
 20
0.000964
 30
0.0
 10
0.044064
 20
0.000964
 30
0.0
 10
0.043990
 20
0.000964
 30
0.0
 10
0.043962
 20
0.000973
 30
0.0
  0
SPLINE
  5
17a
100
AcDbEntity
  8
0
 62
7
100
AcDbSpline
 70
8
 71
3
 72
8
 73
4
 74
0
 40
0
 40
0
 40
0
 40
0
 40
1
 40
1
 40
1
 40
1
 10
0.043962
 20
0.000973
 30
0.0
 10
0.043906
 20
0.001001
 30
0.0
 10
0.043859
 20
0.001066
 30
0.0
 10
0.043822
 20
0.001103
 30
0.0
  0
SPLINE
  5
17b
100
AcDbEntity
  8
0
 62
7
100
AcDbSpline
 70
8
 71
3
 72
8
 73
4
 74
0
 40
0
 40
0
 40
0
 40
0
 40
1
 40
1
 40
1
 40
1
 10
0.043822
 20
0.001103
 30
0.0
 10
0.043794
 20
0.001141
 30
0.0
 10
0.043766
 20
0.001168
 30
0.0
 10
0.043776
 20
0.001206
 30
0.0
  0
SPLINE
  5
17c
100
AcDbEntity
  8
0
 62
7
100
AcDbSpline
 70
8
 71
3
 72
8
 73
4
 74
0
 40
0
 40
0
 40
0
 40
0
 40
1
 40
1
 40
1
 40
1
 10
0.043776
 20
0.001206
 30
0.0
 10
0.043776
 20
0.001215
 30
0.0
 10
0.043794
 20
0.001215
 30
0.0
 10
0.043803
 20
0.001215
 30
0.0
  0
SPLINE
  5
17d
100
AcDbEntity
  8
0
 62
7
100
AcDbSpline
 70
8
 71
3
 72
8
 73
4
 74
0
 40
0
 40
0
 40
0
 40
0
 40
1
 40
1
 40
1
 40
1
 10
0.043803
 20
0.001215
 30
0.0
 10
0.044036
 20
0.001215
 30
0.0
 10
0.044558
 20
0.001224
 30
0.0
 10
0.044567
 20
0.001224
 30
0.0
  0
SPLINE
  5
17e
100
AcDbEntity
  8
0
 62
7
100
AcDbSpline
 70
8
 71
3
 72
8
 73
4
 74
0
 40
0
 40
0
 40
0
 40
0
 40
1
 40
1
 40
1
 40
1
 10
0.044567
 20
0.001224
 30
0.0
 10
0.044567
 20
0.001457
 30
0.0
 10
0.044567
 20
0.001699
 30
0.0
 10
0.044567
 20
0.001932
 30
0.0
  0
LWPOLYLINE
  5
17f
100
AcDbEntity
  8
0
 62
7
100
AcDbPolyline
 90
5
 70
0
 10
0.034538
 20
0.001233
 30
0.0
 10
0.035217
 20
0.001243
 30
0.0
 10
0.035292
 20
0.001243
 30
0.0
 10
0.035292
 20
0.000982
 30
0.0
 10
0.035292
 20
0.000982
 30
0.0
  0
SPLINE
  5
180
100
AcDbEntity
  8
0
 62
7
100
AcDbSpline
 70
8
 71
3
 72
8
 73
4
 74
0
 40
0
 40
0
 40
0
 40
0
 40
1
 40
1
 40
1
 40
1
 10
0.002550
 20
0.000619
 30
0.0
 10
0.002848
 20
0.000619
 30
0.0
 10
0.003109
 20
0.000703
 30
0.0
 10
0.003286
 20
0.000833
 30
0.0
  0
LWPOLYLINE
  5
181
100
AcDbEntity
  8
0
 62
7
100
AcDbPolyline
 90
1
 70
1
 10
0.044567
 20
0.001932
 30
0.0
  0
SPLINE
  5
182
100
AcDbEntity
  8
0
 62
7
100
AcDbSpline
 70
8
 71
3
 72
8
 73
4
 74
0
 40
0
 40
0
 40
0
 40
0
 40
1
 40
1
 40
1
 40
1
 10
0.003742
 20
0.000629
 30
0.0
 10
0.003463
 20
0.000405
 30
0.0
 10
0.003016
 20
0.000265
 30
0.0
 10
0.002522
 20
0.000265
 30
0.0
  0
SPLINE
  5
183
100
AcDbEntity
  8
0
 62
7
100
AcDbSpline
 70
8
 71
3
 72
8
 73
4
 74
0
 40
0
 40
0
 40
0
 40
0
 40
1
 40
1
 40
1
 40
1
 10
0.002522
 20
0.000265
 30
0.0
 10
0.001805
 20
0.000265
 30
0.0
 10
0.001200
 20
0.000572
 30
0.0
 10
0.001079
 20
0.000973
 30
0.0
  0
LWPOLYLINE
  5
184
100
AcDbEntity
  8
0
 62
7
100
AcDbPolyline
 90
2
 70
0
 10
0.003286
 20
0.000833
 30
0.0
 10
0.003742
 20
0.000629
 30
0.0
  0
SPLINE
  5
185
100
AcDbEntity
  8
0
 62
7
100
AcDbSpline
 70
8
 71
3
 72
8
 73
4
 74
0
 40
0
 40
0
 40
0
 40
0
 40
1
 40
1
 40
1
 40
1
 10
0.000566
 20
0.000973
 30
0.0
 10
0.000566
 20
0.000973
 30
0.0
 10
0.000529
 20
0.000973
 30
0.0
 10
0.000501
 20
0.000973
 30
0.0
  0
SPLINE
  5
186
100
AcDbEntity
  8
0
 62
7
100
AcDbSpline
 70
8
 71
3
 72
8
 73
4
 74
0
 40
0
 40
0
 40
0
 40
0
 40
1
 40
1
 40
1
 40
1
 10
0.000501
 20
0.000973
 30
0.0
 10
0.000473
 20
0.000973
 30
0.0
 10
0.000445
 20
0.000973
 30
0.0
 10
0.000436
 20
0.000982
 30
0.0
  0
SPLINE
  5
187
100
AcDbEntity
  8
0
 62
7
100
AcDbSpline
 70
8
 71
3
 72
8
 73
4
 74
0
 40
0
 40
0
 40
0
 40
0
 40
1
 40
1
 40
1
 40
1
 10
0.000436
 20
0.000982
 30
0.0
 10
0.000380
 20
0.001020
 30
0.0
 10
0.000333
 20
0.001094
 30
0.0
 10
0.000296
 20
0.001141
 30
0.0
  0
SPLINE
  5
188
100
AcDbEntity
  8
0
 62
7
100
AcDbSpline
 70
8
 71
3
 72
8
 73
4
 74
0
 40
0
 40
0
 40
0
 40
0
 40
1
 40
1
 40
1
 40
1
 10
0.000296
 20
0.001141
 30
0.0
 10
0.000268
 20
0.001169
 30
0.0
 10
0.000259
 20
0.001187
 30
0.0
 10
0.000268
 20
0.001215
 30
0.0
  0
SPLINE
  5
189
100
AcDbEntity
  8
0
 62
7
100
AcDbSpline
 70
8
 71
3
 72
8
 73
4
 74
0
 40
0
 40
0
 40
0
 40
0
 40
1
 40
1
 40
1
 40
1
 10
0.000268
 20
0.001215
 30
0.0
 10
0.000277
 20
0.001234
 30
0.0
 10
0.000305
 20
0.001225
 30
0.0
 10
0.000324
 20
0.001225
 30
0.0
  0
LWPOLYLINE
  5
18a
100
AcDbEntity
  8
0
 62
7
100
AcDbPolyline
 90
3
 70
0
 10
0.001079
 20
0.000973
 30
0.0
 10
0.000930
 20
0.000973
 30
0.0
 10
0.000566
 20
0.000973
 30
0.0
  0
SPLINE
  5
18b
100
AcDbEntity
  8
0
 62
7
100
AcDbSpline
 70
8
 71
3
 72
8
 73
4
 74
0
 40
0
 40
0
 40
0
 40
0
 40
1
 40
1
 40
1
 40
1
 10
0.001069
 20
0.001234
 30
0.0
 10
0.001162
 20
0.001662
 30
0.0
 10
0.001777
 20
0.001988
 30
0.0
 10
0.002522
 20
0.001988
 30
0.0
  0
SPLINE
  5
18c
100
AcDbEntity
  8
0
 62
7
100
AcDbSpline
 70
8
 71
3
 72
8
 73
4
 74
0
 40
0
 40
0
 40
0
 40
0
 40
1
 40
1
 40
1
 40
1
 10
0.002522
 20
0.001988
 30
0.0
 10
0.003034
 20
0.001988
 30
0.0
 10
0.003481
 20
0.001830
 30
0.0
 10
0.003751
 20
0.001597
 30
0.0
  0
LWPOLYLINE
  5
18d
100
AcDbEntity
  8
0
 62
7
100
AcDbPolyline
 90
2
 70
0
 10
0.000324
 20
0.001225
 30
0.0
 10
0.001069
 20
0.001234
 30
0.0
  0
SPLINE
  5
18e
100
AcDbEntity
  8
0
 62
7
100
AcDbSpline
 70
8
 71
3
 72
8
 73
4
 74
0
 40
0
 40
0
 40
0
 40
0
 40
1
 40
1
 40
1
 40
1
 10
0.003314
 20
0.001392
 30
0.0
 10
0.003146
 20
0.001541
 30
0.0
 10
0.002867
 20
0.001635
 30
0.0
 10
0.002550
 20
0.001635
 30
0.0
  0
SPLINE
  5
18f
100
AcDbEntity
  8
0
 62
7
100
AcDbSpline
 70
8
 71
3
 72
8
 73
4
 74
0
 40
0
 40
0
 40
0
 40
0
 40
1
 40
1
 40
1
 40
1
 10
0.002550
 20
0.001635
 30
0.0
 10
0.002056
 20
0.001635
 30
0.0
 10
0.001647
 20
0.001411
 30
0.0
 10
0.001647
 20
0.001122
 30
0.0
  0
SPLINE
  5
190
100
AcDbEntity
  8
0
 62
7
100
AcDbSpline
 70
8
 71
3
 72
8
 73
4
 74
0
 40
0
 40
0
 40
0
 40
0
 40
1
 40
1
 40
1
 40
1
 10
0.001647
 20
0.001122
 30
0.0
 10
0.001647
 20
0.000843
 30
0.0
 10
0.002056
 20
0.000619
 30
0.0
 10
0.002550
 20
0.000619
 30
0.0
  0
LWPOLYLINE
  5
191
100
AcDbEntity
  8
0
 62
7
100
AcDbPolyline
 90
2
 70
0
 10
0.003751
 20
0.001597
 30
0.0
 10
0.003314
 20
0.001392
 30
0.0
  0
LWPOLYLINE
  5
192
100
AcDbEntity
  8
0
 62
7
100
AcDbPolyline
 90
1
 70
1
 10
0.002550
 20
0.000619
 30
0.0
  0
ENDSEC
  0
SECTION
  2
OBJECTS
  0
DICTIONARY
  5
C
330
0
100
AcDbDictionary
  3
ACAD_GROUP
350
D
  3
ACAD_MLINESTYLE
350
17
  0
DICTIONARY
  5
D
330
C
100
AcDbDictionary
  0
DICTIONARY
  5
1A
330
C
100
AcDbDictionary
  0
DICTIONARY
  5
17
330
C
100
AcDbDictionary
  3
STANDARD
350
18
  0
DICTIONARY
  5
19
330
C
100
AcDbDictionary
  0
ENDSEC
  0
EOF
